<svg width="25" height="25" viewBox="0 0 25 25" fill="none" xmlns="http://www.w3.org/2000/svg">
<path d="M15.1865 12.0125L6.88477 10.55V21.3568C6.88486 21.4742 6.90809 21.5904 6.9531 21.6989C6.99812 21.8073 7.06406 21.9058 7.14714 21.9887C7.23023 22.0717 7.32884 22.1374 7.43734 22.1823C7.54584 22.2271 7.66211 22.2501 7.77952 22.25H22.1045C22.222 22.2503 22.3385 22.2275 22.4472 22.1827C22.5558 22.138 22.6546 22.0722 22.7379 21.9893C22.8211 21.9063 22.8872 21.8077 22.9323 21.6992C22.9774 21.5907 23.0007 21.4743 23.0008 21.3568V17.375L15.1865 12.0125Z" fill="#185C37"/>
<path d="M15.1865 2.75H7.77952C7.66211 2.7499 7.54584 2.77293 7.43734 2.81776C7.32884 2.8626 7.23023 2.92837 7.14714 3.01132C7.06406 3.09426 6.99812 3.19276 6.9531 3.30119C6.90809 3.40962 6.88486 3.52585 6.88477 3.64325V7.625L15.1865 12.5L19.5823 13.9625L23.0008 12.5V7.625L15.1865 2.75Z" fill="#21A366"/>
<path d="M6.88477 7.625H15.1865V12.5H6.88477V7.625Z" fill="#107C41"/>
<path opacity="0.1" d="M12.8263 6.6499H6.88477V18.8374H12.8263C13.063 18.8362 13.2898 18.7418 13.4574 18.5746C13.625 18.4074 13.72 18.1809 13.7218 17.9442V7.54315C13.72 7.30641 13.625 7.07989 13.4574 6.9127C13.2898 6.7455 13.063 6.65108 12.8263 6.6499Z" fill="black"/>
<path opacity="0.2" d="M12.338 7.13745H6.88477V19.325H12.338C12.5748 19.3238 12.8015 19.2294 12.9691 19.0622C13.1368 18.895 13.2317 18.6684 13.2335 18.4317V8.0307C13.2317 7.79396 13.1368 7.56744 12.9691 7.40024C12.8015 7.23305 12.5748 7.13863 12.338 7.13745Z" fill="black"/>
<path opacity="0.2" d="M12.338 7.13745H6.88477V18.3499H12.338C12.5748 18.3488 12.8015 18.2544 12.9691 18.0872C13.1368 17.92 13.2317 17.6934 13.2335 17.4567V8.0307C13.2317 7.79396 13.1368 7.56744 12.9691 7.40024C12.8015 7.23305 12.5748 7.13863 12.338 7.13745Z" fill="black"/>
<path opacity="0.2" d="M11.8498 7.13745H6.88477V18.3499H11.8498C12.0865 18.3488 12.3133 18.2544 12.4809 18.0872C12.6485 17.92 12.7435 17.6934 12.7453 17.4567V8.0307C12.7435 7.79396 12.6485 7.56744 12.4809 7.40024C12.3133 7.23305 12.0865 7.13863 11.8498 7.13745Z" fill="black"/>
<path d="M2.8955 7.13745H11.849C12.0862 7.13725 12.3137 7.23123 12.4816 7.39872C12.6496 7.56622 12.7441 7.79353 12.7445 8.0307V16.9692C12.7441 17.2064 12.6496 17.4337 12.4816 17.6012C12.3137 17.7687 12.0862 17.8627 11.849 17.8625H2.8955C2.77804 17.8626 2.66168 17.8397 2.55309 17.7949C2.4445 17.7501 2.34581 17.6844 2.26264 17.6014C2.17948 17.5184 2.11348 17.4199 2.06841 17.3114C2.02334 17.203 2.0001 17.0867 2 16.9692V8.0307C2.0001 7.91324 2.02334 7.79694 2.06841 7.68847C2.11348 7.57999 2.17948 7.48146 2.26264 7.3985C2.34581 7.31555 2.4445 7.24979 2.55309 7.205C2.66168 7.16021 2.77804 7.13726 2.8955 7.13745Z" fill="url(#paint0_linear_551_55293)"/>
<path d="M4.77539 15.4047L6.65864 12.4917L4.93364 9.59521H6.31889L7.26014 11.45C7.34714 11.6255 7.41014 11.756 7.43864 11.843H7.45139C7.51289 11.702 7.57814 11.5662 7.64639 11.4335L8.65289 9.59821H9.92789L8.15864 12.4782L9.97289 15.407H8.61614L7.52864 13.3737C7.47815 13.2863 7.43524 13.1947 7.40039 13.1H7.38239C7.35068 13.1923 7.3084 13.2806 7.25639 13.3632L6.13664 15.4047H4.77539Z" fill="white"/>
<path d="M22.1043 2.75H15.1855V7.625H22.9998V3.64325C22.9997 3.52579 22.9765 3.40949 22.9314 3.30102C22.8863 3.19254 22.8203 3.09401 22.7372 3.01105C22.654 2.9281 22.5553 2.86234 22.4467 2.81755C22.3381 2.77276 22.2218 2.7498 22.1043 2.75Z" fill="#33C481"/>
<path d="M15.1855 12.5H22.9998V17.375H15.1855V12.5Z" fill="#107C41"/>
<defs>
<linearGradient id="paint0_linear_551_55293" x1="3.8705" y1="6.43545" x2="10.874" y2="18.5645" gradientUnits="userSpaceOnUse">
<stop stop-color="#18884F"/>
<stop offset="0.5" stop-color="#117E43"/>
<stop offset="1" stop-color="#0B6631"/>
</linearGradient>
</defs>
</svg>