<svg width="127" height="34" viewBox="0 0 127 34" fill="none" xmlns="http://www.w3.org/2000/svg">
<g clip-path="url(#clip0_309_68847)">
<rect y="3.11426" width="28.0251" height="28.0251" rx="7.00626" fill="white"/>
<rect y="3.11426" width="28.0251" height="28.0251" rx="7.00626" fill="url(#paint0_linear_309_68847)"/>
<path fill-rule="evenodd" clip-rule="evenodd" d="M14.0129 13.6916C12.1157 13.6916 10.5778 15.2295 10.5778 17.1267C10.5778 19.0238 12.1157 20.5618 14.0129 20.5618C15.9101 20.5618 17.448 19.0238 17.448 17.1267C17.448 15.2295 15.9101 13.6916 14.0129 13.6916ZM10.5098 17.1267C10.5098 15.1919 12.0782 13.6235 14.0129 13.6235C15.9476 13.6235 17.516 15.1919 17.516 17.1267C17.516 19.0614 15.9476 20.6298 14.0129 20.6298C12.0782 20.6298 10.5098 19.0614 10.5098 17.1267Z" fill="#D0D5DD"/>
<path fill-rule="evenodd" clip-rule="evenodd" d="M14.0124 14.7792C12.7164 14.7792 11.6657 15.8299 11.6657 17.126C11.6657 18.422 12.7164 19.4727 14.0124 19.4727C15.3085 19.4727 16.3592 18.422 16.3592 17.126C16.3592 15.8299 15.3085 14.7792 14.0124 14.7792ZM11.5977 17.126C11.5977 15.7923 12.6788 14.7112 14.0124 14.7112C15.3461 14.7112 16.4272 15.7923 16.4272 17.126C16.4272 18.4596 15.3461 19.5407 14.0124 19.5407C12.6788 19.5407 11.5977 18.4596 11.5977 17.126Z" fill="#D0D5DD"/>
<path d="M28.0254 17.0923L28.0254 17.1603L0.000339505 17.1603L0.000339508 17.0923L28.0254 17.0923Z" fill="#D0D5DD"/>
<path d="M28.0254 26.4109L28.0254 26.4789L0.000339505 26.4789L0.000339508 26.4109L28.0254 26.4109Z" fill="#D0D5DD"/>
<path d="M28.0254 21.7515L28.0254 21.8195L0.000339505 21.8195L0.000339508 21.7515L28.0254 21.7515Z" fill="#D0D5DD"/>
<g filter="url(#filter0_dd_309_68847)">
<circle cx="14.0121" cy="17.1266" r="7.00626" fill="url(#paint1_linear_309_68847)"/>
</g>
<g filter="url(#filter1_b_309_68847)">
<path d="M0 17.1265H28.0251V19.929C28.0251 23.8528 28.0251 25.8148 27.2614 27.3135C26.5897 28.6318 25.5179 29.7036 24.1996 30.3754C22.7008 31.139 20.7389 31.139 16.815 31.139H11.21C7.28615 31.139 5.32421 31.139 3.82549 30.3754C2.50717 29.7036 1.43535 28.6318 0.763637 27.3135C0 25.8148 0 23.8528 0 19.929V17.1265Z" fill="white" fill-opacity="0.2"/>
</g>
</g>
<rect x="0.0875783" y="3.20184" width="27.8499" height="27.8499" rx="6.91868" stroke="#D0D5DD" stroke-width="0.175157"/>
<path d="M44.8049 24.1196C43.5161 24.1196 42.3802 23.8472 41.397 23.3025C40.4271 22.7445 39.6632 21.9938 39.1052 21.0505C38.5605 20.0939 38.2881 19.0111 38.2881 17.8021V10.0298H40.4404V17.6825C40.4404 18.5063 40.6331 19.2503 41.0184 19.9146C41.4169 20.5656 41.9484 21.0837 42.6127 21.469C43.277 21.841 44.0077 22.027 44.8049 22.027C45.6552 22.027 46.4125 21.841 47.0768 21.469C47.7543 21.0837 48.2858 20.5656 48.6711 19.9146C49.0696 19.2503 49.2689 18.5063 49.2689 17.6825V10.0298H51.3216V17.8021C51.3216 19.0111 51.0426 20.0939 50.4846 21.0505C49.9399 21.9938 49.1759 22.7445 48.1928 23.3025C47.2229 23.8472 46.0936 24.1196 44.8049 24.1196ZM57.1522 24V10.0498H59.2049L69.5281 21.469L69.3288 21.6484C69.2757 21.2764 69.2225 20.8712 69.1694 20.4327C69.1295 19.9943 69.0963 19.5426 69.0697 19.0776C69.0432 18.6125 69.0166 18.1343 68.99 17.6427C68.9767 17.1378 68.9634 16.6329 68.9502 16.1281C68.9369 15.6232 68.9302 15.125 68.9302 14.6334V10.0498H71.0825V24H68.99L58.8063 12.9992L58.906 12.7202C58.9458 13.1587 58.979 13.5905 59.0056 14.0156C59.0455 14.4275 59.0853 14.8261 59.1252 15.2113C59.165 15.5966 59.1916 15.9686 59.2049 16.3274C59.2315 16.6728 59.2514 17.0049 59.2647 17.3238C59.2913 17.6294 59.3046 17.9217 59.3046 18.2007V24H57.1522ZM77.0598 24V21.9274H80.1887V12.1224H77.0598V10.0498H85.4898V12.1224H82.341V21.9274H85.4898V24H77.0598ZM91.4635 24V10.0498H93.5759L99.4749 18.0612H98.6179L104.537 10.0498H106.609V24H104.457V18.1608C104.457 17.0182 104.484 15.9686 104.537 15.0121C104.59 14.0422 104.696 13.0657 104.856 12.0825L105.095 12.8597L99.6742 19.9943H98.3589L92.998 12.8996L93.2172 12.0825C93.3633 13.0391 93.463 14.0023 93.5161 14.9722C93.5826 15.9288 93.6158 16.9917 93.6158 18.1608V24H91.4635ZM117.998 24.1993C117.081 24.1993 116.237 24.0996 115.467 23.9004C114.696 23.7011 113.992 23.4021 113.354 23.0036C112.73 22.605 112.159 22.1001 111.641 21.489L113.036 19.7352C113.819 20.6387 114.603 21.2897 115.387 21.6882C116.184 22.0735 117.088 22.2662 118.098 22.2662C118.722 22.2662 119.307 22.1865 119.851 22.027C120.409 21.8543 120.861 21.6152 121.206 21.3096C121.565 20.9907 121.745 20.5988 121.745 20.1338C121.745 19.8282 121.658 19.5691 121.485 19.3566C121.313 19.144 121.08 18.9646 120.788 18.8185C120.496 18.6723 120.163 18.5528 119.791 18.4598C119.433 18.3535 119.061 18.2671 118.675 18.2007C118.303 18.1343 117.951 18.0745 117.619 18.0213C116.796 17.9017 116.051 17.7357 115.387 17.5231C114.736 17.2972 114.185 17.0182 113.733 16.6861C113.281 16.3539 112.936 15.9554 112.697 15.4903C112.458 15.0253 112.338 14.4939 112.338 13.896C112.338 13.2849 112.478 12.7269 112.757 12.222C113.049 11.7171 113.454 11.292 113.972 10.9466C114.49 10.5878 115.095 10.3155 115.786 10.1295C116.477 9.94346 117.227 9.85046 118.038 9.85046C118.888 9.85046 119.665 9.94346 120.369 10.1295C121.087 10.3155 121.718 10.5945 122.263 10.9665C122.821 11.3252 123.286 11.7703 123.658 12.3017L122.183 13.8562C121.851 13.4045 121.466 13.0258 121.027 12.7202C120.602 12.4146 120.13 12.1821 119.612 12.0227C119.094 11.8633 118.549 11.7836 117.978 11.7836C117.327 11.7836 116.749 11.8633 116.244 12.0227C115.739 12.1821 115.341 12.408 115.048 12.7003C114.756 12.9793 114.61 13.3181 114.61 13.7167C114.61 14.0488 114.696 14.3411 114.869 14.5935C115.042 14.8327 115.288 15.0386 115.606 15.2113C115.925 15.3841 116.317 15.5302 116.782 15.6498C117.247 15.7694 117.779 15.869 118.377 15.9487C119.147 16.0683 119.871 16.2211 120.549 16.4071C121.24 16.5798 121.844 16.8123 122.362 17.1046C122.88 17.3836 123.286 17.7423 123.578 18.1808C123.87 18.6059 124.016 19.1307 124.016 19.7551C124.016 20.6586 123.771 21.4425 123.279 22.1068C122.787 22.771 122.09 23.2892 121.187 23.6612C120.283 24.0199 119.22 24.1993 117.998 24.1993Z" fill="white"/>
<defs>
<filter id="filter0_dd_309_68847" x="4.37851" y="8.3688" width="19.2674" height="19.2671" filterUnits="userSpaceOnUse" color-interpolation-filters="sRGB">
<feFlood flood-opacity="0" result="BackgroundImageFix"/>
<feColorMatrix in="SourceAlpha" type="matrix" values="0 0 0 0 0 0 0 0 0 0 0 0 0 0 0 0 0 0 127 0" result="hardAlpha"/>
<feOffset dy="0.875783"/>
<feGaussianBlur stdDeviation="0.875783"/>
<feColorMatrix type="matrix" values="0 0 0 0 0.0627451 0 0 0 0 0.0941176 0 0 0 0 0.156863 0 0 0 0.06 0"/>
<feBlend mode="normal" in2="BackgroundImageFix" result="effect1_dropShadow_309_68847"/>
<feColorMatrix in="SourceAlpha" type="matrix" values="0 0 0 0 0 0 0 0 0 0 0 0 0 0 0 0 0 0 127 0" result="hardAlpha"/>
<feOffset dy="0.875783"/>
<feGaussianBlur stdDeviation="1.31367"/>
<feColorMatrix type="matrix" values="0 0 0 0 0.0627451 0 0 0 0 0.0941176 0 0 0 0 0.156863 0 0 0 0.1 0"/>
<feBlend mode="normal" in2="effect1_dropShadow_309_68847" result="effect2_dropShadow_309_68847"/>
<feBlend mode="normal" in="SourceGraphic" in2="effect2_dropShadow_309_68847" result="shape"/>
</filter>
<filter id="filter1_b_309_68847" x="-4.37891" y="12.7476" width="36.7832" height="22.7703" filterUnits="userSpaceOnUse" color-interpolation-filters="sRGB">
<feFlood flood-opacity="0" result="BackgroundImageFix"/>
<feGaussianBlur in="BackgroundImageFix" stdDeviation="2.18946"/>
<feComposite in2="SourceAlpha" operator="in" result="effect1_backgroundBlur_309_68847"/>
<feBlend mode="normal" in="SourceGraphic" in2="effect1_backgroundBlur_309_68847" result="shape"/>
</filter>
<linearGradient id="paint0_linear_309_68847" x1="14.0125" y1="3.11426" x2="14.0125" y2="31.1393" gradientUnits="userSpaceOnUse">
<stop stop-color="white"/>
<stop offset="1" stop-color="#D0D5DD"/>
</linearGradient>
<linearGradient id="paint1_linear_309_68847" x1="10.509" y1="24.1329" x2="17.5153" y2="10.1204" gradientUnits="userSpaceOnUse">
<stop stop-color="#53389E"/>
<stop offset="1" stop-color="#6941C6"/>
</linearGradient>
<clipPath id="clip0_309_68847">
<rect y="3.11426" width="28.0251" height="28.0251" rx="7.00626" fill="white"/>
</clipPath>
</defs>
</svg>
