<svg width="26" height="30" viewBox="0 0 26 30" fill="none" xmlns="http://www.w3.org/2000/svg">
<path d="M25.9577 29.9485H19.4903C19.4903 29.1099 19.4903 28.3312 19.4903 27.5568C19.4903 26.7738 19.4986 25.9866 19.4903 25.2036C19.4737 23.9158 18.9534 23.3682 17.6799 23.3553C16.473 23.3425 15.262 23.3725 14.055 23.3767C13.7429 23.3767 13.4349 23.3468 13.0146 23.3211V16.7323C12.536 16.7323 12.1614 16.7323 11.791 16.7323C10.7423 16.7323 9.6935 16.7323 8.64057 16.7323C7.07574 16.7365 6.6221 17.2115 6.61794 18.8544C6.61794 20.7155 6.61794 22.5809 6.61794 24.4421C6.61794 25.1523 6.61794 25.8668 6.61794 26.6669H0.0714698C0.0464992 26.2733 0.00488141 25.8925 0.00488141 25.516C0.000719636 22.5767 0.00488141 19.6331 0.00488141 16.6938C0.00488141 13.7545 1.25758 11.6366 3.87949 10.4087C3.93776 10.383 4.00019 10.3659 4.05429 10.336C4.07926 10.3231 4.09591 10.2889 4.1833 10.1862C2.86818 9.86532 1.74867 9.25778 0.974575 8.13254C0.192161 6.98591 -0.174075 5.72376 0.0797934 4.32898C0.525103 1.88597 2.35628 0.153192 4.75347 0.0547876C7.16314 -0.0393388 9.07755 1.53514 9.70182 3.72144C10.3927 6.1345 9.38552 8.3593 6.73447 9.94234H13.0271C13.1062 11.1061 13.0604 12.1714 13.0687 13.2325C13.077 14.3107 13.0687 15.3846 13.0687 16.5825C15.1995 16.7152 17.2762 16.5996 19.3946 16.6125C17.8339 15.7482 16.6437 14.5973 16.3066 12.7576C16.1026 11.6366 16.2358 10.5499 16.7477 9.51877C17.809 7.38809 20.1229 6.32703 22.3869 6.9474C24.5635 7.54639 26.0742 9.66851 25.9827 12.0088C25.9036 13.994 24.5594 16.3173 21.5421 16.7879C21.8459 16.9376 22.0456 17.0403 22.2454 17.1387C24.6592 18.3153 25.9411 20.262 25.9827 23.0131C26.016 25.0068 25.991 27.0006 25.991 28.9944C25.991 29.2853 25.966 29.572 25.9494 29.9442L25.9577 29.9485Z" fill="black"/>
<path d="M25.9577 29.9485H19.4903C19.4903 29.1099 19.4903 28.3312 19.4903 27.5568C19.4903 26.7738 19.4986 25.9866 19.4903 25.2036C19.4737 23.9158 18.9534 23.3682 17.6799 23.3553C16.473 23.3425 15.262 23.3725 14.055 23.3767C13.7429 23.3767 13.4349 23.3468 13.0146 23.3211V16.7323C12.536 16.7323 12.1614 16.7323 11.791 16.7323C10.7423 16.7323 9.6935 16.7323 8.64057 16.7323C7.07574 16.7365 6.6221 17.2115 6.61794 18.8544C6.61794 20.7155 6.61794 22.5809 6.61794 24.4421C6.61794 25.1523 6.61794 25.8668 6.61794 26.6669H0.0714698C0.0464992 26.2733 0.00488141 25.8925 0.00488141 25.516C0.000719636 22.5767 0.00488141 19.6331 0.00488141 16.6938C0.00488141 13.7545 1.25758 11.6366 3.87949 10.4087C3.93776 10.383 4.00019 10.3659 4.05429 10.336C4.07926 10.3231 4.09591 10.2889 4.1833 10.1862C2.86818 9.86532 1.74867 9.25778 0.974575 8.13254C0.192161 6.98591 -0.174075 5.72376 0.0797934 4.32898C0.525103 1.88597 2.35628 0.153192 4.75347 0.0547876C7.16314 -0.0393388 9.07755 1.53514 9.70182 3.72144C10.3927 6.1345 9.38552 8.3593 6.73447 9.94234H13.0271C13.1062 11.1061 13.0604 12.1714 13.0687 13.2325C13.077 14.3107 13.0687 15.3846 13.0687 16.5825C15.1995 16.7152 17.2762 16.5996 19.3946 16.6125C17.8339 15.7482 16.6437 14.5973 16.3066 12.7576C16.1026 11.6366 16.2358 10.5499 16.7477 9.51877C17.809 7.38809 20.1229 6.32703 22.3869 6.9474C24.5635 7.54639 26.0742 9.66851 25.9827 12.0088C25.9036 13.994 24.5594 16.3173 21.5421 16.7879C21.8459 16.9376 22.0456 17.0403 22.2454 17.1387C24.6592 18.3153 25.9411 20.262 25.9827 23.0131C26.016 25.0068 25.991 27.0006 25.991 28.9944C25.991 29.2853 25.966 29.572 25.9494 29.9442L25.9577 29.9485Z" fill="black" fill-opacity="0.2"/>
<path d="M25.9577 29.9485H19.4903C19.4903 29.1099 19.4903 28.3312 19.4903 27.5568C19.4903 26.7738 19.4986 25.9866 19.4903 25.2036C19.4737 23.9158 18.9534 23.3682 17.6799 23.3553C16.473 23.3425 15.262 23.3725 14.055 23.3767C13.7429 23.3767 13.4349 23.3468 13.0146 23.3211V16.7323C12.536 16.7323 12.1614 16.7323 11.791 16.7323C10.7423 16.7323 9.6935 16.7323 8.64057 16.7323C7.07574 16.7365 6.6221 17.2115 6.61794 18.8544C6.61794 20.7155 6.61794 22.5809 6.61794 24.4421C6.61794 25.1523 6.61794 25.8668 6.61794 26.6669H0.0714698C0.0464992 26.2733 0.00488141 25.8925 0.00488141 25.516C0.000719636 22.5767 0.00488141 19.6331 0.00488141 16.6938C0.00488141 13.7545 1.25758 11.6366 3.87949 10.4087C3.93776 10.383 4.00019 10.3659 4.05429 10.336C4.07926 10.3231 4.09591 10.2889 4.1833 10.1862C2.86818 9.86532 1.74867 9.25778 0.974575 8.13254C0.192161 6.98591 -0.174075 5.72376 0.0797934 4.32898C0.525103 1.88597 2.35628 0.153192 4.75347 0.0547876C7.16314 -0.0393388 9.07755 1.53514 9.70182 3.72144C10.3927 6.1345 9.38552 8.3593 6.73447 9.94234H13.0271C13.1062 11.1061 13.0604 12.1714 13.0687 13.2325C13.077 14.3107 13.0687 15.3846 13.0687 16.5825C15.1995 16.7152 17.2762 16.5996 19.3946 16.6125C17.8339 15.7482 16.6437 14.5973 16.3066 12.7576C16.1026 11.6366 16.2358 10.5499 16.7477 9.51877C17.809 7.38809 20.1229 6.32703 22.3869 6.9474C24.5635 7.54639 26.0742 9.66851 25.9827 12.0088C25.9036 13.994 24.5594 16.3173 21.5421 16.7879C21.8459 16.9376 22.0456 17.0403 22.2454 17.1387C24.6592 18.3153 25.9411 20.262 25.9827 23.0131C26.016 25.0068 25.991 27.0006 25.991 28.9944C25.991 29.2853 25.966 29.572 25.9494 29.9442L25.9577 29.9485Z" fill="black" fill-opacity="0.2"/>
</svg>
