<svg width="22" height="19" viewBox="0 0 22 19" fill="none" xmlns="http://www.w3.org/2000/svg">
<path d="M20 0.5H14C13.4178 0.5 12.8437 0.635544 12.3229 0.895898C11.8022 1.15625 11.3493 1.53426 11 2C10.6507 1.53426 10.1978 1.15625 9.67705 0.895898C9.15634 0.635544 8.58217 0.5 8 0.5H2C1.60218 0.5 1.22064 0.658035 0.93934 0.93934C0.658035 1.22064 0.5 1.60218 0.5 2V14C0.5 14.3978 0.658035 14.7794 0.93934 15.0607C1.22064 15.342 1.60218 15.5 2 15.5H8C8.59674 15.5 9.16903 15.7371 9.59099 16.159C10.0129 16.581 10.25 17.1533 10.25 17.75C10.25 17.9489 10.329 18.1397 10.4697 18.2803C10.6103 18.421 10.8011 18.5 11 18.5C11.1989 18.5 11.3897 18.421 11.5303 18.2803C11.671 18.1397 11.75 17.9489 11.75 17.75C11.75 17.1533 11.9871 16.581 12.409 16.159C12.831 15.7371 13.4033 15.5 14 15.5H20C20.3978 15.5 20.7794 15.342 21.0607 15.0607C21.342 14.7794 21.5 14.3978 21.5 14V2C21.5 1.60218 21.342 1.22064 21.0607 0.93934C20.7794 0.658035 20.3978 0.5 20 0.5ZM8 14H2V2H8C8.59674 2 9.16903 2.23705 9.59099 2.65901C10.0129 3.08097 10.25 3.65326 10.25 4.25V14.75C9.6015 14.262 8.8116 13.9987 8 14ZM20 14H14C13.1884 13.9987 12.3985 14.262 11.75 14.75V4.25C11.75 3.65326 11.9871 3.08097 12.409 2.65901C12.831 2.23705 13.4033 2 14 2H20V14Z" fill="#8C8C8C"/>
</svg>
