<svg width="16" height="20" viewBox="0 0 16 20" fill="none" xmlns="http://www.w3.org/2000/svg">
<path fill-rule="evenodd" clip-rule="evenodd" d="M7.98602 13.0684C4.4407 13.0684 1.41309 13.6044 1.41309 15.7511C1.41309 17.8979 4.4215 18.4531 7.98602 18.4531C11.5313 18.4531 14.5581 17.9162 14.5581 15.7703C14.5581 13.6245 11.5505 13.0684 7.98602 13.0684Z" stroke="black" stroke-width="1.5" stroke-linecap="round" stroke-linejoin="round"/>
<path fill-rule="evenodd" clip-rule="evenodd" d="M7.98602 13.0684C4.4407 13.0684 1.41309 13.6044 1.41309 15.7511C1.41309 17.8979 4.4215 18.4531 7.98602 18.4531C11.5313 18.4531 14.5581 17.9162 14.5581 15.7703C14.5581 13.6245 11.5505 13.0684 7.98602 13.0684Z" stroke="black" stroke-opacity="0.2" stroke-width="1.5" stroke-linecap="round" stroke-linejoin="round"/>
<path fill-rule="evenodd" clip-rule="evenodd" d="M7.98602 13.0684C4.4407 13.0684 1.41309 13.6044 1.41309 15.7511C1.41309 17.8979 4.4215 18.4531 7.98602 18.4531C11.5313 18.4531 14.5581 17.9162 14.5581 15.7703C14.5581 13.6245 11.5505 13.0684 7.98602 13.0684Z" stroke="black" stroke-opacity="0.2" stroke-width="1.5" stroke-linecap="round" stroke-linejoin="round"/>
<path fill-rule="evenodd" clip-rule="evenodd" d="M7.98566 10.0056C10.3122 10.0056 12.198 8.11897 12.198 5.79238C12.198 3.46579 10.3122 1.58008 7.98566 1.58008C5.65907 1.58008 3.77249 3.46579 3.77249 5.79238C3.76463 8.11111 5.63812 9.9977 7.95598 10.0056H7.98566Z" stroke="black" stroke-width="1.42857" stroke-linecap="round" stroke-linejoin="round"/>
<path fill-rule="evenodd" clip-rule="evenodd" d="M7.98566 10.0056C10.3122 10.0056 12.198 8.11897 12.198 5.79238C12.198 3.46579 10.3122 1.58008 7.98566 1.58008C5.65907 1.58008 3.77249 3.46579 3.77249 5.79238C3.76463 8.11111 5.63812 9.9977 7.95598 10.0056H7.98566Z" stroke="black" stroke-opacity="0.2" stroke-width="1.42857" stroke-linecap="round" stroke-linejoin="round"/>
<path fill-rule="evenodd" clip-rule="evenodd" d="M7.98566 10.0056C10.3122 10.0056 12.198 8.11897 12.198 5.79238C12.198 3.46579 10.3122 1.58008 7.98566 1.58008C5.65907 1.58008 3.77249 3.46579 3.77249 5.79238C3.76463 8.11111 5.63812 9.9977 7.95598 10.0056H7.98566Z" stroke="black" stroke-opacity="0.2" stroke-width="1.42857" stroke-linecap="round" stroke-linejoin="round"/>
</svg>
