<svg width="20" height="18" viewBox="0 0 22 20" fill="none" xmlns="http://www.w3.org/2000/svg">
<path d="M10.9997 5.49998C10.1097 5.49998 9.23964 5.7639 8.49962 6.25837C7.7596 6.75284 7.18283 7.45564 6.84223 8.27791C6.50164 9.10017 6.41252 10.005 6.58616 10.8779C6.75979 11.7508 7.18837 12.5526 7.81771 13.182C8.44705 13.8113 9.24887 14.2399 10.1218 14.4135C10.9947 14.5872 11.8995 14.498 12.7218 14.1574C13.544 13.8168 14.2468 13.2401 14.7413 12.5C15.2358 11.76 15.4997 10.89 15.4997 9.99998C15.4984 8.80689 15.0239 7.66302 14.1803 6.81937C13.3367 5.97573 12.1928 5.50122 10.9997 5.49998ZM10.9997 13C10.4063 13 9.82633 12.824 9.33298 12.4944C8.83963 12.1647 8.45511 11.6962 8.22805 11.148C8.00099 10.5999 7.94158 9.99665 8.05733 9.41471C8.17309 8.83277 8.45881 8.29822 8.87837 7.87866C9.29793 7.4591 9.83248 7.17338 10.4144 7.05763C10.9964 6.94187 11.5996 7.00128 12.1477 7.22834C12.6959 7.45541 13.1645 7.83992 13.4941 8.33327C13.8237 8.82662 13.9997 9.40664 13.9997 9.99998C13.9997 10.7956 13.6836 11.5587 13.121 12.1213C12.5584 12.6839 11.7953 13 10.9997 13ZM21.3066 8.05092C21.2857 7.94531 21.2423 7.84543 21.1794 7.75807C21.1164 7.67072 21.0354 7.59793 20.9419 7.54467L18.1453 5.95092L18.1341 2.79904C18.1337 2.69049 18.1098 2.58331 18.064 2.4849C18.0182 2.38649 17.9516 2.29919 17.8688 2.22904C16.8543 1.37095 15.6861 0.713357 14.4263 0.291232C14.327 0.257651 14.2219 0.245223 14.1176 0.25475C14.0133 0.264276 13.9121 0.295546 13.8206 0.346545L10.9997 1.92342L8.17594 0.343732C8.0844 0.292446 7.98311 0.260941 7.87863 0.251251C7.77414 0.241562 7.66879 0.253905 7.56938 0.287482C6.31045 0.712692 5.14359 1.37279 4.13063 2.23279C4.04791 2.30284 3.98136 2.38999 3.93556 2.48823C3.88975 2.58647 3.86579 2.69347 3.86532 2.80186L3.85125 5.95654L1.05469 7.5503C0.961129 7.60356 0.880132 7.67634 0.817204 7.7637C0.754276 7.85105 0.710893 7.95093 0.690003 8.05654C0.434062 9.34269 0.434062 10.6667 0.690003 11.9528C0.710893 12.0584 0.754276 12.1583 0.817204 12.2456C0.880132 12.333 0.961129 12.4058 1.05469 12.459L3.85125 14.0528L3.8625 17.2047C3.86284 17.3132 3.88674 17.4204 3.93255 17.5188C3.97835 17.6172 4.04498 17.7045 4.12782 17.7747C5.14226 18.6328 6.31046 19.2904 7.57031 19.7125C7.66953 19.7461 7.77468 19.7585 7.87899 19.749C7.98329 19.7394 8.08445 19.7082 8.17594 19.6572L10.9997 18.0765L13.8234 19.6562C13.9352 19.7185 14.0611 19.7508 14.1891 19.75C14.271 19.75 14.3523 19.7367 14.43 19.7106C15.6888 19.286 16.8556 18.6265 17.8688 17.7672C17.9515 17.6971 18.018 17.61 18.0638 17.5117C18.1096 17.4135 18.1336 17.3065 18.1341 17.1981L18.1481 14.0434L20.9447 12.4497C21.0383 12.3964 21.1192 12.3236 21.1822 12.2363C21.2451 12.1489 21.2885 12.049 21.3094 11.9434C21.5639 10.6583 21.5629 9.33566 21.3066 8.05092ZM19.9003 11.3237L17.2219 12.8472C17.1045 12.9139 17.0074 13.0111 16.9406 13.1284C16.8863 13.2222 16.8291 13.3215 16.7709 13.4153C16.6965 13.5335 16.6569 13.6703 16.6566 13.81L16.6425 16.8334C15.9226 17.3988 15.1205 17.8509 14.2641 18.174L11.5622 16.6684C11.45 16.6064 11.3238 16.5741 11.1956 16.5747H11.1778C11.0644 16.5747 10.95 16.5747 10.8366 16.5747C10.7024 16.5713 10.5697 16.6037 10.4522 16.6684L7.74844 18.1778C6.89017 17.8571 6.0859 17.4072 5.36344 16.8437L5.35313 13.825C5.35266 13.685 5.31305 13.548 5.23875 13.4294C5.18063 13.3356 5.12344 13.2419 5.07 13.1425C5.00374 13.0233 4.90659 12.9242 4.78875 12.8556L2.1075 11.3284C1.96875 10.4507 1.96875 9.55672 2.1075 8.67905L4.78125 7.15279C4.89861 7.08607 4.99577 6.9889 5.0625 6.87154C5.11688 6.77779 5.17407 6.67842 5.23219 6.58467C5.30659 6.46645 5.34623 6.32967 5.34656 6.18998L5.36063 3.16654C6.08056 2.60118 6.88262 2.14909 7.73906 1.82592L10.4372 3.33154C10.5546 3.39663 10.6874 3.42901 10.8216 3.42529C10.935 3.42529 11.0494 3.42529 11.1628 3.42529C11.297 3.42865 11.4296 3.39629 11.5472 3.33154L14.2509 1.82217C15.1092 2.14286 15.9135 2.59274 16.6359 3.15623L16.6463 6.17498C16.6467 6.31495 16.6863 6.45199 16.7606 6.57061C16.8188 6.66436 16.8759 6.75811 16.9294 6.85748C16.9956 6.97665 17.0928 7.07575 17.2106 7.14436L19.8919 8.67155C20.0325 9.54989 20.0341 10.4449 19.8966 11.3237H19.9003Z" fill="black"/>
<path d="M10.9997 5.49998C10.1097 5.49998 9.23964 5.7639 8.49962 6.25837C7.7596 6.75284 7.18283 7.45564 6.84223 8.27791C6.50164 9.10017 6.41252 10.005 6.58616 10.8779C6.75979 11.7508 7.18837 12.5526 7.81771 13.182C8.44705 13.8113 9.24887 14.2399 10.1218 14.4135C10.9947 14.5872 11.8995 14.498 12.7218 14.1574C13.544 13.8168 14.2468 13.2401 14.7413 12.5C15.2358 11.76 15.4997 10.89 15.4997 9.99998C15.4984 8.80689 15.0239 7.66302 14.1803 6.81937C13.3367 5.97573 12.1928 5.50122 10.9997 5.49998ZM10.9997 13C10.4063 13 9.82633 12.824 9.33298 12.4944C8.83963 12.1647 8.45511 11.6962 8.22805 11.148C8.00099 10.5999 7.94158 9.99665 8.05733 9.41471C8.17309 8.83277 8.45881 8.29822 8.87837 7.87866C9.29793 7.4591 9.83248 7.17338 10.4144 7.05763C10.9964 6.94187 11.5996 7.00128 12.1477 7.22834C12.6959 7.45541 13.1645 7.83992 13.4941 8.33327C13.8237 8.82662 13.9997 9.40664 13.9997 9.99998C13.9997 10.7956 13.6836 11.5587 13.121 12.1213C12.5584 12.6839 11.7953 13 10.9997 13ZM21.3066 8.05092C21.2857 7.94531 21.2423 7.84543 21.1794 7.75807C21.1164 7.67072 21.0354 7.59793 20.9419 7.54467L18.1453 5.95092L18.1341 2.79904C18.1337 2.69049 18.1098 2.58331 18.064 2.4849C18.0182 2.38649 17.9516 2.29919 17.8688 2.22904C16.8543 1.37095 15.6861 0.713357 14.4263 0.291232C14.327 0.257651 14.2219 0.245223 14.1176 0.25475C14.0133 0.264276 13.9121 0.295546 13.8206 0.346545L10.9997 1.92342L8.17594 0.343732C8.0844 0.292446 7.98311 0.260941 7.87863 0.251251C7.77414 0.241562 7.66879 0.253905 7.56938 0.287482C6.31045 0.712692 5.14359 1.37279 4.13063 2.23279C4.04791 2.30284 3.98136 2.38999 3.93556 2.48823C3.88975 2.58647 3.86579 2.69347 3.86532 2.80186L3.85125 5.95654L1.05469 7.5503C0.961129 7.60356 0.880132 7.67634 0.817204 7.7637C0.754276 7.85105 0.710893 7.95093 0.690003 8.05654C0.434062 9.34269 0.434062 10.6667 0.690003 11.9528C0.710893 12.0584 0.754276 12.1583 0.817204 12.2456C0.880132 12.333 0.961129 12.4058 1.05469 12.459L3.85125 14.0528L3.8625 17.2047C3.86284 17.3132 3.88674 17.4204 3.93255 17.5188C3.97835 17.6172 4.04498 17.7045 4.12782 17.7747C5.14226 18.6328 6.31046 19.2904 7.57031 19.7125C7.66953 19.7461 7.77468 19.7585 7.87899 19.749C7.98329 19.7394 8.08445 19.7082 8.17594 19.6572L10.9997 18.0765L13.8234 19.6562C13.9352 19.7185 14.0611 19.7508 14.1891 19.75C14.271 19.75 14.3523 19.7367 14.43 19.7106C15.6888 19.286 16.8556 18.6265 17.8688 17.7672C17.9515 17.6971 18.018 17.61 18.0638 17.5117C18.1096 17.4135 18.1336 17.3065 18.1341 17.1981L18.1481 14.0434L20.9447 12.4497C21.0383 12.3964 21.1192 12.3236 21.1822 12.2363C21.2451 12.1489 21.2885 12.049 21.3094 11.9434C21.5639 10.6583 21.5629 9.33566 21.3066 8.05092ZM19.9003 11.3237L17.2219 12.8472C17.1045 12.9139 17.0074 13.0111 16.9406 13.1284C16.8863 13.2222 16.8291 13.3215 16.7709 13.4153C16.6965 13.5335 16.6569 13.6703 16.6566 13.81L16.6425 16.8334C15.9226 17.3988 15.1205 17.8509 14.2641 18.174L11.5622 16.6684C11.45 16.6064 11.3238 16.5741 11.1956 16.5747H11.1778C11.0644 16.5747 10.95 16.5747 10.8366 16.5747C10.7024 16.5713 10.5697 16.6037 10.4522 16.6684L7.74844 18.1778C6.89017 17.8571 6.0859 17.4072 5.36344 16.8437L5.35313 13.825C5.35266 13.685 5.31305 13.548 5.23875 13.4294C5.18063 13.3356 5.12344 13.2419 5.07 13.1425C5.00374 13.0233 4.90659 12.9242 4.78875 12.8556L2.1075 11.3284C1.96875 10.4507 1.96875 9.55672 2.1075 8.67905L4.78125 7.15279C4.89861 7.08607 4.99577 6.9889 5.0625 6.87154C5.11688 6.77779 5.17407 6.67842 5.23219 6.58467C5.30659 6.46645 5.34623 6.32967 5.34656 6.18998L5.36063 3.16654C6.08056 2.60118 6.88262 2.14909 7.73906 1.82592L10.4372 3.33154C10.5546 3.39663 10.6874 3.42901 10.8216 3.42529C10.935 3.42529 11.0494 3.42529 11.1628 3.42529C11.297 3.42865 11.4296 3.39629 11.5472 3.33154L14.2509 1.82217C15.1092 2.14286 15.9135 2.59274 16.6359 3.15623L16.6463 6.17498C16.6467 6.31495 16.6863 6.45199 16.7606 6.57061C16.8188 6.66436 16.8759 6.75811 16.9294 6.85748C16.9956 6.97665 17.0928 7.07575 17.2106 7.14436L19.8919 8.67155C20.0325 9.54989 20.0341 10.4449 19.8966 11.3237H19.9003Z" fill="black" fill-opacity="0.2"/>
<path d="M10.9997 5.49998C10.1097 5.49998 9.23964 5.7639 8.49962 6.25837C7.7596 6.75284 7.18283 7.45564 6.84223 8.27791C6.50164 9.10017 6.41252 10.005 6.58616 10.8779C6.75979 11.7508 7.18837 12.5526 7.81771 13.182C8.44705 13.8113 9.24887 14.2399 10.1218 14.4135C10.9947 14.5872 11.8995 14.498 12.7218 14.1574C13.544 13.8168 14.2468 13.2401 14.7413 12.5C15.2358 11.76 15.4997 10.89 15.4997 9.99998C15.4984 8.80689 15.0239 7.66302 14.1803 6.81937C13.3367 5.97573 12.1928 5.50122 10.9997 5.49998ZM10.9997 13C10.4063 13 9.82633 12.824 9.33298 12.4944C8.83963 12.1647 8.45511 11.6962 8.22805 11.148C8.00099 10.5999 7.94158 9.99665 8.05733 9.41471C8.17309 8.83277 8.45881 8.29822 8.87837 7.87866C9.29793 7.4591 9.83248 7.17338 10.4144 7.05763C10.9964 6.94187 11.5996 7.00128 12.1477 7.22834C12.6959 7.45541 13.1645 7.83992 13.4941 8.33327C13.8237 8.82662 13.9997 9.40664 13.9997 9.99998C13.9997 10.7956 13.6836 11.5587 13.121 12.1213C12.5584 12.6839 11.7953 13 10.9997 13ZM21.3066 8.05092C21.2857 7.94531 21.2423 7.84543 21.1794 7.75807C21.1164 7.67072 21.0354 7.59793 20.9419 7.54467L18.1453 5.95092L18.1341 2.79904C18.1337 2.69049 18.1098 2.58331 18.064 2.4849C18.0182 2.38649 17.9516 2.29919 17.8688 2.22904C16.8543 1.37095 15.6861 0.713357 14.4263 0.291232C14.327 0.257651 14.2219 0.245223 14.1176 0.25475C14.0133 0.264276 13.9121 0.295546 13.8206 0.346545L10.9997 1.92342L8.17594 0.343732C8.0844 0.292446 7.98311 0.260941 7.87863 0.251251C7.77414 0.241562 7.66879 0.253905 7.56938 0.287482C6.31045 0.712692 5.14359 1.37279 4.13063 2.23279C4.04791 2.30284 3.98136 2.38999 3.93556 2.48823C3.88975 2.58647 3.86579 2.69347 3.86532 2.80186L3.85125 5.95654L1.05469 7.5503C0.961129 7.60356 0.880132 7.67634 0.817204 7.7637C0.754276 7.85105 0.710893 7.95093 0.690003 8.05654C0.434062 9.34269 0.434062 10.6667 0.690003 11.9528C0.710893 12.0584 0.754276 12.1583 0.817204 12.2456C0.880132 12.333 0.961129 12.4058 1.05469 12.459L3.85125 14.0528L3.8625 17.2047C3.86284 17.3132 3.88674 17.4204 3.93255 17.5188C3.97835 17.6172 4.04498 17.7045 4.12782 17.7747C5.14226 18.6328 6.31046 19.2904 7.57031 19.7125C7.66953 19.7461 7.77468 19.7585 7.87899 19.749C7.98329 19.7394 8.08445 19.7082 8.17594 19.6572L10.9997 18.0765L13.8234 19.6562C13.9352 19.7185 14.0611 19.7508 14.1891 19.75C14.271 19.75 14.3523 19.7367 14.43 19.7106C15.6888 19.286 16.8556 18.6265 17.8688 17.7672C17.9515 17.6971 18.018 17.61 18.0638 17.5117C18.1096 17.4135 18.1336 17.3065 18.1341 17.1981L18.1481 14.0434L20.9447 12.4497C21.0383 12.3964 21.1192 12.3236 21.1822 12.2363C21.2451 12.1489 21.2885 12.049 21.3094 11.9434C21.5639 10.6583 21.5629 9.33566 21.3066 8.05092ZM19.9003 11.3237L17.2219 12.8472C17.1045 12.9139 17.0074 13.0111 16.9406 13.1284C16.8863 13.2222 16.8291 13.3215 16.7709 13.4153C16.6965 13.5335 16.6569 13.6703 16.6566 13.81L16.6425 16.8334C15.9226 17.3988 15.1205 17.8509 14.2641 18.174L11.5622 16.6684C11.45 16.6064 11.3238 16.5741 11.1956 16.5747H11.1778C11.0644 16.5747 10.95 16.5747 10.8366 16.5747C10.7024 16.5713 10.5697 16.6037 10.4522 16.6684L7.74844 18.1778C6.89017 17.8571 6.0859 17.4072 5.36344 16.8437L5.35313 13.825C5.35266 13.685 5.31305 13.548 5.23875 13.4294C5.18063 13.3356 5.12344 13.2419 5.07 13.1425C5.00374 13.0233 4.90659 12.9242 4.78875 12.8556L2.1075 11.3284C1.96875 10.4507 1.96875 9.55672 2.1075 8.67905L4.78125 7.15279C4.89861 7.08607 4.99577 6.9889 5.0625 6.87154C5.11688 6.77779 5.17407 6.67842 5.23219 6.58467C5.30659 6.46645 5.34623 6.32967 5.34656 6.18998L5.36063 3.16654C6.08056 2.60118 6.88262 2.14909 7.73906 1.82592L10.4372 3.33154C10.5546 3.39663 10.6874 3.42901 10.8216 3.42529C10.935 3.42529 11.0494 3.42529 11.1628 3.42529C11.297 3.42865 11.4296 3.39629 11.5472 3.33154L14.2509 1.82217C15.1092 2.14286 15.9135 2.59274 16.6359 3.15623L16.6463 6.17498C16.6467 6.31495 16.6863 6.45199 16.7606 6.57061C16.8188 6.66436 16.8759 6.75811 16.9294 6.85748C16.9956 6.97665 17.0928 7.07575 17.2106 7.14436L19.8919 8.67155C20.0325 9.54989 20.0341 10.4449 19.8966 11.3237H19.9003Z" fill="black" fill-opacity="0.2"/>
</svg>
