<svg width="24" height="25" viewBox="0 0 24 25" fill="none" xmlns="http://www.w3.org/2000/svg">
<path d="M6.625 1.25V4.625H3.25C2.95163 4.625 2.66548 4.74353 2.4545 4.95451C2.24353 5.16548 2.125 5.45163 2.125 5.75L2.125 16.625H1.75C1.45163 16.625 1.16548 16.7435 0.954505 16.9545C0.743526 17.1655 0.625 17.4516 0.625 17.75C0.625 18.0484 0.743526 18.3345 0.954505 18.5455C1.16548 18.7565 1.45163 18.875 1.75 18.875L18.25 18.875C18.5484 18.875 18.8345 18.7565 19.0455 18.5455C19.2565 18.3345 19.375 18.0484 19.375 17.75C19.375 17.4516 19.2565 17.1655 19.0455 16.9545C18.8345 16.7435 18.5484 16.625 18.25 16.625H17.875V8.75C17.875 8.45163 17.7565 8.16548 17.5455 7.95451C17.3345 7.74353 17.0484 7.625 16.75 7.625H13.375V1.25C13.375 0.951631 13.2565 0.665484 13.0455 0.454505C12.8345 0.243527 12.5484 0.125 12.25 0.125H7.75C7.45163 0.125 7.16548 0.243527 6.9545 0.454505C6.74353 0.665484 6.625 0.951631 6.625 1.25ZM4.375 6.875H6.625L6.625 16.625H4.375L4.375 6.875ZM15.625 9.875L15.625 16.625H13.375L13.375 9.875H15.625ZM11.125 2.375L11.125 16.625H8.875L8.875 2.375H11.125Z" fill="#8C8C8C"/>
<path d="M6.625 1.25V4.625H3.25C2.95163 4.625 2.66548 4.74353 2.4545 4.95451C2.24353 5.16548 2.125 5.45163 2.125 5.75L2.125 16.625H1.75C1.45163 16.625 1.16548 16.7435 0.954505 16.9545C0.743526 17.1655 0.625 17.4516 0.625 17.75C0.625 18.0484 0.743526 18.3345 0.954505 18.5455C1.16548 18.7565 1.45163 18.875 1.75 18.875L18.25 18.875C18.5484 18.875 18.8345 18.7565 19.0455 18.5455C19.2565 18.3345 19.375 18.0484 19.375 17.75C19.375 17.4516 19.2565 17.1655 19.0455 16.9545C18.8345 16.7435 18.5484 16.625 18.25 16.625H17.875V8.75C17.875 8.45163 17.7565 8.16548 17.5455 7.95451C17.3345 7.74353 17.0484 7.625 16.75 7.625H13.375V1.25C13.375 0.951631 13.2565 0.665484 13.0455 0.454505C12.8345 0.243527 12.5484 0.125 12.25 0.125H7.75C7.45163 0.125 7.16548 0.243527 6.9545 0.454505C6.74353 0.665484 6.625 0.951631 6.625 1.25ZM4.375 6.875H6.625L6.625 16.625H4.375L4.375 6.875ZM15.625 9.875L15.625 16.625H13.375L13.375 9.875H15.625ZM11.125 2.375L11.125 16.625H8.875L8.875 2.375H11.125Z" fill="#8C8C8C" fill-opacity="0.2"/>
<path d="M6.625 1.25V4.625H3.25C2.95163 4.625 2.66548 4.74353 2.4545 4.95451C2.24353 5.16548 2.125 5.45163 2.125 5.75L2.125 16.625H1.75C1.45163 16.625 1.16548 16.7435 0.954505 16.9545C0.743526 17.1655 0.625 17.4516 0.625 17.75C0.625 18.0484 0.743526 18.3345 0.954505 18.5455C1.16548 18.7565 1.45163 18.875 1.75 18.875L18.25 18.875C18.5484 18.875 18.8345 18.7565 19.0455 18.5455C19.2565 18.3345 19.375 18.0484 19.375 17.75C19.375 17.4516 19.2565 17.1655 19.0455 16.9545C18.8345 16.7435 18.5484 16.625 18.25 16.625H17.875V8.75C17.875 8.45163 17.7565 8.16548 17.5455 7.95451C17.3345 7.74353 17.0484 7.625 16.75 7.625H13.375V1.25C13.375 0.951631 13.2565 0.665484 13.0455 0.454505C12.8345 0.243527 12.5484 0.125 12.25 0.125H7.75C7.45163 0.125 7.16548 0.243527 6.9545 0.454505C6.74353 0.665484 6.625 0.951631 6.625 1.25ZM4.375 6.875H6.625L6.625 16.625H4.375L4.375 6.875ZM15.625 9.875L15.625 16.625H13.375L13.375 9.875H15.625ZM11.125 2.375L11.125 16.625H8.875L8.875 2.375H11.125Z" fill="#8C8C8C" fill-opacity="0.2"/>
</svg>
