<svg width="29" height="29" viewBox="0 0 29 29" fill="none" xmlns="http://www.w3.org/2000/svg">
<g clip-path="url(#clip0_191_70301)">
<rect y="0.114258" width="28.0251" height="28.0251" rx="7.00626" fill="white"/>
<rect y="0.114258" width="28.0251" height="28.0251" rx="7.00626" fill="url(#paint0_linear_191_70301)"/>
<path fill-rule="evenodd" clip-rule="evenodd" d="M14.0129 10.6916C12.1157 10.6916 10.5778 12.2295 10.5778 14.1267C10.5778 16.0238 12.1157 17.5618 14.0129 17.5618C15.9101 17.5618 17.448 16.0238 17.448 14.1267C17.448 12.2295 15.9101 10.6916 14.0129 10.6916ZM10.5098 14.1267C10.5098 12.1919 12.0782 10.6235 14.0129 10.6235C15.9476 10.6235 17.516 12.1919 17.516 14.1267C17.516 16.0614 15.9476 17.6298 14.0129 17.6298C12.0782 17.6298 10.5098 16.0614 10.5098 14.1267Z" fill="#D0D5DD"/>
<path fill-rule="evenodd" clip-rule="evenodd" d="M14.0124 11.7792C12.7164 11.7792 11.6657 12.8299 11.6657 14.126C11.6657 15.422 12.7164 16.4727 14.0124 16.4727C15.3085 16.4727 16.3592 15.422 16.3592 14.126C16.3592 12.8299 15.3085 11.7792 14.0124 11.7792ZM11.5977 14.126C11.5977 12.7923 12.6788 11.7112 14.0124 11.7112C15.3461 11.7112 16.4272 12.7923 16.4272 14.126C16.4272 15.4596 15.3461 16.5407 14.0124 16.5407C12.6788 16.5407 11.5977 15.4596 11.5977 14.126Z" fill="#D0D5DD"/>
<path d="M28.0254 14.0923L28.0254 14.1603L0.000339505 14.1603L0.000339508 14.0923L28.0254 14.0923Z" fill="#D0D5DD"/>
<path d="M28.0254 23.4109L28.0254 23.4789L0.000339505 23.4789L0.000339508 23.4109L28.0254 23.4109Z" fill="#D0D5DD"/>
<path d="M28.0254 18.7515L28.0254 18.8195L0.000339505 18.8195L0.000339508 18.7515L28.0254 18.7515Z" fill="#D0D5DD"/>
<g filter="url(#filter0_dd_191_70301)">
<circle cx="14.0121" cy="14.1266" r="7.00626" fill="url(#paint1_linear_191_70301)"/>
</g>
<g filter="url(#filter1_b_191_70301)">
<path d="M0 14.1265H28.0251V16.929C28.0251 20.8528 28.0251 22.8148 27.2614 24.3135C26.5897 25.6318 25.5179 26.7036 24.1996 27.3754C22.7008 28.139 20.7389 28.139 16.815 28.139H11.21C7.28615 28.139 5.32421 28.139 3.82549 27.3754C2.50717 26.7036 1.43535 25.6318 0.763637 24.3135C0 22.8148 0 20.8528 0 16.929V14.1265Z" fill="white" fill-opacity="0.2"/>
</g>
</g>
<rect x="0.0875783" y="0.201836" width="27.8499" height="27.8499" rx="6.91868" stroke="#D0D5DD" stroke-width="0.175157"/>
<defs>
<filter id="filter0_dd_191_70301" x="4.37851" y="5.3688" width="19.2674" height="19.2671" filterUnits="userSpaceOnUse" color-interpolation-filters="sRGB">
<feFlood flood-opacity="0" result="BackgroundImageFix"/>
<feColorMatrix in="SourceAlpha" type="matrix" values="0 0 0 0 0 0 0 0 0 0 0 0 0 0 0 0 0 0 127 0" result="hardAlpha"/>
<feOffset dy="0.875783"/>
<feGaussianBlur stdDeviation="0.875783"/>
<feColorMatrix type="matrix" values="0 0 0 0 0.0627451 0 0 0 0 0.0941176 0 0 0 0 0.156863 0 0 0 0.06 0"/>
<feBlend mode="normal" in2="BackgroundImageFix" result="effect1_dropShadow_191_70301"/>
<feColorMatrix in="SourceAlpha" type="matrix" values="0 0 0 0 0 0 0 0 0 0 0 0 0 0 0 0 0 0 127 0" result="hardAlpha"/>
<feOffset dy="0.875783"/>
<feGaussianBlur stdDeviation="1.31367"/>
<feColorMatrix type="matrix" values="0 0 0 0 0.0627451 0 0 0 0 0.0941176 0 0 0 0 0.156863 0 0 0 0.1 0"/>
<feBlend mode="normal" in2="effect1_dropShadow_191_70301" result="effect2_dropShadow_191_70301"/>
<feBlend mode="normal" in="SourceGraphic" in2="effect2_dropShadow_191_70301" result="shape"/>
</filter>
<filter id="filter1_b_191_70301" x="-4.37891" y="9.74755" width="36.7832" height="22.7703" filterUnits="userSpaceOnUse" color-interpolation-filters="sRGB">
<feFlood flood-opacity="0" result="BackgroundImageFix"/>
<feGaussianBlur in="BackgroundImageFix" stdDeviation="2.18946"/>
<feComposite in2="SourceAlpha" operator="in" result="effect1_backgroundBlur_191_70301"/>
<feBlend mode="normal" in="SourceGraphic" in2="effect1_backgroundBlur_191_70301" result="shape"/>
</filter>
<linearGradient id="paint0_linear_191_70301" x1="14.0125" y1="0.114258" x2="14.0125" y2="28.1393" gradientUnits="userSpaceOnUse">
<stop stop-color="white"/>
<stop offset="1" stop-color="#D0D5DD"/>
</linearGradient>
<linearGradient id="paint1_linear_191_70301" x1="10.509" y1="21.1329" x2="17.5153" y2="7.12036" gradientUnits="userSpaceOnUse">
<stop stop-color="#53389E"/>
<stop offset="1" stop-color="#6941C6"/>
</linearGradient>
<clipPath id="clip0_191_70301">
<rect y="0.114258" width="28.0251" height="28.0251" rx="7.00626" fill="white"/>
</clipPath>
</defs>
</svg>
