<svg width="174" height="45" viewBox="0 0 174 45" fill="none" xmlns="http://www.w3.org/2000/svg">
<g clip-path="url(#clip0_191_70325)">
<g clip-path="url(#clip1_191_70325)">
<g clip-path="url(#clip2_191_70325)">
<rect x="-1" width="45" height="45" rx="11.25" fill="white"/>
<rect x="-1" width="45" height="45" rx="11.25" fill="url(#paint0_linear_191_70325)"/>
<path fill-rule="evenodd" clip-rule="evenodd" d="M21.5 19.9847C18.4537 19.9847 15.9842 22.4542 15.9842 25.5005C15.9842 28.5468 18.4537 31.0163 21.5 31.0163C24.5463 31.0163 27.0158 28.5468 27.0158 25.5005C27.0158 22.4542 24.5463 19.9847 21.5 19.9847ZM15.875 25.5005C15.875 22.3939 18.3934 19.8755 21.5 19.8755C24.6066 19.8755 27.125 22.3939 27.125 25.5005C27.125 28.6071 24.6066 31.1255 21.5 31.1255C18.3934 31.1255 15.875 28.6071 15.875 25.5005Z" fill="#D0D5DD"/>
<path fill-rule="evenodd" clip-rule="evenodd" d="M21.5005 21.7313C19.4194 21.7313 17.7323 23.4184 17.7323 25.4995C17.7323 27.5806 19.4194 29.2677 21.5005 29.2677C23.5816 29.2677 25.2687 27.5806 25.2687 25.4995C25.2687 23.4184 23.5816 21.7313 21.5005 21.7313ZM17.623 25.4995C17.623 23.3581 19.359 21.6221 21.5005 21.6221C23.6419 21.6221 25.3779 23.3581 25.3779 25.4995C25.3779 27.6409 23.6419 29.3769 21.5005 29.3769C19.359 29.3769 17.623 27.6409 17.623 25.4995Z" fill="#D0D5DD"/>
<path d="M44 25.4453L44 25.5545L-1 25.5545L-1 25.4453L44 25.4453Z" fill="#D0D5DD"/>
<path d="M44 40.4082L44 40.5174L-1 40.5174L-1 40.4082L44 40.4082Z" fill="#D0D5DD"/>
<path d="M44 32.9268L44 33.036L-1 33.036L-1 32.9268L44 32.9268Z" fill="#D0D5DD"/>
<g filter="url(#filter0_dd_191_70325)">
<circle cx="21.5" cy="22.5" r="11.25" fill="url(#paint1_linear_191_70325)"/>
</g>
<g filter="url(#filter1_b_191_70325)">
<path d="M-1 22.5H44V27C44 33.3006 44 36.4509 42.7738 38.8574C41.6952 40.9742 39.9742 42.6952 37.8574 43.7738C35.4509 45 32.3006 45 26 45H17C10.6994 45 7.54911 45 5.14261 43.7738C3.02578 42.6952 1.30475 40.9742 0.226177 38.8574C-1 36.4509 -1 33.3006 -1 27V22.5Z" fill="white" fill-opacity="0.2"/>
</g>
</g>
<rect x="-0.859375" y="0.140625" width="44.7188" height="44.7188" rx="11.1094" stroke="#D0D5DD" stroke-width="0.28125"/>
</g>
<path d="M67.8209 34.1519C66.1841 34.1519 64.7413 33.8059 63.4925 33.1141C62.2606 32.4053 61.2903 31.4519 60.5816 30.2537C59.8897 29.0387 59.5438 27.6634 59.5438 26.1278V16.2559H62.2775V25.9759C62.2775 27.0222 62.5222 27.9672 63.0116 28.8109C63.5178 29.6378 64.1928 30.2959 65.0366 30.7853C65.8803 31.2578 66.8084 31.4941 67.8209 31.4941C68.9009 31.4941 69.8628 31.2578 70.7066 30.7853C71.5672 30.2959 72.2422 29.6378 72.7316 28.8109C73.2378 27.9672 73.4909 27.0222 73.4909 25.9759V16.2559H76.0981V26.1278C76.0981 27.6634 75.7438 29.0387 75.035 30.2537C74.3431 31.4519 73.3728 32.4053 72.1241 33.1141C70.8922 33.8059 69.4578 34.1519 67.8209 34.1519ZM83.5038 34V16.2812H86.111L99.2229 30.7853L98.9697 31.0131C98.9022 30.5406 98.8348 30.0259 98.7672 29.4691C98.7166 28.9122 98.6744 28.3384 98.6407 27.7478C98.6069 27.1572 98.5732 26.5497 98.5394 25.9253C98.5226 25.2841 98.5057 24.6428 98.4888 24.0016C98.4719 23.3603 98.4635 22.7275 98.4635 22.1031V16.2812H101.197V34H98.5394L85.6047 20.0275L85.7313 19.6731C85.7819 20.23 85.8241 20.7784 85.8579 21.3184C85.9085 21.8416 85.9591 22.3478 86.0097 22.8372C86.0604 23.3266 86.0941 23.7991 86.111 24.2547C86.1447 24.6934 86.1701 25.1153 86.1869 25.5203C86.2207 25.9084 86.2376 26.2797 86.2376 26.6341V34H83.5038ZM108.789 34V31.3675H112.763V18.9137H108.789V16.2812H119.496V18.9137H115.497V31.3675H119.496V34H108.789ZM127.084 34V16.2812H129.767L137.259 26.4569H136.171L143.689 16.2812H146.321V34H143.588V26.5834C143.588 25.1322 143.621 23.7991 143.689 22.5841C143.756 21.3522 143.891 20.1119 144.094 18.8631L144.398 19.8503L137.513 28.9122H135.842L129.033 19.9009L129.311 18.8631C129.497 20.0781 129.624 21.3016 129.691 22.5334C129.775 23.7484 129.818 25.0984 129.818 26.5834V34H127.084ZM160.786 34.2531C159.622 34.2531 158.55 34.1266 157.572 33.8734C156.593 33.6203 155.698 33.2406 154.888 32.7344C154.095 32.2281 153.37 31.5869 152.712 30.8106L154.483 28.5831C155.479 29.7306 156.475 30.5575 157.47 31.0637C158.483 31.5531 159.63 31.7978 160.913 31.7978C161.706 31.7978 162.448 31.6966 163.14 31.4941C163.849 31.2747 164.423 30.9709 164.862 30.5828C165.317 30.1778 165.545 29.68 165.545 29.0894C165.545 28.7012 165.435 28.3722 165.216 28.1022C164.997 27.8322 164.701 27.6044 164.33 27.4187C163.959 27.2331 163.537 27.0812 163.064 26.9631C162.609 26.8281 162.136 26.7184 161.647 26.6341C161.174 26.5497 160.727 26.4737 160.305 26.4062C159.259 26.2544 158.314 26.0434 157.47 25.7734C156.643 25.4866 155.943 25.1322 155.369 24.7103C154.796 24.2884 154.357 23.7822 154.053 23.1916C153.749 22.6009 153.597 21.9259 153.597 21.1666C153.597 20.3903 153.775 19.6816 154.129 19.0403C154.5 18.3991 155.015 17.8591 155.673 17.4203C156.331 16.9647 157.099 16.6187 157.977 16.3825C158.854 16.1462 159.807 16.0281 160.837 16.0281C161.917 16.0281 162.904 16.1462 163.798 16.3825C164.71 16.6187 165.511 16.9731 166.203 17.4456C166.912 17.9012 167.502 18.4666 167.975 19.1416L166.102 21.1159C165.68 20.5422 165.191 20.0612 164.634 19.6731C164.094 19.285 163.495 18.9897 162.837 18.7872C162.178 18.5847 161.487 18.4834 160.761 18.4834C159.934 18.4834 159.2 18.5847 158.559 18.7872C157.917 18.9897 157.411 19.2766 157.04 19.6478C156.669 20.0022 156.483 20.4325 156.483 20.9387C156.483 21.3606 156.593 21.7319 156.812 22.0525C157.032 22.3562 157.344 22.6178 157.749 22.8372C158.154 23.0566 158.652 23.2422 159.242 23.3941C159.833 23.5459 160.508 23.6725 161.267 23.7737C162.246 23.9256 163.166 24.1197 164.026 24.3559C164.904 24.5753 165.672 24.8706 166.33 25.2419C166.988 25.5962 167.502 26.0519 167.874 26.6087C168.245 27.1487 168.431 27.8153 168.431 28.6084C168.431 29.7559 168.118 30.7516 167.494 31.5953C166.87 32.4391 165.984 33.0972 164.836 33.5697C163.689 34.0253 162.339 34.2531 160.786 34.2531Z" fill="#344054"/>
</g>
<defs>
<filter id="filter0_dd_191_70325" x="6.03125" y="8.4375" width="30.9375" height="30.9375" filterUnits="userSpaceOnUse" color-interpolation-filters="sRGB">
<feFlood flood-opacity="0" result="BackgroundImageFix"/>
<feColorMatrix in="SourceAlpha" type="matrix" values="0 0 0 0 0 0 0 0 0 0 0 0 0 0 0 0 0 0 127 0" result="hardAlpha"/>
<feOffset dy="1.40625"/>
<feGaussianBlur stdDeviation="1.40625"/>
<feColorMatrix type="matrix" values="0 0 0 0 0.0627451 0 0 0 0 0.0941176 0 0 0 0 0.156863 0 0 0 0.06 0"/>
<feBlend mode="normal" in2="BackgroundImageFix" result="effect1_dropShadow_191_70325"/>
<feColorMatrix in="SourceAlpha" type="matrix" values="0 0 0 0 0 0 0 0 0 0 0 0 0 0 0 0 0 0 127 0" result="hardAlpha"/>
<feOffset dy="1.40625"/>
<feGaussianBlur stdDeviation="2.10938"/>
<feColorMatrix type="matrix" values="0 0 0 0 0.0627451 0 0 0 0 0.0941176 0 0 0 0 0.156863 0 0 0 0.1 0"/>
<feBlend mode="normal" in2="effect1_dropShadow_191_70325" result="effect2_dropShadow_191_70325"/>
<feBlend mode="normal" in="SourceGraphic" in2="effect2_dropShadow_191_70325" result="shape"/>
</filter>
<filter id="filter1_b_191_70325" x="-8.03125" y="15.4688" width="59.0625" height="36.5625" filterUnits="userSpaceOnUse" color-interpolation-filters="sRGB">
<feFlood flood-opacity="0" result="BackgroundImageFix"/>
<feGaussianBlur in="BackgroundImageFix" stdDeviation="3.51562"/>
<feComposite in2="SourceAlpha" operator="in" result="effect1_backgroundBlur_191_70325"/>
<feBlend mode="normal" in="SourceGraphic" in2="effect1_backgroundBlur_191_70325" result="shape"/>
</filter>
<linearGradient id="paint0_linear_191_70325" x1="21.5" y1="0" x2="21.5" y2="45" gradientUnits="userSpaceOnUse">
<stop stop-color="white"/>
<stop offset="1" stop-color="#D0D5DD"/>
</linearGradient>
<linearGradient id="paint1_linear_191_70325" x1="15.875" y1="33.75" x2="27.125" y2="11.25" gradientUnits="userSpaceOnUse">
<stop stop-color="#53389E"/>
<stop offset="1" stop-color="#6941C6"/>
</linearGradient>
<clipPath id="clip0_191_70325">
<rect width="174" height="45" fill="white"/>
</clipPath>
<clipPath id="clip1_191_70325">
<rect width="45" height="45" fill="white" transform="translate(-1)"/>
</clipPath>
<clipPath id="clip2_191_70325">
<rect x="-1" width="45" height="45" rx="11.25" fill="white"/>
</clipPath>
</defs>
</svg>