<svg width="25" height="24" viewBox="0 0 25 24" fill="none" xmlns="http://www.w3.org/2000/svg">
  <path d="M17.9277 14.4996V11.494C17.9277 11.3145 17.9277 11.2248 17.9004 11.1456C17.8762 11.0755 17.8368 11.0117 17.7849 10.9587C17.7263 10.8989 17.646 10.8587 17.4855 10.7785L12.9277 8.49958M4.92773 9.49958V16.3062C4.92773 16.6781 4.92773 16.8641 4.98575 17.0269C5.03704 17.1708 5.12064 17.3011 5.23011 17.4077C5.35395 17.5283 5.52301 17.6057 5.86109 17.7607L12.2611 20.694C12.5063 20.8064 12.6289 20.8626 12.7567 20.8848C12.8699 20.9045 12.9856 20.9045 13.0988 20.8848C13.2265 20.8626 13.3491 20.8064 13.5944 20.694L19.9944 17.7607C20.3325 17.6057 20.5015 17.5283 20.6254 17.4077C20.7348 17.3011 20.8184 17.1708 20.8697 17.0269C20.9277 16.8641 20.9277 16.6781 20.9277 16.3062V9.49958M2.92773 8.49958L12.57 3.67846C12.7011 3.61287 12.7667 3.58008 12.8355 3.56717C12.8965 3.55574 12.959 3.55574 13.0199 3.56717C13.0887 3.58008 13.1543 3.61287 13.2855 3.67846L22.9277 8.49958L13.2855 13.3207C13.1543 13.3863 13.0887 13.4191 13.0199 13.432C12.959 13.4434 12.8965 13.4434 12.8355 13.432C12.7667 13.4191 12.7011 13.3863 12.57 13.3207L2.92773 8.49958Z" stroke="#667085" stroke-linecap="round" stroke-linejoin="round"/>
</svg>