<svg width="22" height="23" viewBox="0 0 24 25" fill="none" xmlns="http://www.w3.org/2000/svg">
<path d="M22.5 6.5V18.5C22.5 18.8978 22.342 19.2794 22.0607 19.5607C21.7794 19.842 21.3978 20 21 20H15C14.4033 20 13.831 20.2371 13.409 20.659C12.9871 21.081 12.75 21.6533 12.75 22.25C12.75 22.4489 12.671 22.6397 12.5303 22.7803C12.3897 22.921 12.1989 23 12 23C11.8011 23 11.6103 22.921 11.4697 22.7803C11.329 22.6397 11.25 22.4489 11.25 22.25C11.25 21.6533 11.0129 21.081 10.591 20.659C10.169 20.2371 9.59674 20 9 20H3C2.60218 20 2.22064 19.842 1.93934 19.5607C1.65804 19.2794 1.5 18.8978 1.5 18.5V6.5C1.5 6.10218 1.65804 5.72064 1.93934 5.43934C2.22064 5.15804 2.60218 5 3 5H8.25C9.04565 5 9.80871 5.31607 10.3713 5.87868C10.9339 6.44129 11.25 7.20435 11.25 8V16.25C11.25 16.4489 11.329 16.6397 11.4697 16.7803C11.6103 16.921 11.8011 17 12 17C12.1989 17 12.3897 16.921 12.5303 16.7803C12.671 16.6397 12.75 16.4489 12.75 16.25V8C12.75 7.20435 13.0661 6.44129 13.6287 5.87868C14.1913 5.31607 14.9544 5 15.75 5H21C21.3978 5 21.7794 5.15804 22.0607 5.43934C22.342 5.72064 22.5 6.10218 22.5 6.5Z" fill="black"/>
</svg>
