<svg width="18" height="18" viewBox="0 0 18 18" fill="none" xmlns="http://www.w3.org/2000/svg">
  <g clip-path="url(#clip0_3617_9629)">
    <path d="M11.7049 8.52126H10.984L9.90263 10.684L8.46081 6.35854L7.37945 8.52126H6.65855M9.17678 3.93328C7.73544 2.24822 5.3319 1.79494 3.52599 3.33795C1.72008 4.88096 1.46584 7.46079 2.88402 9.28571C3.95521 10.6641 6.99831 13.4313 8.42333 14.7029C8.68529 14.9367 8.81627 15.0536 8.96965 15.0996C9.1028 15.1395 9.25076 15.1395 9.38391 15.0996C9.53729 15.0536 9.66827 14.9367 9.93023 14.7029C11.3553 13.4313 14.3983 10.6641 15.4695 9.28571C16.8877 7.46079 16.6645 4.86473 14.8276 3.33795C12.9906 1.81118 10.6181 2.24822 9.17678 3.93328Z"  stroke-width="1.5045" stroke-linecap="round" stroke-linejoin="round"/>
  </g>
  <defs>
    <clipPath id="clip0_3617_9629">
      <rect width="17.3018" height="17.3018" fill="white" transform="translate(0.53125 0.230713)"/>
    </clipPath>
  </defs>
</svg>