<svg width="22" height="23" viewBox="0 0 24 25" fill="none" xmlns="http://www.w3.org/2000/svg">
<path d="M10.5 3.5H13.5C13.6989 3.5 13.8897 3.57902 14.0303 3.71967C14.171 3.86032 14.25 4.05109 14.25 4.25L14.25 20H15.75L15.75 11.75C15.75 11.5511 15.829 11.3603 15.9697 11.2197C16.1103 11.079 16.3011 11 16.5 11H18.75C18.9489 11 19.1397 11.079 19.2803 11.2197C19.421 11.3603 19.5 11.5511 19.5 11.75V20H20.25C20.4489 20 20.6397 20.079 20.7803 20.2197C20.921 20.3603 21 20.5511 21 20.75C21 20.9489 20.921 21.1397 20.7803 21.2803C20.6397 21.421 20.4489 21.5 20.25 21.5L3.75 21.5C3.55109 21.5 3.36032 21.421 3.21967 21.2803C3.07902 21.1397 3 20.9489 3 20.75C3 20.5511 3.07902 20.3603 3.21967 20.2197C3.36032 20.079 3.55109 20 3.75 20H4.5L4.5 8.75C4.5 8.55109 4.57902 8.36032 4.71967 8.21967C4.86032 8.07902 5.05109 8 5.25 8H7.5C7.69891 8 7.88968 8.07902 8.03033 8.21967C8.17098 8.36032 8.25 8.55109 8.25 8.75L8.25 20H9.75L9.75 4.25C9.75 4.05109 9.82902 3.86032 9.96967 3.71967C10.1103 3.57902 10.3011 3.5 10.5 3.5Z" fill="black"/>
<path d="M10.5 3.5H13.5C13.6989 3.5 13.8897 3.57902 14.0303 3.71967C14.171 3.86032 14.25 4.05109 14.25 4.25L14.25 20H15.75L15.75 11.75C15.75 11.5511 15.829 11.3603 15.9697 11.2197C16.1103 11.079 16.3011 11 16.5 11H18.75C18.9489 11 19.1397 11.079 19.2803 11.2197C19.421 11.3603 19.5 11.5511 19.5 11.75V20H20.25C20.4489 20 20.6397 20.079 20.7803 20.2197C20.921 20.3603 21 20.5511 21 20.75C21 20.9489 20.921 21.1397 20.7803 21.2803C20.6397 21.421 20.4489 21.5 20.25 21.5L3.75 21.5C3.55109 21.5 3.36032 21.421 3.21967 21.2803C3.07902 21.1397 3 20.9489 3 20.75C3 20.5511 3.07902 20.3603 3.21967 20.2197C3.36032 20.079 3.55109 20 3.75 20H4.5L4.5 8.75C4.5 8.55109 4.57902 8.36032 4.71967 8.21967C4.86032 8.07902 5.05109 8 5.25 8H7.5C7.69891 8 7.88968 8.07902 8.03033 8.21967C8.17098 8.36032 8.25 8.55109 8.25 8.75L8.25 20H9.75L9.75 4.25C9.75 4.05109 9.82902 3.86032 9.96967 3.71967C10.1103 3.57902 10.3011 3.5 10.5 3.5Z" fill="black" fill-opacity="0.2"/>
<path d="M10.5 3.5H13.5C13.6989 3.5 13.8897 3.57902 14.0303 3.71967C14.171 3.86032 14.25 4.05109 14.25 4.25L14.25 20H15.75L15.75 11.75C15.75 11.5511 15.829 11.3603 15.9697 11.2197C16.1103 11.079 16.3011 11 16.5 11H18.75C18.9489 11 19.1397 11.079 19.2803 11.2197C19.421 11.3603 19.5 11.5511 19.5 11.75V20H20.25C20.4489 20 20.6397 20.079 20.7803 20.2197C20.921 20.3603 21 20.5511 21 20.75C21 20.9489 20.921 21.1397 20.7803 21.2803C20.6397 21.421 20.4489 21.5 20.25 21.5L3.75 21.5C3.55109 21.5 3.36032 21.421 3.21967 21.2803C3.07902 21.1397 3 20.9489 3 20.75C3 20.5511 3.07902 20.3603 3.21967 20.2197C3.36032 20.079 3.55109 20 3.75 20H4.5L4.5 8.75C4.5 8.55109 4.57902 8.36032 4.71967 8.21967C4.86032 8.07902 5.05109 8 5.25 8H7.5C7.69891 8 7.88968 8.07902 8.03033 8.21967C8.17098 8.36032 8.25 8.55109 8.25 8.75L8.25 20H9.75L9.75 4.25C9.75 4.05109 9.82902 3.86032 9.96967 3.71967C10.1103 3.57902 10.3011 3.5 10.5 3.5Z" fill="black" fill-opacity="0.2"/>
</svg>
