<svg width="25" height="24" viewBox="0 0 25 24" fill="none" xmlns="http://www.w3.org/2000/svg">
<path d="M21.4872 5.28849L12.4872 2.28849C12.3332 2.23717 12.1668 2.23717 12.0128 2.28849L3.01281 5.28849C2.86347 5.33828 2.73358 5.43379 2.64155 5.5615C2.54951 5.68921 2.49999 5.84264 2.5 6.00006V13.5001C2.5 13.699 2.57902 13.8897 2.71967 14.0304C2.86032 14.171 3.05109 14.2501 3.25 14.2501C3.44891 14.2501 3.63968 14.171 3.78033 14.0304C3.92098 13.8897 4 13.699 4 13.5001V7.04068L7.14906 8.08974C6.3124 9.44143 6.04634 11.0699 6.40931 12.6176C6.77229 14.1653 7.73462 15.5057 9.085 16.3444C7.3975 17.0063 5.93875 18.2035 4.87187 19.8404C4.81639 19.9228 4.77785 20.0155 4.75849 20.113C4.73914 20.2105 4.73936 20.3109 4.75913 20.4083C4.77891 20.5057 4.81785 20.5982 4.87369 20.6804C4.92953 20.7626 5.00116 20.8329 5.08441 20.8872C5.16766 20.9415 5.26087 20.9787 5.35863 20.9967C5.45639 21.0147 5.55674 21.013 5.65386 20.9918C5.75097 20.9707 5.84291 20.9304 5.92433 20.8734C6.00575 20.8164 6.07502 20.7438 6.12813 20.6597C7.54094 18.4922 9.77219 17.2501 12.25 17.2501C14.7278 17.2501 16.9591 18.4922 18.3719 20.6597C18.4819 20.8232 18.6518 20.9369 18.8449 20.9761C19.038 21.0153 19.2388 20.9769 19.4039 20.8693C19.5689 20.7616 19.685 20.5933 19.7269 20.4008C19.7689 20.2083 19.7334 20.0069 19.6281 19.8404C18.5612 18.2035 17.0969 17.0063 15.415 16.3444C16.7641 15.5057 17.7255 14.1662 18.0884 12.6196C18.4513 11.0731 18.1861 9.44573 17.3509 8.09443L21.4872 6.71631C21.6366 6.66655 21.7665 6.57105 21.8586 6.44334C21.9506 6.31563 22.0002 6.16218 22.0002 6.00474C22.0002 5.8473 21.9506 5.69386 21.8586 5.56615C21.7665 5.43843 21.6366 5.34294 21.4872 5.29318V5.28849ZM16.75 11.2501C16.7502 11.9615 16.5817 12.6628 16.2584 13.2965C15.9351 13.9302 15.4661 14.4782 14.8899 14.8956C14.3138 15.313 13.6469 15.5878 12.944 15.6975C12.2411 15.8072 11.5222 15.7487 10.8462 15.5268C10.1703 15.3049 9.55663 14.9258 9.05555 14.4208C8.55448 13.9158 8.18028 13.2991 7.96367 12.6215C7.74705 11.9438 7.69419 11.2245 7.80942 10.5225C7.92465 9.82043 8.20469 9.15572 8.62656 8.58287L12.0128 9.70787C12.1668 9.75919 12.3332 9.75919 12.4872 9.70787L15.8734 8.58287C16.4432 9.35537 16.7505 10.2901 16.75 11.2501Z" fill="black"/>
<path d="M21.4872 5.28849L12.4872 2.28849C12.3332 2.23717 12.1668 2.23717 12.0128 2.28849L3.01281 5.28849C2.86347 5.33828 2.73358 5.43379 2.64155 5.5615C2.54951 5.68921 2.49999 5.84264 2.5 6.00006V13.5001C2.5 13.699 2.57902 13.8897 2.71967 14.0304C2.86032 14.171 3.05109 14.2501 3.25 14.2501C3.44891 14.2501 3.63968 14.171 3.78033 14.0304C3.92098 13.8897 4 13.699 4 13.5001V7.04068L7.14906 8.08974C6.3124 9.44143 6.04634 11.0699 6.40931 12.6176C6.77229 14.1653 7.73462 15.5057 9.085 16.3444C7.3975 17.0063 5.93875 18.2035 4.87187 19.8404C4.81639 19.9228 4.77785 20.0155 4.75849 20.113C4.73914 20.2105 4.73936 20.3109 4.75913 20.4083C4.77891 20.5057 4.81785 20.5982 4.87369 20.6804C4.92953 20.7626 5.00116 20.8329 5.08441 20.8872C5.16766 20.9415 5.26087 20.9787 5.35863 20.9967C5.45639 21.0147 5.55674 21.013 5.65386 20.9918C5.75097 20.9707 5.84291 20.9304 5.92433 20.8734C6.00575 20.8164 6.07502 20.7438 6.12813 20.6597C7.54094 18.4922 9.77219 17.2501 12.25 17.2501C14.7278 17.2501 16.9591 18.4922 18.3719 20.6597C18.4819 20.8232 18.6518 20.9369 18.8449 20.9761C19.038 21.0153 19.2388 20.9769 19.4039 20.8693C19.5689 20.7616 19.685 20.5933 19.7269 20.4008C19.7689 20.2083 19.7334 20.0069 19.6281 19.8404C18.5612 18.2035 17.0969 17.0063 15.415 16.3444C16.7641 15.5057 17.7255 14.1662 18.0884 12.6196C18.4513 11.0731 18.1861 9.44573 17.3509 8.09443L21.4872 6.71631C21.6366 6.66655 21.7665 6.57105 21.8586 6.44334C21.9506 6.31563 22.0002 6.16218 22.0002 6.00474C22.0002 5.8473 21.9506 5.69386 21.8586 5.56615C21.7665 5.43843 21.6366 5.34294 21.4872 5.29318V5.28849ZM16.75 11.2501C16.7502 11.9615 16.5817 12.6628 16.2584 13.2965C15.9351 13.9302 15.4661 14.4782 14.8899 14.8956C14.3138 15.313 13.6469 15.5878 12.944 15.6975C12.2411 15.8072 11.5222 15.7487 10.8462 15.5268C10.1703 15.3049 9.55663 14.9258 9.05555 14.4208C8.55448 13.9158 8.18028 13.2991 7.96367 12.6215C7.74705 11.9438 7.69419 11.2245 7.80942 10.5225C7.92465 9.82043 8.20469 9.15572 8.62656 8.58287L12.0128 9.70787C12.1668 9.75919 12.3332 9.75919 12.4872 9.70787L15.8734 8.58287C16.4432 9.35537 16.7505 10.2901 16.75 11.2501Z" fill="black"/>
<path d="M21.4872 5.28849L12.4872 2.28849C12.3332 2.23717 12.1668 2.23717 12.0128 2.28849L3.01281 5.28849C2.86347 5.33828 2.73358 5.43379 2.64155 5.5615C2.54951 5.68921 2.49999 5.84264 2.5 6.00006V13.5001C2.5 13.699 2.57902 13.8897 2.71967 14.0304C2.86032 14.171 3.05109 14.2501 3.25 14.2501C3.44891 14.2501 3.63968 14.171 3.78033 14.0304C3.92098 13.8897 4 13.699 4 13.5001V7.04068L7.14906 8.08974C6.3124 9.44143 6.04634 11.0699 6.40931 12.6176C6.77229 14.1653 7.73462 15.5057 9.085 16.3444C7.3975 17.0063 5.93875 18.2035 4.87187 19.8404C4.81639 19.9228 4.77785 20.0155 4.75849 20.113C4.73914 20.2105 4.73936 20.3109 4.75913 20.4083C4.77891 20.5057 4.81785 20.5982 4.87369 20.6804C4.92953 20.7626 5.00116 20.8329 5.08441 20.8872C5.16766 20.9415 5.26087 20.9787 5.35863 20.9967C5.45639 21.0147 5.55674 21.013 5.65386 20.9918C5.75097 20.9707 5.84291 20.9304 5.92433 20.8734C6.00575 20.8164 6.07502 20.7438 6.12813 20.6597C7.54094 18.4922 9.77219 17.2501 12.25 17.2501C14.7278 17.2501 16.9591 18.4922 18.3719 20.6597C18.4819 20.8232 18.6518 20.9369 18.8449 20.9761C19.038 21.0153 19.2388 20.9769 19.4039 20.8693C19.5689 20.7616 19.685 20.5933 19.7269 20.4008C19.7689 20.2083 19.7334 20.0069 19.6281 19.8404C18.5612 18.2035 17.0969 17.0063 15.415 16.3444C16.7641 15.5057 17.7255 14.1662 18.0884 12.6196C18.4513 11.0731 18.1861 9.44573 17.3509 8.09443L21.4872 6.71631C21.6366 6.66655 21.7665 6.57105 21.8586 6.44334C21.9506 6.31563 22.0002 6.16218 22.0002 6.00474C22.0002 5.8473 21.9506 5.69386 21.8586 5.56615C21.7665 5.43843 21.6366 5.34294 21.4872 5.29318V5.28849ZM16.75 11.2501C16.7502 11.9615 16.5817 12.6628 16.2584 13.2965C15.9351 13.9302 15.4661 14.4782 14.8899 14.8956C14.3138 15.313 13.6469 15.5878 12.944 15.6975C12.2411 15.8072 11.5222 15.7487 10.8462 15.5268C10.1703 15.3049 9.55663 14.9258 9.05555 14.4208C8.55448 13.9158 8.18028 13.2991 7.96367 12.6215C7.74705 11.9438 7.69419 11.2245 7.80942 10.5225C7.92465 9.82043 8.20469 9.15572 8.62656 8.58287L12.0128 9.70787C12.1668 9.75919 12.3332 9.75919 12.4872 9.70787L15.8734 8.58287C16.4432 9.35537 16.7505 10.2901 16.75 11.2501Z" fill="black"/>
</svg>
