<svg width="25" height="24" viewBox="0 0 25 24" fill="none" xmlns="http://www.w3.org/2000/svg">
<path d="M9.42773 15.5H7.92774C6.53217 15.5 5.83439 15.5 5.26659 15.6722C3.98819 16.06 2.98777 17.0605 2.59997 18.3389C2.42773 18.9067 2.42773 19.6044 2.42773 21M14.9277 7.5C14.9277 9.98528 12.913 12 10.4277 12C7.94245 12 5.92773 9.98528 5.92773 7.5C5.92773 5.01472 7.94245 3 10.4277 3C12.913 3 14.9277 5.01472 14.9277 7.5ZM11.4277 21L14.5291 20.1139C14.6776 20.0715 14.7519 20.0502 14.8211 20.0184C14.8826 19.9902 14.9411 19.9558 14.9956 19.9158C15.0571 19.8707 15.1117 19.8161 15.2209 19.7068L21.6778 13.25C22.3682 12.5597 22.3682 11.4403 21.6778 10.75C20.9874 10.0596 19.8681 10.0596 19.1777 10.75L12.7209 17.2068C12.6117 17.3161 12.5571 17.3707 12.512 17.4321C12.4719 17.4866 12.4375 17.5451 12.4093 17.6066C12.3775 17.6759 12.3563 17.7501 12.3138 17.8987L11.4277 21Z" stroke="#667085" stroke-linecap="round" stroke-linejoin="round"/>
</svg> 