<svg width="18" height="18" viewBox="0 0 18 18" fill="none" xmlns="http://www.w3.org/2000/svg">
  <g clip-path="url(#clip0_3617_8821)">
    <path d="M16.4728 6.29874V9.18236M8.00216 4.49647H5.51504C4.3038 4.49647 3.69818 4.49647 3.23555 4.73219C2.82861 4.93954 2.49776 5.27039 2.29041 5.67733C2.05469 6.13996 2.05469 6.74558 2.05469 7.95682L2.05469 8.8219C2.05469 9.49371 2.05469 9.82961 2.16444 10.0946C2.31078 10.4479 2.59146 10.7285 2.94474 10.8749C3.20971 10.9846 3.54561 10.9846 4.21741 10.9846V14.0485C4.21741 14.2158 4.21741 14.2995 4.22435 14.37C4.29177 15.0546 4.83336 15.5961 5.5179 15.6636C5.58839 15.6705 5.67208 15.6705 5.83945 15.6705C6.00682 15.6705 6.09051 15.6705 6.161 15.6636C6.84554 15.5961 7.38712 15.0546 7.45454 14.37C7.46149 14.2995 7.46149 14.2158 7.46149 14.0485V10.9846H8.00217C9.27559 10.9846 10.8333 11.6672 12.0351 12.3224C12.7362 12.7046 13.0868 12.8957 13.3164 12.8675C13.5293 12.8415 13.6903 12.7459 13.8151 12.5714C13.9496 12.3833 13.9496 12.0069 13.9496 11.254V4.22705C13.9496 3.47422 13.9496 3.0978 13.8151 2.90967C13.6903 2.73522 13.5293 2.63963 13.3164 2.61355C13.0868 2.58543 12.7362 2.77653 12.0351 3.15872C10.8333 3.81385 9.27559 4.49647 8.00216 4.49647Z" stroke-width="1.5045" stroke-linecap="round" stroke-linejoin="round"/>
  </g>
  <defs>
    <clipPath id="clip0_3617_8821">
      <rect width="17.3018" height="17.3018" fill="white" transform="translate(0.613281 0.531494)"/>
    </clipPath>
  </defs>
</svg>