<svg width="25" height="24" viewBox="0 0 25 24" fill="none" xmlns="http://www.w3.org/2000/svg">
  <path d="M19.4277 21V15M16.4277 18H22.4277M12.4277 15H8.42773C6.56397 15 5.63208 15 4.897 15.3045C3.91689 15.7105 3.13819 16.4892 2.73222 17.4693C2.42773 18.2044 2.42773 19.1362 2.42773 21M15.9277 3.29076C17.3936 3.88415 18.4277 5.32131 18.4277 7C18.4277 8.67869 17.3936 10.1159 15.9277 10.7092M13.9277 7C13.9277 9.20914 12.1369 11 9.92773 11C7.7186 11 5.92773 9.20914 5.92773 7C5.92773 4.79086 7.7186 3 9.92773 3C12.1369 3 13.9277 4.79086 13.9277 7Z" stroke="#667085" stroke-linecap="round" stroke-linejoin="round"/>
</svg>