<svg viewBox="0 0 23 23" fill="none" xmlns="http://www.w3.org/2000/svg">
  <path d="M17.5043 16.9966C17.5715 17.064 17.6092 17.1553 17.6092 17.2505C17.6092 17.3456 17.5715 17.4369 17.5043 17.5043C17.4144 17.5941 15.1998 19.7656 11.5 19.7656C9.35004 19.7656 7.2459 18.8627 5.41488 17.153C4.88372 16.6553 4.39479 16.1144 3.95312 15.5358V18.6875C3.95312 18.7828 3.91526 18.8742 3.84787 18.9416C3.78047 19.009 3.68906 19.0469 3.59375 19.0469C3.49844 19.0469 3.40703 19.009 3.33963 18.9416C3.27224 18.8742 3.23438 18.7828 3.23438 18.6875V14.375C3.23438 14.2797 3.27224 14.1883 3.33963 14.1209C3.40703 14.0535 3.49844 14.0156 3.59375 14.0156H7.90625C8.00156 14.0156 8.09297 14.0535 8.16037 14.1209C8.22776 14.1883 8.26562 14.2797 8.26562 14.375C8.26562 14.4703 8.22776 14.5617 8.16037 14.6291C8.09297 14.6965 8.00156 14.7344 7.90625 14.7344H4.25949C5.15793 15.9976 7.70859 19.0469 11.5 19.0469C14.8916 19.0469 16.976 17.0164 16.9966 16.9957C17.0641 16.9287 17.1555 16.8911 17.2506 16.8912C17.3458 16.8914 17.437 16.9293 17.5043 16.9966ZM19.4062 3.95312C19.3109 3.95312 19.2195 3.99099 19.1521 4.05838C19.0847 4.12578 19.0469 4.21719 19.0469 4.3125V7.46332C18.6052 6.88474 18.1163 6.34382 17.5851 5.84613C15.7541 4.1373 13.65 3.23438 11.5 3.23438C7.80023 3.23438 5.58828 5.4032 5.49574 5.49574C5.43113 5.56363 5.39559 5.65407 5.39671 5.74778C5.39783 5.8415 5.43551 5.93107 5.50172 5.9974C5.56793 6.06372 5.65743 6.10156 5.75114 6.10285C5.84485 6.10413 5.93536 6.06875 6.00336 6.00426C6.02402 5.98359 8.1084 3.95312 11.5 3.95312C15.2914 3.95312 17.8457 7.00242 18.7405 8.26562H15.0938C14.9984 8.26562 14.907 8.30349 14.8396 8.37088C14.7722 8.43828 14.7344 8.52969 14.7344 8.625C14.7344 8.72031 14.7722 8.81172 14.8396 8.87912C14.907 8.94651 14.9984 8.98438 15.0938 8.98438H19.4062C19.5016 8.98438 19.593 8.94651 19.6604 8.87912C19.7278 8.81172 19.7656 8.72031 19.7656 8.625V4.3125C19.7656 4.21719 19.7278 4.12578 19.6604 4.05838C19.593 3.99099 19.5016 3.95312 19.4062 3.95312Z"/>
</svg>