<svg width="18" height="18" viewBox="0 0 18 18" fill="none" xmlns="http://www.w3.org/2000/svg">
  <path d="M12.4908 11.3026C12.2956 11.5233 12.0908 11.7412 11.8767 11.9553C8.77984 15.0521 4.89999 16.1933 3.21081 14.5041C2.05274 13.346 2.22496 11.1583 3.44565 8.89918M5.11902 6.52092C5.32211 6.29001 5.53574 6.06206 5.7596 5.83821C8.85644 2.74136 12.7363 1.60023 14.4255 3.28942C15.5843 4.44828 15.4111 6.63821 14.1881 8.899M11.8767 5.83821C14.9735 8.93505 16.1147 12.8149 14.4255 14.5041C12.7363 16.1933 8.85644 15.0521 5.7596 11.9553C2.66275 8.85845 1.52162 4.97861 3.21081 3.28942C4.89999 1.60023 8.77984 2.74136 11.8767 5.83821ZM9.52404 8.8817C9.52404 9.27984 9.20128 9.6026 8.80314 9.6026C8.40499 9.6026 8.08223 9.27984 8.08223 8.8817C8.08223 8.48355 8.40499 8.16079 8.80314 8.16079C9.20128 8.16079 9.52404 8.48355 9.52404 8.8817Z"  stroke-width="1.5045" stroke-linecap="round" stroke-linejoin="round"/>
</svg>