<svg width="18" height="18" viewBox="0 0 18 18" fill="none" xmlns="http://www.w3.org/2000/svg">
  <path d="M9.30244 9.18242H9.30965M11.8512 11.7312C8.47285 15.1096 4.593 16.7072 3.18534 15.2995C1.77769 13.8919 3.37527 10.012 6.75365 6.63363C10.132 3.25525 14.0119 1.65767 15.4195 3.06533C16.8272 4.47298 15.2296 8.35283 11.8512 11.7312ZM11.8512 6.6335C15.2296 10.0119 16.8272 13.8917 15.4195 15.2994C14.0118 16.707 10.132 15.1095 6.75362 11.7311C3.37524 8.3527 1.77766 4.47285 3.18531 3.0652C4.59297 1.65754 8.47282 3.25512 11.8512 6.6335ZM9.66289 9.18242C9.66289 9.38149 9.50151 9.54287 9.30244 9.54287C9.10336 9.54287 8.94198 9.38149 8.94198 9.18242C8.94198 8.98335 9.10336 8.82197 9.30244 8.82197C9.50151 8.82197 9.66289 8.98335 9.66289 9.18242Z"  stroke-width="1.5045" stroke-linecap="round" stroke-linejoin="round"/>
</svg>