<svg viewBox="0 0 35 35" fill="none" xmlns="http://www.w3.org/2000/svg">
  <path d="M11.9201 22.2236L10.6844 31.5275L17.2118 27.611C17.4247 27.4833 17.5311 27.4194 17.6448 27.3945C17.7453 27.3724 17.8494 27.3724 17.9499 27.3945C18.0635 27.4194 18.17 27.4833 18.3829 27.611L24.9103 31.5275L23.6754 22.2196M24.0936 6.27491C24.3133 6.80628 24.735 7.22864 25.266 7.44915L27.128 8.22045C27.6594 8.44057 28.0816 8.86277 28.3017 9.39417C28.5218 9.92558 28.5218 10.5227 28.3017 11.0541L27.531 12.9148C27.3108 13.4464 27.3105 14.0441 27.5317 14.5755L28.301 16.4357C28.4102 16.6989 28.4663 16.981 28.4664 17.2659C28.4664 17.5509 28.4103 17.833 28.3013 18.0962C28.1923 18.3595 28.0324 18.5986 27.8309 18.8001C27.6295 19.0015 27.3902 19.1613 27.127 19.2702L25.2663 20.041C24.735 20.2607 24.3126 20.6824 24.0921 21.2134L23.3208 23.0755C23.1007 23.6069 22.6786 24.0291 22.1472 24.2492C21.6158 24.4694 21.0187 24.4694 20.4873 24.2492L18.6267 23.4785C18.0953 23.2589 17.4984 23.2594 16.9673 23.4797L15.1053 24.2499C14.5742 24.4695 13.9777 24.4694 13.4467 24.2494C12.9158 24.0295 12.4938 23.6078 12.2736 23.077L11.5021 21.2143C11.2824 20.683 10.8607 20.2606 10.3297 20.0401L8.46765 19.2688C7.93649 19.0488 7.51444 18.6268 7.29425 18.0957C7.07406 17.5646 7.07376 16.9678 7.29342 16.4365L8.06413 14.5758C8.2837 14.0443 8.28325 13.4475 8.06289 12.9164L7.29328 11.053C7.18416 10.7898 7.12798 10.5077 7.12793 10.2227C7.12788 9.93781 7.18398 9.65567 7.29301 9.39244C7.40204 9.12921 7.56187 8.89004 7.76337 8.6886C7.96486 8.48716 8.20407 8.3274 8.46733 8.21845L10.328 7.44771C10.8589 7.22819 11.281 6.80699 11.5016 6.27657L12.2729 4.41449C12.493 3.88309 12.9152 3.46089 13.4466 3.24077C13.978 3.02065 14.575 3.02065 15.1064 3.24077L16.9671 4.01151C17.4985 4.23109 18.0953 4.23064 18.6264 4.01027L20.4892 3.24197C21.0205 3.02197 21.6175 3.02202 22.1487 3.24209C22.68 3.46216 23.1021 3.88424 23.3223 4.41551L24.0938 6.27814L24.0936 6.27491Z" stroke="black" stroke-width="1.42259" stroke-linecap="round" stroke-linejoin="round"/>
</svg>