<svg viewBox="0 0 61 61" fill="none" xmlns="http://www.w3.org/2000/svg">
  <path d="M38.6978 11.6153V8.64242C38.6978 8.00084 38.5714 7.36553 38.3259 6.77279C38.0804 6.18004 37.7205 5.64146 37.2668 5.18779C36.8132 4.73412 36.2746 4.37425 35.6818 4.12873C35.0891 3.88321 34.4538 3.75684 33.8122 3.75684H25.9953C24.6995 3.75684 23.4569 4.27157 22.5406 5.18779C21.6244 6.10401 21.1097 7.34668 21.1097 8.64242V11.6153C17.9211 11.8642 14.9434 13.3055 12.7703 15.6521C10.5971 17.9987 9.3881 21.078 9.38428 24.2763V53.5898C9.38428 54.3672 9.69311 55.1128 10.2428 55.6626C10.7926 56.2123 11.5382 56.5211 12.3156 56.5211H47.4918C48.2693 56.5211 49.0149 56.2123 49.5646 55.6626C50.1143 55.1128 50.4232 54.3672 50.4232 53.5898V24.2763C50.4194 21.078 49.2104 17.9987 47.0372 15.6521C44.864 13.3055 41.8864 11.8642 38.6978 11.6153ZM25.9953 5.71107H33.8122C34.5896 5.71107 35.3352 6.01991 35.885 6.56964C36.4347 7.11938 36.7435 7.86498 36.7435 8.64242V11.5738H23.0639V8.64242C23.0639 7.86498 23.3727 7.11938 23.9225 6.56964C24.4722 6.01991 25.2178 5.71107 25.9953 5.71107ZM40.652 40.8873H19.1554V37.9559C19.1554 37.1785 19.4643 36.4329 20.014 35.8831C20.5638 35.3334 21.3094 35.0246 22.0868 35.0246H37.7207C38.4981 35.0246 39.2437 35.3334 39.7934 35.8831C40.3432 36.4329 40.652 37.1785 40.652 37.9559V40.8873ZM19.1554 42.8415H32.8351V45.7729C32.8351 46.032 32.938 46.2805 33.1213 46.4638C33.3045 46.647 33.553 46.75 33.8122 46.75C34.0713 46.75 34.3199 46.647 34.5031 46.4638C34.6864 46.2805 34.7893 46.032 34.7893 45.7729V42.8415H40.652V54.5669H19.1554V42.8415ZM48.4689 53.5898C48.4689 53.8489 48.366 54.0975 48.1828 54.2807C47.9995 54.464 47.751 54.5669 47.4918 54.5669H42.6062V37.9559C42.6062 36.6602 42.0915 35.4175 41.1753 34.5013C40.2591 33.5851 39.0164 33.0703 37.7207 33.0703H22.0868C20.7911 33.0703 19.5484 33.5851 18.6322 34.5013C17.7159 35.4175 17.2012 36.6602 17.2012 37.9559V54.5669H12.3156C12.0565 54.5669 11.8079 54.464 11.6247 54.2807C11.4415 54.0975 11.3385 53.8489 11.3385 53.5898V24.2763C11.3417 21.4267 12.4752 18.6947 14.4902 16.6797C16.5052 14.6647 19.2372 13.5312 22.0868 13.528H37.7207C40.5703 13.5312 43.3023 14.6647 45.3173 16.6797C47.3323 18.6947 48.4657 21.4267 48.4689 24.2763V53.5898ZM34.7893 22.3221C34.7893 22.5812 34.6864 22.8297 34.5031 23.013C34.3199 23.1962 34.0713 23.2992 33.8122 23.2992H25.9953C25.7361 23.2992 25.4876 23.1962 25.3043 23.013C25.1211 22.8297 25.0181 22.5812 25.0181 22.3221C25.0181 22.0629 25.1211 21.8144 25.3043 21.6311C25.4876 21.4479 25.7361 21.3449 25.9953 21.3449H33.8122C34.0713 21.3449 34.3199 21.4479 34.5031 21.6311C34.6864 21.8144 34.7893 22.0629 34.7893 22.3221Z" />
</svg>