<svg width="18" height="18" viewBox="0 0 18 18" fill="none" xmlns="http://www.w3.org/2000/svg">
  <path d="M3.66252 6.71898V12.4862M6.90659 6.71898V12.4862M10.5111 6.71898V12.4862M13.7552 6.71898V12.4862M2.2207 13.6397L2.2207 14.2164C2.2207 14.6202 2.2207 14.822 2.29928 14.9762C2.36839 15.1119 2.47868 15.2222 2.61432 15.2913C2.76854 15.3699 2.97041 15.3699 3.37415 15.3699H14.0436C14.4473 15.3699 14.6492 15.3699 14.8034 15.2913C14.939 15.2222 15.0493 15.1119 15.1184 14.9762C15.197 14.822 15.197 14.6202 15.197 14.2164V13.6397C15.197 13.2359 15.197 13.0341 15.1184 12.8799C15.0493 12.7442 14.939 12.6339 14.8034 12.5648C14.6492 12.4862 14.4473 12.4862 14.0436 12.4862H3.37415C2.97041 12.4862 2.76854 12.4862 2.61432 12.5648C2.47868 12.6339 2.36839 12.7442 2.29928 12.8799C2.2207 13.0341 2.2207 13.2359 2.2207 13.6397ZM8.45864 2.44915L3.12393 3.63464C2.80165 3.70626 2.6405 3.74207 2.52021 3.82873C2.41412 3.90517 2.3308 4.00902 2.2792 4.12918C2.2207 4.2654 2.2207 4.43047 2.2207 4.76062L2.2207 5.56553C2.2207 5.96928 2.2207 6.17115 2.29928 6.32536C2.36839 6.46101 2.47868 6.57129 2.61432 6.64041C2.76854 6.71898 2.97041 6.71898 3.37415 6.71898H14.0436C14.4473 6.71898 14.6492 6.71898 14.8034 6.64041C14.939 6.57129 15.0493 6.46101 15.1184 6.32536C15.197 6.17115 15.197 5.96928 15.197 5.56553V4.76062C15.197 4.43047 15.197 4.2654 15.1385 4.12918C15.0869 4.00902 15.0036 3.90517 14.8975 3.82873C14.7772 3.74207 14.6161 3.70626 14.2938 3.63464L8.95908 2.44915C8.8657 2.4284 8.81901 2.41803 8.77183 2.41389C8.72993 2.41021 8.68779 2.41021 8.64588 2.41389C8.5987 2.41803 8.55202 2.4284 8.45864 2.44915Z" stroke-width="1.5045" stroke-linecap="round" stroke-linejoin="round"/>
</svg>