<svg width="19" height="18" viewBox="0 0 19 18" fill="none" xmlns="http://www.w3.org/2000/svg">
  <path d="M5.28597 8.1606V11.0442M13.9368 6.71879V9.60241M13.2159 3.11426C14.9812 3.11426 15.936 3.38443 16.4111 3.59398C16.4743 3.62189 16.506 3.63584 16.5973 3.72297C16.652 3.7752 16.7519 3.92844 16.7776 3.99959C16.8205 4.11829 16.8205 4.18317 16.8205 4.31294V12.0615C16.8205 12.7167 16.8205 13.0442 16.7222 13.2126C16.6223 13.3839 16.5259 13.4635 16.3389 13.5293C16.155 13.594 15.7838 13.5227 15.0414 13.3801C14.5218 13.2802 13.9055 13.2069 13.2159 13.2069C11.0532 13.2069 8.8905 14.6488 6.00688 14.6488C4.24159 14.6488 3.2868 14.3786 2.81173 14.169C2.74847 14.1411 2.71683 14.1272 2.62554 14.04C2.57081 13.9878 2.47091 13.8346 2.44522 13.7634C2.40234 13.6447 2.40234 13.5798 2.40234 13.4501L2.40234 5.70148C2.40234 5.04635 2.40234 4.71878 2.50059 4.55041C2.60052 4.37913 2.6969 4.29951 2.88395 4.23369C3.06784 4.16898 3.43903 4.2403 4.18142 4.38294C4.70104 4.48278 5.31731 4.55607 6.00688 4.55607C8.16959 4.55607 10.3323 3.11426 13.2159 3.11426ZM11.4137 8.88151C11.4137 9.87687 10.6068 10.6838 9.61141 10.6838C8.61604 10.6838 7.80914 9.87687 7.80914 8.88151C7.80914 7.88614 8.61604 7.07924 9.61141 7.07924C10.6068 7.07924 11.4137 7.88614 11.4137 8.88151Z" stroke-width="1.5045" stroke-linecap="round" stroke-linejoin="round"/>
</svg>