<svg width="19" height="18" viewBox="0 0 19 18" fill="none" xmlns="http://www.w3.org/2000/svg">
  <g clip-path="url(#clip0_3617_10342)">
    <path d="M8.07631 1.67267V5.03239C8.07631 5.18895 8.07631 5.26723 8.05245 5.32951C8.02995 5.38825 8.00015 5.4309 7.95274 5.47224C7.90247 5.51606 7.82106 5.54588 7.65824 5.60553C5.58841 6.36379 4.11133 8.35137 4.11133 10.6839C4.11133 13.67 6.53203 16.0907 9.51813 16.0907C12.5042 16.0907 14.9249 13.67 14.9249 10.6839C14.9249 8.35137 13.4478 6.36379 11.378 5.60553C11.2152 5.54588 11.1338 5.51606 11.0835 5.47224C11.0361 5.4309 11.0063 5.38825 10.9838 5.32951C10.9599 5.26723 10.9599 5.18895 10.9599 5.03239V1.67267M6.99495 1.67261H12.0413"  stroke-width="1.5045" stroke-linecap="round" stroke-linejoin="round"/>
  </g>
  <defs>
    <clipPath id="clip0_3617_10342">
      <rect width="17.3018" height="17.3018" fill="white" transform="translate(0.867188 0.230713)"/>
    </clipPath>
  </defs>
</svg>