<svg xmlns="http://www.w3.org/2000/svg" width="19" height="18" viewBox="0 0 19 18" fill="none">
  <g clip-path="url(#clip0_3690_8351)">
    <path d="M7.21802 4.61483V7.85977C7.21802 8.25694 7.21802 8.45552 7.16851 8.63954C7.12464 8.80259 7.05247 8.95667 6.9553 9.09475C6.84562 9.25059 6.69307 9.37772 6.38796 9.63198L3.72264 11.8531C3.41752 12.1073 3.26497 12.2345 3.15529 12.3903C3.05812 12.5284 2.98595 12.6825 2.94209 12.8455C2.89258 13.0295 2.89258 13.2281 2.89258 13.6253V13.8424C2.89258 14.6499 2.89258 15.0537 3.04973 15.3621C3.18796 15.6334 3.40853 15.8539 3.67982 15.9922C3.98824 16.1493 4.39199 16.1493 5.19948 16.1493H13.562C14.3695 16.1493 14.7732 16.1493 15.0816 15.9922C15.3529 15.8539 15.5735 15.6334 15.7117 15.3621C15.8689 15.0537 15.8689 14.6499 15.8689 13.8424V13.6253C15.8689 13.2281 15.8689 13.0295 15.8194 12.8455C15.7755 12.6825 15.7033 12.5284 15.6062 12.3903C15.4965 12.2345 15.3439 12.1073 15.0388 11.8531L12.3735 9.63198C12.0684 9.37772 11.9158 9.25059 11.8062 9.09475C11.709 8.95667 11.6368 8.80259 11.593 8.63954C11.5435 8.45552 11.5435 8.25694 11.5435 7.85977V4.61483M6.71338 4.61483H12.0481C12.25 4.61483 12.3509 4.61483 12.428 4.57554C12.4958 4.54098 12.551 4.48584 12.5855 4.41802C12.6248 4.34091 12.6248 4.23997 12.6248 4.0381V2.30793C12.6248 2.10605 12.6248 2.00512 12.5855 1.92801C12.551 1.86019 12.4958 1.80505 12.428 1.77049C12.3509 1.7312 12.25 1.7312 12.0481 1.7312H6.71338C6.51151 1.7312 6.41057 1.7312 6.33347 1.77049C6.26564 1.80505 6.2105 1.86019 6.17594 1.92801C6.13666 2.00512 6.13666 2.10605 6.13666 2.30793V4.0381C6.13666 4.23997 6.13666 4.34091 6.17594 4.41802C6.2105 4.48584 6.26564 4.54098 6.33347 4.57554C6.41057 4.61483 6.51151 4.61483 6.71338 4.61483ZM4.69484 12.5448H14.0666C14.4016 12.5448 14.5691 12.5448 14.7084 12.5725C15.2803 12.6863 15.7274 13.1334 15.8412 13.7053C15.8689 13.8446 15.8689 14.0121 15.8689 14.3471C15.8689 14.682 15.8689 14.8495 15.8412 14.9888C15.7274 15.5608 15.2803 16.0079 14.7084 16.1216C14.5691 16.1493 14.4016 16.1493 14.0666 16.1493H4.69484C4.35987 16.1493 4.19238 16.1493 4.05311 16.1216C3.48115 16.0079 3.03405 15.5608 2.92028 14.9888C2.89258 14.8495 2.89258 14.682 2.89258 14.3471C2.89258 14.0121 2.89258 13.8446 2.92028 13.7053C3.03405 13.1334 3.48115 12.6863 4.05311 12.5725C4.19238 12.5448 4.35987 12.5448 4.69484 12.5448Z" stroke-width="1.5045" stroke-linecap="round" stroke-linejoin="round"/>
  </g>
  <defs>
    <clipPath id="clip0_3690_8351">
      <rect width="17.3018" height="17.3018" fill="white" transform="translate(0.730469 0.289307)"/>
    </clipPath>
  </defs>
</svg>