<svg xmlns="http://www.w3.org/2000/svg" width="18" height="18" viewBox="0 0 18 18" fill="none">
  <g clip-path="url(#clip0_3692_3665)">
    <path d="M8.80281 15.2566L8.73068 15.1484C8.22991 14.3972 7.97953 14.0217 7.64872 13.7498C7.35585 13.5091 7.0184 13.3285 6.65567 13.2183C6.24594 13.0939 5.79455 13.0939 4.89177 13.0939H3.90065C3.09316 13.0939 2.68941 13.0939 2.38099 12.9367C2.1097 12.7985 1.88913 12.5779 1.7509 12.3066C1.59375 11.9982 1.59375 11.5945 1.59375 10.787V4.58717C1.59375 3.77968 1.59375 3.37594 1.7509 3.06752C1.88913 2.79622 2.1097 2.57565 2.38099 2.43742C2.68941 2.28027 3.09316 2.28027 3.90065 2.28027H4.18901C5.80399 2.28027 6.61148 2.28027 7.22833 2.59457C7.77092 2.87103 8.21205 3.31217 8.48852 3.85476C8.80281 4.4716 8.80281 5.27909 8.80281 6.89407M8.80281 15.2566V6.89407M8.80281 15.2566L8.87494 15.1484C9.37572 14.3972 9.6261 14.0217 9.95691 13.7498C10.2498 13.5091 10.5872 13.3285 10.95 13.2183C11.3597 13.0939 11.8111 13.0939 12.7139 13.0939H13.705C14.5125 13.0939 14.9162 13.0939 15.2246 12.9367C15.4959 12.7985 15.7165 12.5779 15.8547 12.3066C16.0119 11.9982 16.0119 11.5945 16.0119 10.787V4.58717C16.0119 3.77968 16.0119 3.37594 15.8547 3.06752C15.7165 2.79622 15.4959 2.57565 15.2246 2.43742C14.9162 2.28027 14.5125 2.28027 13.705 2.28027H13.4166C11.8016 2.28027 10.9941 2.28027 10.3773 2.59457C9.83471 2.87103 9.39357 3.31217 9.11711 3.85476C8.80281 4.4716 8.80281 5.27909 8.80281 6.89407" stroke-width="1.5045" stroke-linecap="round" stroke-linejoin="round"/>
  </g>
  <defs>
    <clipPath id="clip0_3692_3665">
      <rect width="17.3018" height="17.3018" fill="white" transform="translate(0.152344 0.117432)"/>
    </clipPath>
  </defs>
</svg>