<svg viewBox="0 0 40 48" fill="none" xmlns="http://www.w3.org/2000/svg">
  <path d="M38.9529 0.500977H7.09509C5.35554 0.500977 3.68725 1.19586 2.45721 2.43277C1.22716 3.66967 0.536133 5.34727 0.536133 7.09651V46.6697C0.536133 46.9196 0.634852 47.1593 0.810572 47.336C0.986292 47.5127 1.22462 47.612 1.47313 47.612H35.2049C35.4534 47.612 35.6917 47.5127 35.8674 47.336C36.0432 47.1593 36.1419 46.9196 36.1419 46.6697C36.1419 46.4198 36.0432 46.1802 35.8674 46.0035C35.6917 45.8268 35.4534 45.7275 35.2049 45.7275H2.41012V44.7853C2.41012 43.5358 2.90371 42.3376 3.78231 41.4541C4.66092 40.5705 5.85255 40.0742 7.09509 40.0742H38.9529C39.2014 40.0742 39.4397 39.9749 39.6154 39.7982C39.7911 39.6215 39.8898 39.3819 39.8898 39.132V1.4432C39.8898 1.1933 39.7911 0.953647 39.6154 0.776946C39.4397 0.600246 39.2014 0.500977 38.9529 0.500977ZM38.0159 38.1898H7.09509C6.2221 38.1895 5.35788 38.3648 4.5533 38.7054C3.74871 39.046 3.02002 39.5451 2.41012 40.1731V7.09651C2.41012 5.84705 2.90371 4.64877 3.78231 3.76526C4.66092 2.88176 5.85255 2.38542 7.09509 2.38542H38.0159V38.1898Z" />
</svg>