<svg  viewBox="0 0 16 16" fill="none" xmlns="http://www.w3.org/2000/svg">
  <path d="M13.4999 3.55469H9.72217C9.35562 3.55469 8.9941 3.63501 8.66625 3.78929C8.33839 3.94358 8.05321 4.16759 7.83328 4.44358C7.61335 4.16759 7.32816 3.94358 7.00031 3.78929C6.67246 3.63501 6.31094 3.55469 5.94439 3.55469H2.16661C1.91613 3.55469 1.67591 3.64834 1.49879 3.81504C1.32167 3.98174 1.22217 4.20783 1.22217 4.44358V11.5547C1.22217 11.7904 1.32167 12.0165 1.49879 12.1832C1.67591 12.3499 1.91613 12.4436 2.16661 12.4436H5.94439C6.32011 12.4436 6.68045 12.5841 6.94613 12.8341C7.2118 13.0841 7.36106 13.4233 7.36106 13.7769C7.36106 13.8948 7.41081 14.0078 7.49937 14.0912C7.58793 14.1745 7.70804 14.2214 7.83328 14.2214C7.95852 14.2214 8.07863 14.1745 8.16719 14.0912C8.25575 14.0078 8.3055 13.8948 8.3055 13.7769C8.3055 13.4233 8.45476 13.0841 8.72043 12.8341C8.98611 12.5841 9.34645 12.4436 9.72217 12.4436H13.4999C13.7504 12.4436 13.9907 12.3499 14.1678 12.1832C14.3449 12.0165 14.4444 11.7904 14.4444 11.5547V4.44358C14.4444 4.20783 14.3449 3.98174 14.1678 3.81504C13.9907 3.64834 13.7504 3.55469 13.4999 3.55469ZM5.94439 11.5547H2.16661V4.44358H5.94439C6.32011 4.44358 6.68045 4.58405 6.94613 4.8341C7.2118 5.08415 7.36106 5.42329 7.36106 5.77691V11.9991C6.95274 11.71 6.4554 11.5539 5.94439 11.5547ZM13.4999 11.5547H9.72217C9.21116 11.5539 8.71382 11.71 8.3055 11.9991V5.77691C8.3055 5.42329 8.45476 5.08415 8.72043 4.8341C8.98611 4.58405 9.34645 4.44358 9.72217 4.44358H13.4999V11.5547ZM9.72217 5.77691H12.0833C12.2085 5.77691 12.3286 5.82373 12.4172 5.90708C12.5058 5.99043 12.5555 6.10348 12.5555 6.22135C12.5555 6.33923 12.5058 6.45227 12.4172 6.53562C12.3286 6.61897 12.2085 6.6658 12.0833 6.6658H9.72217C9.59693 6.6658 9.47682 6.61897 9.38826 6.53562C9.2997 6.45227 9.24995 6.33923 9.24995 6.22135C9.24995 6.10348 9.2997 5.99043 9.38826 5.90708C9.47682 5.82373 9.59693 5.77691 9.72217 5.77691ZM12.5555 7.99913C12.5555 8.11701 12.5058 8.23005 12.4172 8.3134C12.3286 8.39675 12.2085 8.44358 12.0833 8.44358H9.72217C9.59693 8.44358 9.47682 8.39675 9.38826 8.3134C9.2997 8.23005 9.24995 8.11701 9.24995 7.99913C9.24995 7.88126 9.2997 7.76821 9.38826 7.68486C9.47682 7.60151 9.59693 7.55469 9.72217 7.55469H12.0833C12.2085 7.55469 12.3286 7.60151 12.4172 7.68486C12.5058 7.76821 12.5555 7.88126 12.5555 7.99913ZM12.5555 9.77691C12.5555 9.89478 12.5058 10.0078 12.4172 10.0912C12.3286 10.1745 12.2085 10.2214 12.0833 10.2214H9.72217C9.59693 10.2214 9.47682 10.1745 9.38826 10.0912C9.2997 10.0078 9.24995 9.89478 9.24995 9.77691C9.24995 9.65904 9.2997 9.54599 9.38826 9.46264C9.47682 9.37929 9.59693 9.33247 9.72217 9.33247H12.0833C12.2085 9.33247 12.3286 9.37929 12.4172 9.46264C12.5058 9.54599 12.5555 9.65904 12.5555 9.77691Z"/>
</svg>