<svg xmlns="http://www.w3.org/2000/svg" width="19" height="19" viewBox="0 0 19 19" fill="none">
  <g clip-path="url(#clip0_3696_4774)">
    <path d="M12.9163 5.86325C12.9163 5.16368 12.9163 4.81389 12.8394 4.52691C12.6307 3.74812 12.0224 3.13982 11.2436 2.93114C10.9566 2.85425 10.6068 2.85425 9.90727 2.85425C9.2077 2.85425 8.85791 2.85425 8.57093 2.93114C7.79214 3.13982 7.18384 3.74812 6.97516 4.52691C6.89827 4.81389 6.89827 5.16368 6.89827 5.86325M4.79197 16.3947H15.0226C15.8652 16.3947 16.2865 16.3947 16.6083 16.2308C16.8914 16.0865 17.1215 15.8564 17.2658 15.5733C17.4298 15.2514 17.4298 14.8301 17.4298 13.9875V8.27045C17.4298 7.42785 17.4298 7.00655 17.2658 6.68472C17.1215 6.40163 16.8914 6.17147 16.6083 6.02723C16.2865 5.86325 15.8652 5.86325 15.0226 5.86325H4.79197C3.94937 5.86325 3.52807 5.86325 3.20624 6.02723C2.92315 6.17147 2.69299 6.40163 2.54875 6.68472C2.38477 7.00655 2.38477 7.42785 2.38477 8.27045V13.9875C2.38477 14.8301 2.38477 15.2514 2.54875 15.5733C2.69299 15.8564 2.92315 16.0865 3.20624 16.2308C3.52807 16.3947 3.94937 16.3947 4.79197 16.3947Z" stroke-width="1.41047" stroke-linecap="round" stroke-linejoin="round"/>
  </g>
  <defs>
    <clipPath id="clip0_3696_4774">
      <rect width="18.054" height="18.054" fill="white" transform="translate(0.880859 0.597656)"/>
    </clipPath>
  </defs>
</svg>