<svg xmlns="http://www.w3.org/2000/svg" width="18" height="18" viewBox="0 0 18 18" fill="none">
  <g clip-path="url(#clip0_3692_9393)">
    <path d="M15.9181 6.60571H1.5M1.5 5.74062L1.5 11.7962C1.5 13.0075 1.5 13.6131 1.73572 14.0757C1.94307 14.4827 2.27392 14.8135 2.68086 15.0209C3.1435 15.2566 3.74911 15.2566 4.96035 15.2566H12.4578C13.669 15.2566 14.2746 15.2566 14.7373 15.0209C15.1442 14.8135 15.4751 14.4827 15.6824 14.0757C15.9181 13.6131 15.9181 13.0075 15.9181 11.7962V5.74062C15.9181 4.52939 15.9181 3.92377 15.6824 3.46114C15.4751 3.0542 15.1442 2.72334 14.7373 2.516C14.2746 2.28027 13.669 2.28027 12.4578 2.28027L4.96035 2.28027C3.74911 2.28027 3.1435 2.28027 2.68087 2.516C2.27392 2.72334 1.94307 3.0542 1.73572 3.46114C1.5 3.92377 1.5 4.52939 1.5 5.74062Z" stroke-width="1.5045" stroke-linecap="round" stroke-linejoin="round"/>
  </g>
  <defs>
    <clipPath id="clip0_3692_9393">
      <rect width="17.3018" height="17.3018" fill="white" transform="translate(0.0585938 0.117432)"/>
    </clipPath>
  </defs>
</svg>