<svg width="18" height="18" viewBox="0 0 18 18" fill="none" xmlns="http://www.w3.org/2000/svg">
  <g clip-path="url(#clip0_3617_8687)">
    <path d="M8.46081 8.04752H5.00046C4.19297 8.04752 3.78923 8.04752 3.48081 8.20467C3.20951 8.3429 2.98894 8.56347 2.85071 8.83477C2.69356 9.14319 2.69356 9.54693 2.69356 10.3544V15.2566M15.6699 15.2566V4.58717C15.6699 3.77968 15.6699 3.37594 15.5127 3.06752C15.3745 2.79622 15.1539 2.57565 14.8826 2.43742C14.5742 2.28027 14.1705 2.28027 13.363 2.28027H10.7677C9.96022 2.28027 9.55648 2.28027 9.24806 2.43742C8.97676 2.57565 8.75619 2.79622 8.61796 3.06752C8.46081 3.37594 8.46081 3.77968 8.46081 4.58717V15.2566M16.3908 15.2566H1.97266M10.984 5.1639H13.1467M10.984 8.04752H13.1467M10.984 10.9311H13.1467"  stroke-width="1.5045" stroke-linecap="round" stroke-linejoin="round"/>
  </g>
  <defs>
    <clipPath id="clip0_3617_8687">
      <rect width="17.3018" height="17.3018" fill="white" transform="translate(0.53125 0.117432)"/>
    </clipPath>
  </defs>
</svg>