<svg xmlns="http://www.w3.org/2000/svg" width="19" height="18" viewBox="0 0 19 18" fill="none">
  <path d="M6.36733 8.04752H4.2767C3.87295 8.04752 3.67108 8.04752 3.51687 8.1261C3.38122 8.19521 3.27094 8.3055 3.20182 8.44114C3.12325 8.59536 3.12325 8.79723 3.12325 9.20097V15.2566M12.8555 8.04752H14.9461C15.3499 8.04752 15.5517 8.04752 15.7059 8.1261C15.8416 8.19521 15.9519 8.3055 16.021 8.44114C16.0996 8.59536 16.0996 8.79723 16.0996 9.20097V15.2566M12.8555 15.2566V4.58717C12.8555 3.77968 12.8555 3.37594 12.6983 3.06752C12.5601 2.79622 12.3395 2.57565 12.0682 2.43742C11.7598 2.28027 11.3561 2.28027 10.5486 2.28027H8.67423C7.86674 2.28027 7.46299 2.28027 7.15457 2.43742C6.88328 2.57565 6.66271 2.79622 6.52448 3.06752C6.36733 3.37594 6.36733 3.77968 6.36733 4.58717V15.2566M16.8205 15.2566H2.40234M8.8905 5.1639H10.3323M8.8905 8.04752H10.3323M8.8905 10.9311H10.3323" stroke-width="1.5045" stroke-linecap="round" stroke-linejoin="round"/>
</svg>