<svg width="19" height="18" viewBox="0 0 19 18" fill="none" xmlns="http://www.w3.org/2000/svg">
<mask id="path-1-inside-1_3633_25703" fill="white">
<path d="M2.75 14.4C2.75 14.758 2.89223 15.1014 3.14541 15.3546C3.39858 15.6078 3.74196 15.75 4.1 15.75H14.9C15.258 15.75 15.6014 15.6078 15.8546 15.3546C16.1078 15.1014 16.25 14.758 16.25 14.4V7.65H2.75V14.4ZM12.2 9.3375C12.2 9.24799 12.2356 9.16214 12.2989 9.09885C12.3621 9.03556 12.448 9 12.5375 9H13.2125C13.302 9 13.3879 9.03556 13.4511 9.09885C13.5144 9.16214 13.55 9.24799 13.55 9.3375V10.0125C13.55 10.102 13.5144 10.1879 13.4511 10.2511C13.3879 10.3144 13.302 10.35 13.2125 10.35H12.5375C12.448 10.35 12.3621 10.3144 12.2989 10.2511C12.2356 10.1879 12.2 10.102 12.2 10.0125V9.3375ZM12.2 12.0375C12.2 11.948 12.2356 11.8621 12.2989 11.7989C12.3621 11.7356 12.448 11.7 12.5375 11.7H13.2125C13.302 11.7 13.3879 11.7356 13.4511 11.7989C13.5144 11.8621 13.55 11.948 13.55 12.0375V12.7125C13.55 12.802 13.5144 12.8879 13.4511 12.9511C13.3879 13.0144 13.302 13.05 13.2125 13.05H12.5375C12.448 13.05 12.3621 13.0144 12.2989 12.9511C12.2356 12.8879 12.2 12.802 12.2 12.7125V12.0375ZM8.825 9.3375C8.825 9.24799 8.86056 9.16214 8.92385 9.09885C8.98714 9.03556 9.07299 9 9.1625 9H9.8375C9.92701 9 10.0129 9.03556 10.0761 9.09885C10.1394 9.16214 10.175 9.24799 10.175 9.3375V10.0125C10.175 10.102 10.1394 10.1879 10.0761 10.2511C10.0129 10.3144 9.92701 10.35 9.8375 10.35H9.1625C9.07299 10.35 8.98714 10.3144 8.92385 10.2511C8.86056 10.1879 8.825 10.102 8.825 10.0125V9.3375ZM8.825 12.0375C8.825 11.948 8.86056 11.8621 8.92385 11.7989C8.98714 11.7356 9.07299 11.7 9.1625 11.7H9.8375C9.92701 11.7 10.0129 11.7356 10.0761 11.7989C10.1394 11.8621 10.175 11.948 10.175 12.0375V12.7125C10.175 12.802 10.1394 12.8879 10.0761 12.9511C10.0129 13.0144 9.92701 13.05 9.8375 13.05H9.1625C9.07299 13.05 8.98714 13.0144 8.92385 12.9511C8.86056 12.8879 8.825 12.802 8.825 12.7125V12.0375ZM5.45 9.3375C5.45 9.24799 5.48556 9.16214 5.54885 9.09885C5.61214 9.03556 5.69799 9 5.7875 9H6.4625C6.55201 9 6.63786 9.03556 6.70115 9.09885C6.76444 9.16214 6.8 9.24799 6.8 9.3375V10.0125C6.8 10.102 6.76444 10.1879 6.70115 10.2511C6.63786 10.3144 6.55201 10.35 6.4625 10.35H5.7875C5.69799 10.35 5.61214 10.3144 5.54885 10.2511C5.48556 10.1879 5.45 10.102 5.45 10.0125V9.3375ZM5.45 12.0375C5.45 11.948 5.48556 11.8621 5.54885 11.7989C5.61214 11.7356 5.69799 11.7 5.7875 11.7H6.4625C6.55201 11.7 6.63786 11.7356 6.70115 11.7989C6.76444 11.8621 6.8 11.948 6.8 12.0375V12.7125C6.8 12.802 6.76444 12.8879 6.70115 12.9511C6.63786 13.0144 6.55201 13.05 6.4625 13.05H5.7875C5.69799 13.05 5.61214 13.0144 5.54885 12.9511C5.48556 12.8879 5.45 12.802 5.45 12.7125V12.0375Z"/>
<path d="M16.25 4.95C16.25 4.59196 16.1078 4.24858 15.8546 3.99541C15.6014 3.74223 15.258 3.6 14.9 3.6H13.55V2.925C13.55 2.74598 13.4789 2.57429 13.3523 2.4477C13.2257 2.32112 13.054 2.25 12.875 2.25C12.696 2.25 12.5243 2.32112 12.3977 2.4477C12.2711 2.57429 12.2 2.74598 12.2 2.925V3.6H10.175V2.925C10.175 2.74598 10.1039 2.57429 9.9773 2.4477C9.85071 2.32112 9.67902 2.25 9.5 2.25C9.32098 2.25 9.14929 2.32112 9.0227 2.4477C8.89612 2.57429 8.825 2.74598 8.825 2.925V3.6H6.8V2.925C6.8 2.74598 6.72888 2.57429 6.6023 2.4477C6.47571 2.32112 6.30402 2.25 6.125 2.25C5.94598 2.25 5.77429 2.32112 5.6477 2.4477C5.52112 2.57429 5.45 2.74598 5.45 2.925V3.6H4.1C3.74196 3.6 3.39858 3.74223 3.14541 3.99541C2.89223 4.24858 2.75 4.59196 2.75 4.95V6.3H16.25V4.95Z"/>
</mask>
<path d="M2.75 14.4C2.75 14.758 2.89223 15.1014 3.14541 15.3546C3.39858 15.6078 3.74196 15.75 4.1 15.75H14.9C15.258 15.75 15.6014 15.6078 15.8546 15.3546C16.1078 15.1014 16.25 14.758 16.25 14.4V7.65H2.75V14.4ZM12.2 9.3375C12.2 9.24799 12.2356 9.16214 12.2989 9.09885C12.3621 9.03556 12.448 9 12.5375 9H13.2125C13.302 9 13.3879 9.03556 13.4511 9.09885C13.5144 9.16214 13.55 9.24799 13.55 9.3375V10.0125C13.55 10.102 13.5144 10.1879 13.4511 10.2511C13.3879 10.3144 13.302 10.35 13.2125 10.35H12.5375C12.448 10.35 12.3621 10.3144 12.2989 10.2511C12.2356 10.1879 12.2 10.102 12.2 10.0125V9.3375ZM12.2 12.0375C12.2 11.948 12.2356 11.8621 12.2989 11.7989C12.3621 11.7356 12.448 11.7 12.5375 11.7H13.2125C13.302 11.7 13.3879 11.7356 13.4511 11.7989C13.5144 11.8621 13.55 11.948 13.55 12.0375V12.7125C13.55 12.802 13.5144 12.8879 13.4511 12.9511C13.3879 13.0144 13.302 13.05 13.2125 13.05H12.5375C12.448 13.05 12.3621 13.0144 12.2989 12.9511C12.2356 12.8879 12.2 12.802 12.2 12.7125V12.0375ZM8.825 9.3375C8.825 9.24799 8.86056 9.16214 8.92385 9.09885C8.98714 9.03556 9.07299 9 9.1625 9H9.8375C9.92701 9 10.0129 9.03556 10.0761 9.09885C10.1394 9.16214 10.175 9.24799 10.175 9.3375V10.0125C10.175 10.102 10.1394 10.1879 10.0761 10.2511C10.0129 10.3144 9.92701 10.35 9.8375 10.35H9.1625C9.07299 10.35 8.98714 10.3144 8.92385 10.2511C8.86056 10.1879 8.825 10.102 8.825 10.0125V9.3375ZM8.825 12.0375C8.825 11.948 8.86056 11.8621 8.92385 11.7989C8.98714 11.7356 9.07299 11.7 9.1625 11.7H9.8375C9.92701 11.7 10.0129 11.7356 10.0761 11.7989C10.1394 11.8621 10.175 11.948 10.175 12.0375V12.7125C10.175 12.802 10.1394 12.8879 10.0761 12.9511C10.0129 13.0144 9.92701 13.05 9.8375 13.05H9.1625C9.07299 13.05 8.98714 13.0144 8.92385 12.9511C8.86056 12.8879 8.825 12.802 8.825 12.7125V12.0375ZM5.45 9.3375C5.45 9.24799 5.48556 9.16214 5.54885 9.09885C5.61214 9.03556 5.69799 9 5.7875 9H6.4625C6.55201 9 6.63786 9.03556 6.70115 9.09885C6.76444 9.16214 6.8 9.24799 6.8 9.3375V10.0125C6.8 10.102 6.76444 10.1879 6.70115 10.2511C6.63786 10.3144 6.55201 10.35 6.4625 10.35H5.7875C5.69799 10.35 5.61214 10.3144 5.54885 10.2511C5.48556 10.1879 5.45 10.102 5.45 10.0125V9.3375ZM5.45 12.0375C5.45 11.948 5.48556 11.8621 5.54885 11.7989C5.61214 11.7356 5.69799 11.7 5.7875 11.7H6.4625C6.55201 11.7 6.63786 11.7356 6.70115 11.7989C6.76444 11.8621 6.8 11.948 6.8 12.0375V12.7125C6.8 12.802 6.76444 12.8879 6.70115 12.9511C6.63786 13.0144 6.55201 13.05 6.4625 13.05H5.7875C5.69799 13.05 5.61214 13.0144 5.54885 12.9511C5.48556 12.8879 5.45 12.802 5.45 12.7125V12.0375Z" fill="#6B7280"/>
<path d="M16.25 4.95C16.25 4.59196 16.1078 4.24858 15.8546 3.99541C15.6014 3.74223 15.258 3.6 14.9 3.6H13.55V2.925C13.55 2.74598 13.4789 2.57429 13.3523 2.4477C13.2257 2.32112 13.054 2.25 12.875 2.25C12.696 2.25 12.5243 2.32112 12.3977 2.4477C12.2711 2.57429 12.2 2.74598 12.2 2.925V3.6H10.175V2.925C10.175 2.74598 10.1039 2.57429 9.9773 2.4477C9.85071 2.32112 9.67902 2.25 9.5 2.25C9.32098 2.25 9.14929 2.32112 9.0227 2.4477C8.89612 2.57429 8.825 2.74598 8.825 2.925V3.6H6.8V2.925C6.8 2.74598 6.72888 2.57429 6.6023 2.4477C6.47571 2.32112 6.30402 2.25 6.125 2.25C5.94598 2.25 5.77429 2.32112 5.6477 2.4477C5.52112 2.57429 5.45 2.74598 5.45 2.925V3.6H4.1C3.74196 3.6 3.39858 3.74223 3.14541 3.99541C2.89223 4.24858 2.75 4.59196 2.75 4.95V6.3H16.25V4.95Z" fill="#6B7280"/>
<path d="M2.75 14.4C2.75 14.758 2.89223 15.1014 3.14541 15.3546C3.39858 15.6078 3.74196 15.75 4.1 15.75H14.9C15.258 15.75 15.6014 15.6078 15.8546 15.3546C16.1078 15.1014 16.25 14.758 16.25 14.4V7.65H2.75V14.4ZM12.2 9.3375C12.2 9.24799 12.2356 9.16214 12.2989 9.09885C12.3621 9.03556 12.448 9 12.5375 9H13.2125C13.302 9 13.3879 9.03556 13.4511 9.09885C13.5144 9.16214 13.55 9.24799 13.55 9.3375V10.0125C13.55 10.102 13.5144 10.1879 13.4511 10.2511C13.3879 10.3144 13.302 10.35 13.2125 10.35H12.5375C12.448 10.35 12.3621 10.3144 12.2989 10.2511C12.2356 10.1879 12.2 10.102 12.2 10.0125V9.3375ZM12.2 12.0375C12.2 11.948 12.2356 11.8621 12.2989 11.7989C12.3621 11.7356 12.448 11.7 12.5375 11.7H13.2125C13.302 11.7 13.3879 11.7356 13.4511 11.7989C13.5144 11.8621 13.55 11.948 13.55 12.0375V12.7125C13.55 12.802 13.5144 12.8879 13.4511 12.9511C13.3879 13.0144 13.302 13.05 13.2125 13.05H12.5375C12.448 13.05 12.3621 13.0144 12.2989 12.9511C12.2356 12.8879 12.2 12.802 12.2 12.7125V12.0375ZM8.825 9.3375C8.825 9.24799 8.86056 9.16214 8.92385 9.09885C8.98714 9.03556 9.07299 9 9.1625 9H9.8375C9.92701 9 10.0129 9.03556 10.0761 9.09885C10.1394 9.16214 10.175 9.24799 10.175 9.3375V10.0125C10.175 10.102 10.1394 10.1879 10.0761 10.2511C10.0129 10.3144 9.92701 10.35 9.8375 10.35H9.1625C9.07299 10.35 8.98714 10.3144 8.92385 10.2511C8.86056 10.1879 8.825 10.102 8.825 10.0125V9.3375ZM8.825 12.0375C8.825 11.948 8.86056 11.8621 8.92385 11.7989C8.98714 11.7356 9.07299 11.7 9.1625 11.7H9.8375C9.92701 11.7 10.0129 11.7356 10.0761 11.7989C10.1394 11.8621 10.175 11.948 10.175 12.0375V12.7125C10.175 12.802 10.1394 12.8879 10.0761 12.9511C10.0129 13.0144 9.92701 13.05 9.8375 13.05H9.1625C9.07299 13.05 8.98714 13.0144 8.92385 12.9511C8.86056 12.8879 8.825 12.802 8.825 12.7125V12.0375ZM5.45 9.3375C5.45 9.24799 5.48556 9.16214 5.54885 9.09885C5.61214 9.03556 5.69799 9 5.7875 9H6.4625C6.55201 9 6.63786 9.03556 6.70115 9.09885C6.76444 9.16214 6.8 9.24799 6.8 9.3375V10.0125C6.8 10.102 6.76444 10.1879 6.70115 10.2511C6.63786 10.3144 6.55201 10.35 6.4625 10.35H5.7875C5.69799 10.35 5.61214 10.3144 5.54885 10.2511C5.48556 10.1879 5.45 10.102 5.45 10.0125V9.3375ZM5.45 12.0375C5.45 11.948 5.48556 11.8621 5.54885 11.7989C5.61214 11.7356 5.69799 11.7 5.7875 11.7H6.4625C6.55201 11.7 6.63786 11.7356 6.70115 11.7989C6.76444 11.8621 6.8 11.948 6.8 12.0375V12.7125C6.8 12.802 6.76444 12.8879 6.70115 12.9511C6.63786 13.0144 6.55201 13.05 6.4625 13.05H5.7875C5.69799 13.05 5.61214 13.0144 5.54885 12.9511C5.48556 12.8879 5.45 12.802 5.45 12.7125V12.0375Z" stroke="#6B7280" stroke-width="2" mask="url(#path-1-inside-1_3633_25703)"/>
<path d="M16.25 4.95C16.25 4.59196 16.1078 4.24858 15.8546 3.99541C15.6014 3.74223 15.258 3.6 14.9 3.6H13.55V2.925C13.55 2.74598 13.4789 2.57429 13.3523 2.4477C13.2257 2.32112 13.054 2.25 12.875 2.25C12.696 2.25 12.5243 2.32112 12.3977 2.4477C12.2711 2.57429 12.2 2.74598 12.2 2.925V3.6H10.175V2.925C10.175 2.74598 10.1039 2.57429 9.9773 2.4477C9.85071 2.32112 9.67902 2.25 9.5 2.25C9.32098 2.25 9.14929 2.32112 9.0227 2.4477C8.89612 2.57429 8.825 2.74598 8.825 2.925V3.6H6.8V2.925C6.8 2.74598 6.72888 2.57429 6.6023 2.4477C6.47571 2.32112 6.30402 2.25 6.125 2.25C5.94598 2.25 5.77429 2.32112 5.6477 2.4477C5.52112 2.57429 5.45 2.74598 5.45 2.925V3.6H4.1C3.74196 3.6 3.39858 3.74223 3.14541 3.99541C2.89223 4.24858 2.75 4.59196 2.75 4.95V6.3H16.25V4.95Z" stroke="#6B7280" stroke-width="2" mask="url(#path-1-inside-1_3633_25703)"/>
</svg>
