<svg width="21" height="20" viewBox="0 0 21 20" fill="none" xmlns="http://www.w3.org/2000/svg">
<g clip-path="url(#clip0_4639_66797)">
<path d="M17.6953 8.46395H2.93164M13.5942 1.90234V5.18315M7.03264 1.90234V5.18315M6.8686 18.3064H13.7583C15.1364 18.3064 15.8254 18.3064 16.3517 18.0382C16.8147 17.8023 17.1912 17.4258 17.4271 16.9628C17.6953 16.4365 17.6953 15.7475 17.6953 14.3694V7.47971C17.6953 6.10164 17.6953 5.41261 17.4271 4.88626C17.1912 4.42326 16.8147 4.04684 16.3517 3.81093C15.8254 3.54274 15.1364 3.54274 13.7583 3.54274H6.8686C5.49054 3.54274 4.8015 3.54274 4.27515 3.81093C3.81216 4.04684 3.43574 4.42326 3.19983 4.88626C2.93164 5.41261 2.93164 6.10164 2.93164 7.47971V14.3694C2.93164 15.7475 2.93164 16.4365 3.19983 16.9628C3.43574 17.4258 3.81216 17.8023 4.27515 18.0382C4.8015 18.3064 5.49054 18.3064 6.8686 18.3064Z" stroke="#344054" stroke-width="1.6404" stroke-linecap="round" stroke-linejoin="round"/>
</g>
<defs>
<clipPath id="clip0_4639_66797">
<rect width="19.6848" height="19.6848" fill="white" transform="translate(0.471191 0.261719)"/>
</clipPath>
</defs>
</svg>