<svg viewBox="0 0 29 29" fill="none" xmlns="http://www.w3.org/2000/svg">
  <path d="M25.4403 12.2728H4.21973M19.5457 2.84143V7.55712M10.1143 2.84143V7.55712M13.0616 16.9885L14.83 15.8096V21.7042M13.3564 21.7042H16.3037M9.87855 26.4199H19.7815C21.7623 26.4199 22.7527 26.4199 23.5092 26.0344C24.1747 25.6953 24.7157 25.1542 25.0548 24.4888C25.4403 23.7322 25.4403 22.7418 25.4403 20.761V10.8581C25.4403 8.87732 25.4403 7.88694 25.0548 7.13038C24.7157 6.4649 24.1747 5.92384 23.5092 5.58476C22.7527 5.19927 21.7623 5.19927 19.7815 5.19927H9.87855C7.89778 5.19927 6.90739 5.19927 6.15083 5.58476C5.48535 5.92384 4.94429 6.4649 4.60521 7.13038C4.21973 7.88694 4.21973 8.87732 4.21973 10.8581V20.761C4.21973 22.7418 4.21973 23.7322 4.60521 24.4888C4.94429 25.1542 5.48535 25.6953 6.15083 26.0344C6.90739 26.4199 7.89778 26.4199 9.87855 26.4199Z" stroke="black" stroke-linecap="round" stroke-linejoin="round"/>
</svg>