<svg xmlns="http://www.w3.org/2000/svg" width="18" height="18" viewBox="0 0 18 18" fill="none">
  <g clip-path="url(#clip0_3692_11009)">
    <path d="M1.97266 6.04538C1.97266 5.79283 1.97266 5.66656 1.98319 5.5602C2.08483 4.53439 2.89633 3.72289 3.92214 3.62125C4.0285 3.61072 4.16159 3.61072 4.42776 3.61072C4.53033 3.61072 4.58161 3.61072 4.62515 3.60808C5.18113 3.57441 5.66799 3.2235 5.87575 2.7067C5.89202 2.66623 5.90723 2.6206 5.93764 2.52936C5.96806 2.43811 5.98326 2.39249 5.99953 2.35202C6.20729 1.83521 6.69415 1.48431 7.25013 1.45063C7.29367 1.448 7.34176 1.448 7.43795 1.448H10.9255C11.0217 1.448 11.0698 1.448 11.1133 1.45063C11.6693 1.48431 12.1561 1.83521 12.3639 2.35202C12.3802 2.39249 12.3954 2.43811 12.4258 2.52936C12.4562 2.6206 12.4714 2.66623 12.4877 2.7067C12.6955 3.2235 13.1823 3.57441 13.7383 3.60808C13.7818 3.61072 13.8331 3.61072 13.9357 3.61072C14.2019 3.61072 14.3349 3.61072 14.4413 3.62125C15.4671 3.72289 16.2786 4.53439 16.3802 5.5602C16.3908 5.66656 16.3908 5.79283 16.3908 6.04538V11.6849C16.3908 12.8961 16.3908 13.5017 16.1551 13.9644C15.9477 14.3713 15.6169 14.7021 15.2099 14.9095C14.7473 15.1452 14.1417 15.1452 12.9304 15.1452H5.43301C4.22177 15.1452 3.61615 15.1452 3.15352 14.9095C2.74658 14.7021 2.41573 14.3713 2.20838 13.9644C1.97266 13.5017 1.97266 12.8961 1.97266 11.6849V6.04538Z" stroke-width="1.5045" stroke-linecap="round" stroke-linejoin="round"/>
    <path d="M9.18172 11.9011C10.7743 11.9011 12.0653 10.6101 12.0653 9.01751C12.0653 7.42493 10.7743 6.13389 9.18172 6.13389C7.58914 6.13389 6.29809 7.42493 6.29809 9.01751C6.29809 10.6101 7.58914 11.9011 9.18172 11.9011Z" stroke-width="1.5045" stroke-linecap="round" stroke-linejoin="round"/>
  </g>
  <defs>
    <clipPath id="clip0_3692_11009">
      <rect width="17.3018" height="17.3018" fill="white" transform="translate(0.53125 0.00610352)"/>
    </clipPath>
  </defs>
</svg>