<svg xmlns="http://www.w3.org/2000/svg" width="19" height="18" viewBox="0 0 19 18" fill="none">
  <path d="M14.564 7.32662V4.58717C14.564 3.77968 14.564 3.37594 14.4069 3.06752C14.2686 2.79622 14.0481 2.57565 13.7768 2.43742C13.4683 2.28027 13.0646 2.28027 12.2571 2.28027H6.77821C5.97072 2.28027 5.56698 2.28027 5.25856 2.43742C4.98726 2.57565 4.76669 2.79622 4.62846 3.06752C4.47131 3.37594 4.47131 3.77968 4.47131 4.58717V7.32662M4.47131 6.60571H2.30859V5.8848M14.564 6.60571H16.7267V5.8848M5.19222 9.84979H5.19943M13.8431 9.84979H13.8503M5.76894 7.32662H13.2664C14.4776 7.32662 15.0832 7.32662 15.5459 7.56234C15.9528 7.76969 16.2837 8.10054 16.491 8.50748C16.7267 8.97011 16.7267 9.57573 16.7267 10.787V13.0939C16.7267 13.7657 16.7267 14.1016 16.617 14.3665C16.4706 14.7198 16.1899 15.0005 15.8367 15.1468C15.5717 15.2566 15.2358 15.2566 14.564 15.2566H14.1315C13.8636 15.2566 13.7296 15.2566 13.6175 15.2388C13.0006 15.1411 12.5167 14.6573 12.419 14.0403C12.4013 13.9282 12.4013 13.7943 12.4013 13.5264C12.4013 13.4594 12.4013 13.426 12.3968 13.3979C12.3724 13.2437 12.2515 13.1227 12.0972 13.0983C12.0692 13.0939 12.0357 13.0939 11.9687 13.0939H7.06658C6.9996 13.0939 6.96612 13.0939 6.9381 13.0983C6.78386 13.1227 6.6629 13.2437 6.63847 13.3979C6.63403 13.426 6.63403 13.4594 6.63403 13.5264C6.63403 13.7943 6.63403 13.9282 6.61628 14.0403C6.51857 14.6573 6.03471 15.1411 5.41777 15.2388C5.30569 15.2566 5.17175 15.2566 4.90386 15.2566H4.47131C3.79951 15.2566 3.46361 15.2566 3.19865 15.1468C2.84536 15.0005 2.56468 14.7198 2.41835 14.3665C2.30859 14.1016 2.30859 13.7657 2.30859 13.0939V10.787C2.30859 9.57573 2.30859 8.97011 2.54432 8.50748C2.75166 8.10054 3.08252 7.76969 3.48946 7.56234C3.95209 7.32662 4.55771 7.32662 5.76894 7.32662ZM5.55267 9.84979C5.55267 10.0489 5.39129 10.2102 5.19222 10.2102C4.99315 10.2102 4.83177 10.0489 4.83177 9.84979C4.83177 9.65072 4.99315 9.48934 5.19222 9.48934C5.39129 9.48934 5.55267 9.65072 5.55267 9.84979ZM14.2035 9.84979C14.2035 10.0489 14.0422 10.2102 13.8431 10.2102C13.644 10.2102 13.4826 10.0489 13.4826 9.84979C13.4826 9.65072 13.644 9.48934 13.8431 9.48934C14.0422 9.48934 14.2035 9.65072 14.2035 9.84979Z" stroke-width="1.5045" stroke-linecap="round" stroke-linejoin="round"/>
</svg>