<svg xmlns="http://www.w3.org/2000/svg" width="18" height="18" viewBox="0 0 18 18" fill="none">
  <g clip-path="url(#clip0_3696_8060)">
    <path d="M4.74388 14.4243H3.66252C2.86622 14.4243 2.2207 13.7788 2.2207 12.9825V2.88981C2.2207 2.09352 2.86622 1.448 3.66252 1.448H13.7552C14.5515 1.448 15.197 2.09352 15.197 2.88981V12.9825C15.197 13.7788 14.5515 14.4243 13.7552 14.4243H12.6738M8.70886 13.7034C9.9033 13.7034 10.8716 12.7351 10.8716 11.5407C10.8716 10.3462 9.9033 9.37797 8.70886 9.37797C7.51442 9.37797 6.54614 10.3462 6.54614 11.5407C6.54614 12.7351 7.51442 13.7034 8.70886 13.7034ZM8.70886 13.7034L8.72432 13.7033L6.42263 16.0049L4.3836 13.9659L6.56031 11.7892M8.70886 13.7034L11.0106 16.0049L13.0496 13.9659L10.8729 11.7892M6.54614 4.33162H10.8716M5.10433 6.85479H12.3134" stroke-width="1.5045" stroke-linecap="round" stroke-linejoin="round"/>
  </g>
  <defs>
    <clipPath id="clip0_3696_8060">
      <rect width="17.3018" height="17.3018" fill="white" transform="translate(0.0585938 0.00610352)"/>
    </clipPath>
  </defs>
</svg>