<svg width="18" height="15" viewBox="0 0 18 15" fill="none" xmlns="http://www.w3.org/2000/svg">
<path d="M16.7144 6.11608H4.39019L7.33817 2.90652C7.46096 2.7774 7.55891 2.62295 7.62629 2.45218C7.69367 2.28141 7.72913 2.09774 7.73061 1.91188C7.7321 1.72603 7.69957 1.54171 7.63492 1.36969C7.57028 1.19767 7.47482 1.04139 7.35411 0.909968C7.23339 0.778545 7.08985 0.674611 6.93185 0.604232C6.77385 0.533853 6.60456 0.498438 6.43385 0.500053C6.26314 0.501668 6.09444 0.540281 5.93759 0.613639C5.78073 0.686997 5.63887 0.793631 5.52027 0.927318L0.377706 6.5262C0.257979 6.65622 0.162988 6.81068 0.098175 6.98073C0.033362 7.15079 0 7.33309 0 7.5172C0 7.70131 0.033362 7.88361 0.098175 8.05367C0.162988 8.22372 0.257979 8.37818 0.377706 8.5082L5.52027 14.1071C5.76275 14.3621 6.0875 14.5031 6.42459 14.4999C6.76169 14.4968 7.08414 14.3496 7.32251 14.09C7.56088 13.8305 7.69609 13.4794 7.69902 13.1124C7.70195 12.7454 7.57236 12.3919 7.33817 12.1279L4.39019 8.91552H16.7144C17.0553 8.91552 17.3823 8.76805 17.6234 8.50555C17.8645 8.24305 18 7.88703 18 7.5158C18 7.14457 17.8645 6.78855 17.6234 6.52605C17.3823 6.26355 17.0553 6.11608 16.7144 6.11608Z" fill="#1F2A37"/>
</svg>
