<svg viewBox="0 0 32 32" fill="none" xmlns="http://www.w3.org/2000/svg">
  <path d="M16.75 10V15.575L21.3862 18.3563C21.557 18.4587 21.68 18.6248 21.7283 18.818C21.7766 19.0111 21.7462 19.2156 21.6437 19.3863C21.5413 19.557 21.3752 19.6801 21.1821 19.7284C20.9889 19.7766 20.7845 19.7462 20.6138 19.6438L15.6138 16.6438C15.5027 16.5771 15.4108 16.4827 15.347 16.3699C15.2833 16.257 15.2499 16.1296 15.25 16V10C15.25 9.80113 15.329 9.61036 15.4697 9.46971C15.6103 9.32906 15.8011 9.25004 16 9.25004C16.1989 9.25004 16.3897 9.32906 16.5303 9.46971C16.671 9.61036 16.75 9.80113 16.75 10ZM16 4.25004C14.4557 4.24603 12.9259 4.54845 11.4992 5.13979C10.0726 5.73114 8.7774 6.59965 7.68875 7.69504C6.61625 8.78004 5.68875 9.82004 4.75 10.92V8.00004C4.75 7.80113 4.67098 7.61036 4.53033 7.46971C4.38968 7.32906 4.19891 7.25004 4 7.25004C3.80109 7.25004 3.61032 7.32906 3.46967 7.46971C3.32902 7.61036 3.25 7.80113 3.25 8.00004V13C3.25 13.199 3.32902 13.3897 3.46967 13.5304C3.61032 13.671 3.80109 13.75 4 13.75H9C9.19891 13.75 9.38968 13.671 9.53033 13.5304C9.67098 13.3897 9.75 13.199 9.75 13C9.75 12.8011 9.67098 12.6104 9.53033 12.4697C9.38968 12.3291 9.19891 12.25 9 12.25H5.59125C6.6075 11.0363 7.59875 9.91879 8.75 8.75004C10.1746 7.32552 11.9874 6.35241 13.9619 5.95227C15.9364 5.55214 17.985 5.74274 19.8518 6.50026C21.7185 7.25778 23.3207 8.54862 24.458 10.2115C25.5954 11.8744 26.2175 13.8355 26.2466 15.8499C26.2757 17.8644 25.7105 19.8427 24.6217 21.5377C23.5329 23.2328 21.9687 24.5694 20.1246 25.3805C18.2805 26.1917 16.2383 26.4414 14.253 26.0985C12.2678 25.7556 10.4277 24.8353 8.9625 23.4525C8.89141 23.3825 8.80704 23.3273 8.71435 23.2902C8.62166 23.2532 8.5225 23.235 8.42269 23.2368C8.32289 23.2386 8.22444 23.2602 8.13312 23.3006C8.0418 23.3409 7.95945 23.399 7.89089 23.4716C7.82233 23.5441 7.76894 23.6296 7.73386 23.7231C7.69877 23.8165 7.6827 23.9161 7.68657 24.0158C7.69045 24.1155 7.7142 24.2135 7.75643 24.304C7.79866 24.3944 7.85852 24.4755 7.9325 24.5425C9.327 25.8595 11.0227 26.8151 12.8716 27.3259C14.7204 27.8366 16.6662 27.8869 18.539 27.4725C20.4118 27.058 22.1547 26.1914 23.6154 24.9483C25.0762 23.7052 26.2104 22.1233 26.919 20.3409C27.6276 18.5585 27.8891 16.6297 27.6806 14.723C27.4721 12.8162 26.8 10.9895 25.723 9.40232C24.646 7.81514 23.1968 6.51577 21.5019 5.61765C19.8071 4.71954 17.9181 4.25 16 4.25004Z"/>
</svg>