<svg xmlns="http://www.w3.org/2000/svg" width="18" height="19" viewBox="0 0 18 19" fill="none">
  <g clip-path="url(#clip0_3696_1132)">
    <path d="M8.80281 15.5374C9.56806 16.2224 10.5786 16.6388 11.6864 16.6388C14.0753 16.6388 16.0119 14.7023 16.0119 12.3134C16.0119 10.3187 14.6617 8.63935 12.8253 8.13947M4.78028 8.13946C2.94396 8.63935 1.59375 10.3187 1.59375 12.3134C1.59375 14.7023 3.53031 16.6388 5.91919 16.6388C8.30806 16.6388 10.2446 14.7023 10.2446 12.3134C10.2446 11.7507 10.1372 11.2132 9.94172 10.7201M13.1283 6.54614C13.1283 8.93501 11.1917 10.8716 8.80281 10.8716C6.41394 10.8716 4.47738 8.93501 4.47738 6.54614C4.47738 4.15727 6.41394 2.2207 8.80281 2.2207C11.1917 2.2207 13.1283 4.15727 13.1283 6.54614Z" stroke-width="1.5045" stroke-linecap="round" stroke-linejoin="round"/>
  </g>
  <defs>
    <clipPath id="clip0_3696_1132">
      <rect width="17.3018" height="17.3018" fill="white" transform="translate(0.152344 0.779297)"/>
    </clipPath>
  </defs>
</svg>