<svg width="25" height="24" viewBox="0 0 25 24" fill="none" xmlns="http://www.w3.org/2000/svg">
  <path d="M12.9277 12L21.9277 12M12.9277 3L12.9277 21M8.72773 3H17.1277C18.8079 3 19.648 3 20.2897 3.32698C20.8542 3.6146 21.3131 4.07354 21.6008 4.63803C21.9277 5.27976 21.9277 6.11984 21.9277 7.8V16.2C21.9277 17.8802 21.9277 18.7202 21.6008 19.362C21.3131 19.9265 20.8542 20.3854 20.2897 20.673C19.648 21 18.8079 21 17.1277 21H8.72773C7.04758 21 6.2075 21 5.56576 20.673C5.00128 20.3854 4.54233 19.9265 4.25471 19.362C3.92773 18.7202 3.92773 17.8802 3.92773 16.2V7.8C3.92773 6.11984 3.92773 5.27976 4.25471 4.63803C4.54233 4.07354 5.00128 3.6146 5.56576 3.32698C6.2075 3 7.04758 3 8.72773 3Z" stroke="#667085" stroke-linecap="round" stroke-linejoin="round"/>
</svg>