<svg width="16" height="17" viewBox="0 0 16 17" fill="none" xmlns="http://www.w3.org/2000/svg">
<path d="M10.8333 3.67544V4.17544H11.3333H14.6667C14.7466 4.17544 14.8287 4.20861 14.8934 4.27674L15.2272 3.95969L14.8934 4.27674C14.959 4.34574 15 4.44455 15 4.55263C15 4.66071 14.959 4.75953 14.8934 4.82853L15.2559 5.1729L14.8934 4.82853C14.8287 4.89666 14.7466 4.92983 14.6667 4.92983H13.8333H13.3333V5.42983V15.0789C13.3333 15.4197 13.2045 15.7416 12.9827 15.9751C12.7617 16.2077 12.4676 16.3333 12.1667 16.3333H3.83333C3.53243 16.3333 3.23833 16.2077 3.01732 15.9751C2.79549 15.7416 2.66667 15.4197 2.66667 15.0789V5.42983V4.92983H2.16667H1.33333C1.25344 4.92983 1.1713 4.89666 1.10658 4.82853C1.04103 4.75953 1 4.66071 1 4.55263C1 4.44455 1.04103 4.34574 1.10658 4.27674L0.744078 3.93236L1.10658 4.27674C1.1713 4.20861 1.25344 4.17544 1.33333 4.17544H4.66667H5.16667V3.67544V1.92105C5.16667 1.58033 5.29549 1.2584 5.51732 1.02489C5.73833 0.792254 6.03243 0.666667 6.33333 0.666667H9.66667C9.96757 0.666667 10.2617 0.792254 10.4827 1.02489C10.7045 1.2584 10.8333 1.58033 10.8333 1.92105V3.67544ZM6.33333 1.42105H5.83333V1.92105V3.67544V4.17544H6.33333H9.66667H10.1667V3.67544V1.92105V1.42105H9.66667H6.33333ZM12.1667 15.5789H12.6667V15.0789V5.42983V4.92983H12.1667H3.83333H3.33333V5.42983V15.0789V15.5789H3.83333H12.1667ZM6.10658 6.90832C6.1713 6.84019 6.25344 6.80702 6.33333 6.80702C6.41322 6.80702 6.49537 6.84019 6.56009 6.90832C6.62564 6.97732 6.66667 7.07613 6.66667 7.18421V13.3246C6.66667 13.4326 6.62564 13.5315 6.56009 13.6005C6.49537 13.6686 6.41322 13.7018 6.33333 13.7018C6.25344 13.7018 6.1713 13.6686 6.10658 13.6005C6.04103 13.5315 6 13.4326 6 13.3246V7.18421C6 7.07613 6.04103 6.97732 6.10658 6.90832ZM9.43991 6.90832C9.50463 6.84019 9.58678 6.80702 9.66667 6.80702C9.74656 6.80702 9.8287 6.84019 9.89342 6.90832C9.95897 6.97732 10 7.07614 10 7.18421V13.3246C10 13.4326 9.95897 13.5315 9.89342 13.6005C9.8287 13.6686 9.74656 13.7018 9.66667 13.7018C9.58678 13.7018 9.50463 13.6686 9.43991 13.6005C9.37436 13.5315 9.33333 13.4326 9.33333 13.3246V7.18421C9.33333 7.07614 9.37436 6.97732 9.43991 6.90832Z" fill="#E02424" stroke="#E02424"/>
</svg>
