<svg width="21" height="22" viewBox="0 0 21 22" fill="none" xmlns="http://www.w3.org/2000/svg">
  <g clip-path="url(#clip0_3617_4553)">
    <path fill-rule="evenodd" clip-rule="evenodd" d="M4.7581 3.81836C5.37843 3.45023 6.113 3.26489 6.94997 3.26489C7.82164 3.26489 8.55791 3.73035 9.04452 4.01724C9.61576 4.35406 9.96697 4.53431 10.3351 4.53431C10.7024 4.53431 11.0544 4.35406 11.6257 4.01724C12.1131 3.7295 12.8486 3.26489 13.7202 3.26489C14.558 3.26489 15.2926 3.45023 15.9121 3.81836C16.5316 4.18649 16.9894 4.71034 17.3135 5.31459C17.9482 6.49599 18.0921 8.01592 18.0049 9.49522C17.9161 10.9974 17.5818 12.5681 17.1578 13.934C16.7364 15.2889 16.2066 16.505 15.6938 17.2751C15.1047 18.1578 14.2864 18.597 13.4189 18.4751C12.6226 18.3634 12.004 17.804 11.6942 17.1837C11.3633 16.5219 11.2102 15.7831 10.9199 15.1035C10.8479 14.9343 10.5991 14.2547 10.3359 14.2665C10.0186 14.2665 9.84764 14.8759 9.75032 15.1044C9.46004 15.7831 9.30771 16.5219 8.97682 17.1837C8.66623 17.804 8.0476 18.3634 7.2521 18.4751C6.38381 18.597 5.56546 18.1578 4.97644 17.2751C4.4636 16.505 3.93383 15.2889 3.51238 13.934C3.08839 12.5681 2.75411 10.9974 2.6661 9.49606C2.57808 8.01507 2.72195 6.49599 3.35666 5.31459C3.68079 4.71034 4.13863 4.18649 4.7581 3.81836ZM5.12878 13.4321C5.52653 14.71 5.99791 15.756 6.38466 16.3357C6.51329 16.5287 6.74348 16.8367 7.01683 16.7986C7.15562 16.7792 7.34942 16.6531 7.46282 16.4263C7.77679 15.7983 7.91727 15.0849 8.19401 14.4375C8.36326 14.0406 8.59007 13.6031 8.90488 13.2536C9.23239 12.8913 9.70631 12.574 10.3351 12.574C10.9639 12.574 11.4378 12.8913 11.7653 13.2536C12.0801 13.6031 12.3069 14.0406 12.4762 14.4383C12.7529 15.0849 12.8934 15.7983 13.2082 16.4271C13.3208 16.6531 13.5146 16.7792 13.6542 16.7995C13.9267 16.8367 14.1569 16.5287 14.2855 16.3357C14.6723 15.756 15.1445 14.7108 15.5414 13.4321C15.9349 12.1644 16.2362 10.7308 16.3158 9.39535C16.3953 8.04046 16.2396 6.89205 15.8224 6.11517C15.621 5.74027 15.3654 5.46184 15.0472 5.27312C14.729 5.0844 14.3042 4.95746 13.7202 4.95746C13.3902 4.95746 13.0627 5.13517 12.4423 5.49992C11.9388 5.79781 11.2118 6.22688 10.3351 6.22688C9.43296 6.22688 8.68993 5.77242 8.1847 5.47453C7.59484 5.12756 7.27325 4.95746 6.94997 4.95746C6.36688 4.95746 5.94121 5.0844 5.623 5.27312C5.30565 5.46184 5.04922 5.74027 4.84781 6.11517C4.43059 6.89205 4.27488 8.04046 4.35527 9.3962C4.43398 10.7308 4.73525 12.1644 5.12878 13.4321Z" fill="#FCFAFF"/>
  </g>
  <defs>
    <clipPath id="clip0_3617_4553">
      <rect width="20.3108" height="20.3108" fill="white" transform="translate(0.181641 0.726318)"/>
    </clipPath>
  </defs>
</svg>