<svg width="18" height="17" viewBox="0 0 18 17" fill="none" xmlns="http://www.w3.org/2000/svg">
<path d="M4.24686 10.4957L4.93853 11.2051H2.33268H1.83268V11.7051V15.1239V15.6239H2.33268H15.666H16.166V15.1239V11.7051V11.2051H15.666H13.0602L13.7518 10.4957H15.666C15.9713 10.4957 16.2667 10.62 16.4865 10.8454C16.7068 11.0713 16.8327 11.3804 16.8327 11.7051V15.1239C16.8327 15.4487 16.7068 15.7577 16.4865 15.9836C16.2667 16.2091 15.9713 16.3333 15.666 16.3333H2.33268C2.02741 16.3333 1.732 16.2091 1.51217 15.9836L1.15417 16.3327L1.51217 15.9836C1.29193 15.7577 1.16602 15.4487 1.16602 15.1239V11.7051C1.16602 11.3803 1.29193 11.0713 1.51217 10.8455C1.732 10.62 2.02741 10.4957 2.33268 10.4957H4.24686ZM8.76779 10.6779L8.76735 10.6774L5.43485 7.2595L5.4349 7.25944L5.42873 7.25333C5.39632 7.22122 5.36978 7.18212 5.35128 7.13796C5.33278 7.09378 5.32287 7.04581 5.32246 6.99696C5.32204 6.94811 5.33114 6.89994 5.34891 6.85538C5.36668 6.81084 5.39259 6.7712 5.42452 6.73846C5.45642 6.70574 5.49365 6.68057 5.53369 6.66377L5.34022 6.20272L5.53369 6.66377C5.5737 6.64698 5.61611 6.6387 5.65856 6.63908C5.70102 6.63946 5.74332 6.64849 5.78309 6.66602C5.8229 6.68356 5.85977 6.70943 5.89117 6.74278L5.89112 6.74283L5.89718 6.74905L7.80802 8.70888L8.66602 9.58888V8.35983V1.02137C8.66602 0.923269 8.70413 0.831656 8.76809 0.766053C8.83164 0.70088 8.91509 0.666667 8.99935 0.666667C9.08361 0.666667 9.16706 0.70088 9.23061 0.766053C9.29457 0.831656 9.33268 0.923268 9.33268 1.02137V8.35983V9.58888L10.1907 8.70888L12.0986 6.75199C12.1621 6.69038 12.2438 6.6585 12.3261 6.65923C12.4094 6.65998 12.4917 6.69417 12.5545 6.75861L12.9125 6.40956L12.5545 6.75861C12.6178 6.82346 12.6558 6.91377 12.6566 7.01073C12.6574 7.1065 12.6218 7.19654 12.561 7.26244L9.23135 10.6774L9.23091 10.6779C9.19934 10.7104 9.16254 10.7354 9.12294 10.7523C9.08337 10.7691 9.04141 10.7776 8.99935 10.7776C8.95729 10.7776 8.91533 10.7691 8.87576 10.7523C8.83616 10.7354 8.79935 10.7104 8.76779 10.6779ZM13.4993 13.4145C13.4993 13.6224 13.3383 13.7692 13.166 13.7692C12.9938 13.7692 12.8327 13.6224 12.8327 13.4145C12.8327 13.2066 12.9938 13.0598 13.166 13.0598C13.3383 13.0598 13.4993 13.2066 13.4993 13.4145Z" fill="#7F56D9" stroke="#7F56D9"/>
</svg>
