<svg width="16" height="15" viewBox="0 0 16 15" fill="none" xmlns="http://www.w3.org/2000/svg">
<path d="M12.1541 8.77563L11.6349 9.32271V13.2657C11.6349 13.4256 11.5748 13.5838 11.4604 13.7044C11.4604 13.7044 11.4604 13.7044 11.4604 13.7044L12.1541 8.77563ZM12.1541 8.77563V13.2653C12.1538 13.6008 12.027 13.9176 11.8089 14.1474C11.5917 14.3762 11.3029 14.4997 11.0075 14.5H2.14661C1.85126 14.4997 1.56245 14.3762 1.34524 14.1474C1.12722 13.9177 1.00034 13.6009 1 13.2654V3.92934C1.00034 3.59386 1.12722 3.27712 1.34524 3.04743C1.5624 2.81863 1.85111 2.69513 2.14639 2.69478C2.14646 2.69478 2.14654 2.69478 2.14661 2.69478L7.95258 2.69478L7.38247 3.29543L12.1541 8.77563ZM14.4677 1.04782L14.4671 1.04724C14.1313 0.693514 13.6816 0.5 13.2185 0.5C12.7555 0.5 12.3058 0.693514 11.97 1.04724L6.06111 7.27182C6.06105 7.27189 6.06099 7.27195 6.06093 7.27202C6.0227 7.31243 5.99398 7.36691 5.98207 7.42984L5.98202 7.4301L5.44496 10.2601L5.44461 10.2619C5.43546 10.3091 5.43642 10.358 5.44732 10.4046C5.45821 10.4511 5.47839 10.4927 5.50484 10.5268C5.53121 10.5608 5.56278 10.5862 5.59598 10.6027C5.62881 10.6191 5.6633 10.6271 5.69728 10.6272C5.71508 10.6271 5.7329 10.6254 5.75055 10.622L8.43197 10.057L14.4677 1.04782ZM14.4677 1.04782C14.6347 1.22316 14.7685 1.43289 14.8603 1.66564C14.9522 1.89841 14.9998 2.14881 15 2.4023C15.0002 2.6558 14.9529 2.90628 14.8613 3.13919C14.7698 3.37208 14.6362 3.58202 14.4695 3.75763L14.4694 3.75775L8.56092 9.98268L8.56061 9.98302M14.4677 1.04782L8.56061 9.98302M8.56061 9.98302C8.52261 10.0231 8.47744 10.0473 8.43231 10.0569L8.56061 9.98302ZM14.1179 3.31165L14.1181 3.31151C14.2339 3.18965 14.3244 3.04634 14.3858 2.89041C14.4471 2.73451 14.4784 2.56823 14.4784 2.40087C14.4784 2.2335 14.4471 2.06722 14.3858 1.91132C14.3244 1.75545 14.2339 1.61219 14.1182 1.49037C13.8842 1.24394 13.5612 1.10031 13.2185 1.10031C12.8759 1.10031 12.5528 1.24394 12.3189 1.49037L12.3188 1.49042L11.9117 1.9194L11.585 2.26361L11.9117 2.60782L12.9858 3.73948L13.3481 4.12121L13.7108 3.73982L14.1179 3.31165ZM8.11294 9.51L8.26526 9.47787L8.37242 9.36495L12.637 4.87111L12.9637 4.5269L12.637 4.18272L11.5628 3.05106L11.2002 2.66898L10.8375 3.05106L6.57296 7.54409L6.47181 7.65066L6.4444 7.795L6.17549 9.21078L6.03541 9.94826L6.76991 9.79331L8.11294 9.51Z" fill="white" stroke="white"/>
</svg>
