<svg xmlns="http://www.w3.org/2000/svg" width="163" height="48" viewBox="0 0 163 48" fill="none">
<path d="M36.948 42.7972H28.9881C28.9881 41.7651 28.9881 40.8067 28.9881 39.8536C28.9881 38.8899 28.9983 37.921 28.9881 36.9574C28.9676 35.3724 28.3273 34.6983 26.7599 34.6825C25.2745 34.6667 23.7839 34.7036 22.2985 34.7089C21.9143 34.7089 21.5353 34.672 21.018 34.6404V26.5311C20.4289 26.5311 19.9679 26.5311 19.512 26.5311C18.2212 26.5311 16.9305 26.5311 15.6345 26.5311C13.7086 26.5363 13.1503 27.1208 13.1452 29.1429C13.1452 31.4335 13.1452 33.7294 13.1452 36.0201C13.1452 36.8942 13.1452 37.7736 13.1452 38.7583H5.08796C5.05723 38.2738 5.00601 37.8052 5.00601 37.3418C5.00089 33.7242 5.00601 30.1013 5.00601 26.4837C5.00601 22.8661 6.54779 20.2595 9.77476 18.7482C9.84647 18.7166 9.92331 18.6955 9.98989 18.6587C10.0206 18.6429 10.0411 18.6008 10.1487 18.4744C8.53007 18.0794 7.1522 17.3317 6.19948 15.9468C5.23651 14.5355 4.78575 12.9821 5.09821 11.2655C5.64628 8.2587 7.90004 6.12604 10.8504 6.00493C13.8162 5.88908 16.1724 7.8269 16.9407 10.5177C17.791 13.4876 16.5514 16.2259 13.2886 18.1742H21.0333C21.1306 19.6065 21.0743 20.9177 21.0845 22.2236C21.0948 23.5506 21.0845 24.8723 21.0845 26.3468C23.7071 26.51 26.2631 26.3678 28.8703 26.3836C26.9494 25.3199 25.4845 23.9034 25.0696 21.6391C24.8186 20.2595 24.9825 18.922 25.6126 17.6529C26.9187 15.0305 29.7667 13.7246 32.5531 14.4882C35.232 15.2254 37.0914 17.8372 36.9787 20.7176C36.8814 23.1609 35.2269 26.0203 31.5133 26.5995C31.8872 26.7838 32.1331 26.9102 32.379 27.0313C35.3498 28.4794 36.9275 30.8754 36.9787 34.2613C37.0197 36.7151 36.9889 39.169 36.9889 41.6229C36.9889 41.9809 36.9582 42.3338 36.9377 42.7919L36.948 42.7972Z" fill="black"/>
<path d="M51.9526 17.752V23.0658H59.2119V26.2018H51.9526V31.7188H60.083V35H47.8584V14.4998H60.083V17.752H51.9526ZM69.4152 18.7102C70.7703 18.7102 71.9221 19.0296 72.8706 19.6684C73.8385 20.3072 74.5354 21.1687 74.9613 22.2527V13.5126H79.0265V35H74.9613V31.6317C74.5354 32.7157 73.8385 33.5869 72.8706 34.245C71.9221 34.8839 70.7703 35.2033 69.4152 35.2033C68.0602 35.2033 66.8406 34.8742 65.7566 34.216C64.6725 33.5578 63.8208 32.6093 63.2013 31.3704C62.6012 30.1121 62.3011 28.6409 62.3011 26.9567C62.3011 25.2726 62.6012 23.811 63.2013 22.5721C63.8208 21.3139 64.6725 20.3556 65.7566 19.6975C66.8406 19.0393 68.0602 18.7102 69.4152 18.7102ZM70.6929 22.2818C69.4152 22.2818 68.3893 22.698 67.6149 23.5304C66.8406 24.3627 66.4534 25.5049 66.4534 26.9567C66.4534 28.4086 66.8406 29.5507 67.6149 30.3831C68.3893 31.1961 69.4152 31.6027 70.6929 31.6027C71.9318 31.6027 72.9481 31.1865 73.7418 30.3541C74.5548 29.5023 74.9613 28.3699 74.9613 26.9567C74.9613 25.5242 74.5548 24.3918 73.7418 23.5594C72.9481 22.7076 71.9318 22.2818 70.6929 22.2818ZM98.1266 18.9135V35H94.0323V31.7478C93.6064 32.8319 92.8999 33.6837 91.9126 34.3031C90.9447 34.9032 89.8219 35.2033 88.5443 35.2033C86.6859 35.2033 85.2051 34.5935 84.1016 33.3739C82.9982 32.1544 82.4465 30.4509 82.4465 28.2634V18.9135H86.5117V27.7988C86.5117 29.0764 86.8408 30.0734 87.499 30.7896C88.1572 31.4865 89.0476 31.835 90.1704 31.835C91.3512 31.835 92.2901 31.4575 92.987 30.7025C93.6839 29.9475 94.0323 28.8635 94.0323 27.4504V18.9135H98.1266ZM111.46 18.7102C112.816 18.7102 114.035 19.0393 115.119 19.6975C116.203 20.3556 117.045 21.3139 117.645 22.5721C118.265 23.811 118.575 25.2726 118.575 26.9567C118.575 28.6409 118.265 30.1121 117.645 31.3704C117.045 32.6093 116.203 33.5578 115.119 34.216C114.035 34.8742 112.816 35.2033 111.46 35.2033C110.105 35.2033 108.944 34.8839 107.976 34.245C107.027 33.5869 106.35 32.7157 105.943 31.6317V42.6658H101.849V18.9135H105.943V22.2527C106.35 21.1687 107.027 20.3072 107.976 19.6684C108.944 19.0296 110.105 18.7102 111.46 18.7102ZM110.183 22.2818C108.944 22.2818 107.918 22.7076 107.105 23.5594C106.311 24.3918 105.914 25.5242 105.914 26.9567C105.914 28.3699 106.311 29.5023 107.105 30.3541C107.918 31.1865 108.944 31.6027 110.183 31.6027C111.46 31.6027 112.486 31.1961 113.261 30.3831C114.035 29.5507 114.422 28.4086 114.422 26.9567C114.422 25.5049 114.035 24.3627 113.261 23.5304C112.486 22.698 111.46 22.2818 110.183 22.2818ZM125.566 13.5126V35H121.472V13.5126H125.566ZM144.66 18.9135V35H140.565V31.7478C140.14 32.8319 139.433 33.6837 138.446 34.3031C137.478 34.9032 136.355 35.2033 135.077 35.2033C133.219 35.2033 131.738 34.5935 130.635 33.3739C129.531 32.1544 128.98 30.4509 128.98 28.2634V18.9135H133.045V27.7988C133.045 29.0764 133.374 30.0734 134.032 30.7896C134.69 31.4865 135.581 31.835 136.703 31.835C137.884 31.835 138.823 31.4575 139.52 30.7025C140.217 29.9475 140.565 28.8635 140.565 27.4504V18.9135H144.66ZM153.928 18.7102C155.883 18.7102 157.452 19.2038 158.632 20.1911C159.813 21.1783 160.549 22.4947 160.839 24.1401H157.006C156.851 23.3658 156.503 22.7464 155.961 22.2818C155.419 21.8172 154.712 21.5849 153.841 21.5849C153.144 21.5849 152.602 21.7494 152.215 22.0785C151.828 22.4076 151.634 22.8528 151.634 23.4142C151.634 23.8594 151.789 24.2176 152.099 24.4886C152.409 24.7596 152.796 24.9725 153.26 25.1274C153.725 25.2823 154.393 25.4662 155.264 25.6791C156.484 25.9501 157.471 26.2405 158.226 26.5502C159 26.8406 159.658 27.3149 160.2 27.973C160.762 28.6118 161.042 29.483 161.042 30.5864C161.042 31.9608 160.5 33.0739 159.416 33.9256C158.352 34.7774 156.909 35.2033 155.09 35.2033C152.999 35.2033 151.325 34.7387 150.066 33.8095C148.808 32.8609 148.043 31.5156 147.772 29.7733H151.692C151.789 30.567 152.138 31.1961 152.738 31.6607C153.338 32.106 154.122 32.3286 155.09 32.3286C155.787 32.3286 156.319 32.164 156.687 31.835C157.055 31.4865 157.239 31.0413 157.239 30.4993C157.239 30.0347 157.074 29.6572 156.745 29.3668C156.435 29.0764 156.038 28.8538 155.554 28.699C155.09 28.5441 154.422 28.3602 153.551 28.1472C152.351 27.8762 151.373 27.6052 150.618 27.3342C149.883 27.0438 149.244 26.5889 148.702 25.9695C148.179 25.35 147.918 24.4983 147.918 23.4142C147.918 22.0204 148.45 20.888 149.515 20.0169C150.579 19.1458 152.051 18.7102 153.928 18.7102Z" fill="#323232"/>
</svg>