<svg width="140" height="140" viewBox="0 0 140 140" fill="none" xmlns="http://www.w3.org/2000/svg">
<g clip-path="url(#clip0_3275_47950)">
<path d="M125.965 25.6352H16.7557C15.2824 25.6361 13.8696 26.2218 12.8278 27.2636C11.7859 28.3054 11.2003 29.7182 11.1993 31.1916V131.393C11.2003 132.866 11.7859 134.279 12.8278 135.321C13.8696 136.362 15.2824 136.948 16.7557 136.949H125.965C127.439 136.948 128.852 136.363 129.894 135.321C130.936 134.279 131.522 132.866 131.522 131.393V31.1916C131.522 29.7181 130.936 28.3053 129.894 27.2634C128.852 26.2216 127.439 25.6359 125.965 25.6352Z" fill="#C6C6C6"/>
<path d="M118.776 102.13H23.9463C20.8778 102.13 18.3899 99.6419 18.3899 96.5733V8.04053C18.3899 4.97201 20.8778 2.48414 23.9463 2.48414H118.776C121.845 2.48414 124.333 4.97201 124.333 8.04053V96.5733C124.333 99.6419 121.845 102.13 118.776 102.13Z" fill="#F9F9F9"/>
<path d="M20.1491 98.3319V9.79971C20.1491 6.73119 22.6369 4.24332 25.7055 4.24332H120.535C121.619 4.24332 122.627 4.55832 123.481 5.09479C122.499 3.5284 120.761 2.48414 118.776 2.48414H23.9463C20.8778 2.48414 18.3899 4.97201 18.3899 8.04053V96.5733C18.3899 98.5591 19.4342 100.296 21.0006 101.279C20.4641 100.424 20.1491 99.4164 20.1491 98.3325V98.3319Z" fill="url(#paint0_linear_3275_47950)"/>
<path d="M107.108 21.1898H35.6149V25.2641H107.108V21.1898ZM107.108 36.747H35.6149V40.8213H107.108V36.747ZM107.108 52.3076H35.6149V56.382H107.108V52.3076ZM107.108 67.8648H35.6149V71.9397H107.108V67.8648Z" fill="white"/>
<path d="M44.1345 54.714L62.0999 72.6799H44.1345V54.714Z" fill="url(#paint1_linear_3275_47950)"/>
<path d="M131.523 74.1618V32.8257L124.333 25.6352V74.1612H131.523V74.1618Z" fill="#C6C6C6"/>
<path d="M139.944 77.9008L132.198 132.737C131.811 135.479 129.464 137.516 126.696 137.516H16.0259C13.2575 137.516 10.9113 135.479 10.524 132.737L0.0556008 58.6399C-0.416612 55.2948 2.17913 52.3061 5.55749 52.3061H39.7347C42.5031 52.3061 44.8493 54.3435 45.2366 57.0844L46.6085 66.788C46.9958 69.5295 49.3419 71.567 52.1104 71.567H134.444C137.821 71.567 140.417 74.5557 139.945 77.9008H139.944Z" fill="url(#paint2_linear_3275_47950)"/>
<path d="M112.498 113.057H30.2253C29.7743 113.057 29.3389 112.892 29.0006 112.594C28.6623 112.296 28.4443 111.884 28.3875 111.437L27.3582 103.287C27.3255 103.027 27.3486 102.762 27.426 102.511C27.5033 102.26 27.6333 102.028 27.807 101.831C27.9808 101.634 28.1946 101.476 28.434 101.368C28.6735 101.26 28.9332 101.204 29.1959 101.203H113.527C113.79 101.204 114.049 101.26 114.289 101.368C114.528 101.476 114.742 101.634 114.916 101.831C115.09 102.028 115.22 102.26 115.297 102.511C115.374 102.762 115.397 103.027 115.365 103.287L114.335 111.437C114.279 111.884 114.061 112.296 113.722 112.594C113.384 112.892 112.949 113.057 112.498 113.057Z" fill="#D5D5D5"/>
</g>
<defs>
<linearGradient id="paint0_linear_3275_47950" x1="74.6194" y1="55.5591" x2="4.34973" y2="-14.7112" gradientUnits="userSpaceOnUse">
<stop stop-color="white"/>
</linearGradient>
<linearGradient id="paint1_linear_3275_47950" x1="56.0041" y1="75.5625" x2="34.2886" y2="53.8476" gradientUnits="userSpaceOnUse">
<stop stop-color="#C2CECE" stop-opacity="0"/>
<stop offset="0.179" stop-color="#AFBCBC" stop-opacity="0.179"/>
<stop offset="1" stop-color="#5B6A6A"/>
</linearGradient>
<linearGradient id="paint2_linear_3275_47950" x1="69.9999" y1="52.3061" x2="69.9999" y2="137.516" gradientUnits="userSpaceOnUse">
<stop stop-color="#EEF0F4"/>
<stop offset="0.927" stop-color="#E4E4E4"/>
</linearGradient>
<clipPath id="clip0_3275_47950">
<rect width="140" height="140" fill="white"/>
</clipPath>
</defs>
</svg>
