<svg viewBox="0 0 57 57" fill="none" xmlns="http://www.w3.org/2000/svg">
  <path d="M47.7528 10.1465H8.88449C8.18164 10.1465 7.50757 10.4257 7.01058 10.9227C6.51358 11.4197 6.23438 12.0937 6.23438 12.7966V48.1315C6.23427 48.2821 6.27269 48.4303 6.34599 48.5619C6.4193 48.6935 6.52504 48.8042 6.65318 48.8835C6.78132 48.9627 6.92759 49.0078 7.0781 49.0146C7.2286 49.0214 7.37833 48.9895 7.51306 48.9221L14.1847 45.5852L20.8564 48.9221C20.9791 48.9835 21.1145 49.0155 21.2517 49.0155C21.3889 49.0155 21.5243 48.9835 21.647 48.9221L28.3187 45.5852L34.9903 48.9221C35.1131 48.9835 35.2484 49.0155 35.3856 49.0155C35.5229 49.0155 35.6582 48.9835 35.781 48.9221L42.4526 45.5852L49.1243 48.9221C49.2472 48.9829 49.3825 49.0146 49.5196 49.0148C49.7539 49.0148 49.9786 48.9218 50.1442 48.7561C50.3099 48.5905 50.403 48.3658 50.403 48.1315V12.7966C50.403 12.0937 50.1238 11.4197 49.6268 10.9227C49.1298 10.4257 48.4557 10.1465 47.7528 10.1465ZM48.6362 46.7026L42.8479 43.8074C42.7252 43.746 42.5899 43.714 42.4526 43.714C42.3154 43.714 42.18 43.746 42.0573 43.8074L35.3856 47.1443L28.714 43.8074C28.5913 43.746 28.4559 43.714 28.3187 43.714C28.1814 43.714 28.0461 43.746 27.9234 43.8074L21.2517 47.1443L14.58 43.8074C14.4573 43.746 14.322 43.714 14.1847 43.714C14.0475 43.714 13.9121 43.746 13.7894 43.8074L8.00112 46.7026V12.7966C8.00112 12.5623 8.09419 12.3376 8.25985 12.172C8.42552 12.0063 8.65021 11.9132 8.88449 11.9132H47.7528C47.9871 11.9132 48.2118 12.0063 48.3775 12.172C48.5432 12.3376 48.6362 12.5623 48.6362 12.7966V46.7026ZM22.0423 21.235C21.9691 21.088 21.8563 20.9643 21.7166 20.8779C21.5769 20.7915 21.4159 20.7457 21.2517 20.7457C21.0875 20.7457 20.9265 20.7915 20.7868 20.8779C20.6471 20.9643 20.5343 21.088 20.4611 21.235L13.3941 35.369C13.2893 35.5786 13.272 35.8214 13.3461 36.0438C13.4203 36.2662 13.5797 36.45 13.7894 36.5549C13.9991 36.6597 14.2418 36.677 14.4642 36.6028C14.6867 36.5287 14.8705 36.3693 14.9753 36.1596L16.4969 33.1142H26.0064L27.5281 36.1596C27.6015 36.3063 27.7144 36.4297 27.854 36.5159C27.9937 36.6022 28.1546 36.6478 28.3187 36.6476C28.4557 36.6469 28.5909 36.6152 28.714 36.5549C28.8179 36.503 28.9105 36.4312 28.9866 36.3435C29.0627 36.2558 29.1208 36.154 29.1575 36.0439C29.1942 35.9337 29.2088 35.8174 29.2006 35.7016C29.1923 35.5858 29.1613 35.4728 29.1093 35.369L22.0423 21.235ZM17.3803 31.3474L21.2517 23.6047L25.1231 31.3474H17.3803ZM43.336 28.6973C43.336 28.9316 43.2429 29.1563 43.0773 29.3219C42.9116 29.4876 42.6869 29.5807 42.4526 29.5807H38.0358V33.9975C38.0358 34.2318 37.9427 34.4565 37.777 34.6222C37.6114 34.7878 37.3867 34.8809 37.1524 34.8809C36.9181 34.8809 36.6934 34.7878 36.5278 34.6222C36.3621 34.4565 36.269 34.2318 36.269 33.9975V29.5807H31.8522C31.6179 29.5807 31.3932 29.4876 31.2275 29.3219C31.0619 29.1563 30.9688 28.9316 30.9688 28.6973C30.9688 28.463 31.0619 28.2383 31.2275 28.0727C31.3932 27.907 31.6179 27.8139 31.8522 27.8139H36.269V23.3971C36.269 23.1628 36.3621 22.9381 36.5278 22.7724C36.6934 22.6068 36.9181 22.5137 37.1524 22.5137C37.3867 22.5137 37.6114 22.6068 37.777 22.7724C37.9427 22.9381 38.0358 23.1628 38.0358 23.3971V27.8139H42.4526C42.6869 27.8139 42.9116 27.907 43.0773 28.0727C43.2429 28.2383 43.336 28.463 43.336 28.6973Z"/>
</svg>