<svg  viewBox="0 0 29 29" fill="none" xmlns="http://www.w3.org/2000/svg">
  <path d="M17.1877 3.15919V8.02877C17.1877 8.68903 17.1877 9.01916 17.3161 9.27134C17.4292 9.49317 17.6095 9.67352 17.8314 9.78655C18.0835 9.91504 18.4137 9.91504 19.0739 9.91504H23.9435M10.1141 18.1674V21.7042M19.5455 15.8096V21.7042M14.8298 12.8623V21.7042M24.2612 12.2589V20.761C24.2612 22.7418 24.2612 23.7322 23.8757 24.4888C23.5366 25.1542 22.9956 25.6953 22.3301 26.0344C21.5735 26.4199 20.5831 26.4199 18.6024 26.4199H11.0573C9.07649 26.4199 8.0861 26.4199 7.32954 26.0344C6.66406 25.6953 6.123 25.1542 5.78392 24.4888C5.39844 23.7322 5.39844 22.7418 5.39844 20.761V8.50026C5.39844 6.51948 5.39844 5.52909 5.78392 4.77254C6.123 4.10705 6.66406 3.566 7.32954 3.22692C8.0861 2.84143 9.07649 2.84143 11.0573 2.84143H14.8437C15.7088 2.84143 16.1413 2.84143 16.5483 2.93915C16.9092 3.02579 17.2542 3.16869 17.5706 3.36261C17.9276 3.58133 18.2334 3.88717 18.8451 4.49886L22.6038 8.25753C23.2154 8.86922 23.5213 9.17506 23.74 9.53198C23.9339 9.84842 24.0768 10.1934 24.1635 10.5543C24.2612 10.9613 24.2612 11.3939 24.2612 12.2589Z" stroke="black" stroke-linecap="round" stroke-linejoin="round"/>
</svg>