<svg  viewBox="0 0 29 29" fill="none" xmlns="http://www.w3.org/2000/svg">
  <path d="M24.2612 15.2201V8.50026C24.2612 6.51948 24.2612 5.52909 23.8757 4.77254C23.5366 4.10705 22.9956 3.566 22.3301 3.22692C21.5735 2.84143 20.5831 2.84143 18.6024 2.84143H11.0573C9.07649 2.84143 8.0861 2.84143 7.32954 3.22692C6.66406 3.566 6.123 4.10705 5.78392 4.77254C5.39844 5.52909 5.39844 6.51948 5.39844 8.50026V20.761C5.39844 22.7418 5.39844 23.7322 5.78392 24.4888C6.123 25.1542 6.66406 25.6953 7.32954 26.0344C8.0861 26.4199 9.07643 26.4199 11.0571 26.4199H15.4193M17.1877 13.4517H10.1141M12.472 18.1674H10.1141M19.5455 8.73604H10.1141M18.3666 22.8831L21.9033 26.4199M21.9033 26.4199L25.4401 22.8831M21.9033 26.4199V19.3463" stroke="black" stroke-linecap="round" stroke-linejoin="round"/>
</svg>