<svg xmlns="http://www.w3.org/2000/svg" width="19" height="18" viewBox="0 0 19 18" fill="none">
  <path d="M3.5554 9.522C3.55365 8.04378 4.09266 6.61597 5.07085 5.50767C6.04903 4.39938 7.39882 3.68716 8.8658 3.50525C10.3328 3.32334 11.8157 3.6843 13.0349 4.52011C14.2542 5.35591 15.1256 6.60882 15.485 8.0427C15.8967 8.23994 16.248 8.54099 16.5058 8.91298C16.4075 7.80532 16.0439 6.73763 15.4455 5.80033C14.8472 4.86303 14.0318 4.0837 13.0684 3.52836C12.105 2.97301 11.0219 2.65799 9.91096 2.60997C8.79999 2.56195 7.6938 2.78235 6.68607 3.2525C5.67834 3.72265 4.79874 4.42871 4.12175 5.31089C3.44476 6.19307 2.99032 7.2254 2.7969 8.32046C2.60348 9.41551 2.67678 10.5411 3.0106 11.6018C3.34442 12.6625 3.92892 13.6272 4.71462 14.4141C4.7962 14.4929 4.90546 14.5365 5.01887 14.5355C5.13228 14.5345 5.24077 14.489 5.32097 14.4088C5.40116 14.3286 5.44665 14.2201 5.44764 14.1067C5.44863 13.9933 5.40503 13.884 5.32624 13.8025C4.76369 13.2408 4.31766 12.5735 4.01376 11.8389C3.70987 11.1043 3.5541 10.317 3.5554 9.522ZM13.6224 7.90083C13.2452 6.97113 12.5566 6.2014 11.6745 5.72334C10.7924 5.24529 9.77162 5.08861 8.78676 5.28013C7.80189 5.47165 6.91418 5.99945 6.27551 6.77323C5.63684 7.54702 5.28691 8.51869 5.28558 9.522C5.28558 10.7141 5.7683 11.7946 6.5486 12.5766C6.63007 12.6555 6.73927 12.6993 6.85269 12.6985C6.96611 12.6977 7.07466 12.6523 7.15498 12.5722C7.23529 12.4921 7.28093 12.3837 7.28208 12.2703C7.28322 12.1569 7.23977 12.0476 7.16109 11.9659C6.79755 11.6007 6.52014 11.159 6.34912 10.6729C6.1781 10.1869 6.11779 9.66878 6.17259 9.15643C6.22739 8.64409 6.39592 8.15046 6.66586 7.71157C6.93581 7.27267 7.30036 6.89961 7.73291 6.61961C8.16545 6.3396 8.65507 6.15973 9.16601 6.09313C9.67695 6.02652 10.1963 6.07486 10.6862 6.23462C11.1761 6.39437 11.6241 6.66151 11.9975 7.01653C12.371 7.37155 12.6604 7.80549 12.8447 8.28666C13.0804 8.11515 13.3433 7.98471 13.6224 7.90083ZM7.88084 9.522C7.88084 9.06313 8.06313 8.62306 8.3876 8.29859C8.71207 7.97411 9.15214 7.79183 9.61101 7.79183C10.0699 7.79183 10.51 7.97411 10.8344 8.29859C11.1589 8.62306 11.3412 9.06313 11.3412 9.522C11.3412 9.98088 11.1589 10.421 10.8344 10.7454C10.51 11.0699 10.0699 11.2522 9.61101 11.2522C9.15214 11.2522 8.71207 11.0699 8.3876 10.7454C8.06313 10.421 7.88084 9.98088 7.88084 9.522ZM9.61101 8.65692C9.38158 8.65692 9.16154 8.74806 8.99931 8.91029C8.83707 9.07253 8.74593 9.29257 8.74593 9.522C8.74593 9.75144 8.83707 9.97148 8.99931 10.1337C9.16154 10.2959 9.38158 10.3871 9.61101 10.3871C9.84045 10.3871 10.0605 10.2959 10.2227 10.1337C10.385 9.97148 10.4761 9.75144 10.4761 9.522C10.4761 9.29257 10.385 9.07253 10.2227 8.91029C10.0605 8.74806 9.84045 8.65692 9.61101 8.65692ZM16.0992 10.3871C16.0992 10.846 15.9169 11.286 15.5924 11.6105C15.2679 11.935 14.8279 12.1173 14.369 12.1173C13.9101 12.1173 13.47 11.935 13.1456 11.6105C12.8211 11.286 12.6388 10.846 12.6388 10.3871C12.6388 9.92822 12.8211 9.48814 13.1456 9.16367C13.47 8.8392 13.9101 8.65692 14.369 8.65692C14.8279 8.65692 15.2679 8.8392 15.5924 9.16367C15.9169 9.48814 16.0992 9.92822 16.0992 10.3871ZM17.3968 14.28C17.3968 15.357 16.5317 16.4427 14.369 16.4427C12.2063 16.4427 11.3412 15.3613 11.3412 14.28C11.3412 13.9358 11.4779 13.6058 11.7213 13.3624C11.9646 13.1191 12.2947 12.9824 12.6388 12.9824H16.0992C16.4433 12.9824 16.7734 13.1191 17.0167 13.3624C17.2601 13.6058 17.3968 13.9358 17.3968 14.28Z" fill="#FCFCFD"/>
</svg>