<svg width="25" height="24" viewBox="0 0 25 24" fill="none" xmlns="http://www.w3.org/2000/svg">
  <path d="M8.82773 3H5.02773C4.46768 3 4.18766 3 3.97374 3.10899C3.78558 3.20487 3.6326 3.35785 3.53673 3.54601C3.42773 3.75992 3.42773 4.03995 3.42773 4.6V8.4C3.42773 8.96005 3.42773 9.24008 3.53673 9.45399C3.6326 9.64215 3.78558 9.79513 3.97374 9.89101C4.18766 10 4.46768 10 5.02773 10H8.82773C9.38779 10 9.66781 10 9.88172 9.89101C10.0699 9.79513 10.2229 9.64215 10.3187 9.45399C10.4277 9.24008 10.4277 8.96005 10.4277 8.4V4.6C10.4277 4.03995 10.4277 3.75992 10.3187 3.54601C10.2229 3.35785 10.0699 3.20487 9.88172 3.10899C9.66781 3 9.38779 3 8.82773 3Z" stroke="#667085" stroke-linecap="round" stroke-linejoin="round"/>
  <path d="M19.8277 3H16.0277C15.4677 3 15.1877 3 14.9737 3.10899C14.7856 3.20487 14.6326 3.35785 14.5367 3.54601C14.4277 3.75992 14.4277 4.03995 14.4277 4.6V8.4C14.4277 8.96005 14.4277 9.24008 14.5367 9.45399C14.6326 9.64215 14.7856 9.79513 14.9737 9.89101C15.1877 10 15.4677 10 16.0277 10H19.8277C20.3878 10 20.6678 10 20.8817 9.89101C21.0699 9.79513 21.2229 9.64215 21.3187 9.45399C21.4277 9.24008 21.4277 8.96005 21.4277 8.4V4.6C21.4277 4.03995 21.4277 3.75992 21.3187 3.54601C21.2229 3.35785 21.0699 3.20487 20.8817 3.10899C20.6678 3 20.3878 3 19.8277 3Z" stroke="#667085" stroke-linecap="round" stroke-linejoin="round"/>
  <path d="M19.8277 14H16.0277C15.4677 14 15.1877 14 14.9737 14.109C14.7856 14.2049 14.6326 14.3578 14.5367 14.546C14.4277 14.7599 14.4277 15.0399 14.4277 15.6V19.4C14.4277 19.9601 14.4277 20.2401 14.5367 20.454C14.6326 20.6422 14.7856 20.7951 14.9737 20.891C15.1877 21 15.4677 21 16.0277 21H19.8277C20.3878 21 20.6678 21 20.8817 20.891C21.0699 20.7951 21.2229 20.6422 21.3187 20.454C21.4277 20.2401 21.4277 19.9601 21.4277 19.4V15.6C21.4277 15.0399 21.4277 14.7599 21.3187 14.546C21.2229 14.3578 21.0699 14.2049 20.8817 14.109C20.6678 14 20.3878 14 19.8277 14Z" stroke="#667085" stroke-linecap="round" stroke-linejoin="round"/>
  <path d="M8.82773 14H5.02773C4.46768 14 4.18766 14 3.97374 14.109C3.78558 14.2049 3.6326 14.3578 3.53673 14.546C3.42773 14.7599 3.42773 15.0399 3.42773 15.6V19.4C3.42773 19.9601 3.42773 20.2401 3.53673 20.454C3.6326 20.6422 3.78558 20.7951 3.97374 20.891C4.18766 21 4.46768 21 5.02773 21H8.82773C9.38779 21 9.66781 21 9.88172 20.891C10.0699 20.7951 10.2229 20.6422 10.3187 20.454C10.4277 20.2401 10.4277 19.9601 10.4277 19.4V15.6C10.4277 15.0399 10.4277 14.7599 10.3187 14.546C10.2229 14.3578 10.0699 14.2049 9.88172 14.109C9.66781 14 9.38779 14 8.82773 14Z" stroke="#667085" stroke-linecap="round" stroke-linejoin="round"/>
</svg>