<svg xmlns="http://www.w3.org/2000/svg" width="19" height="18" viewBox="0 0 19 18" fill="none">
  <g clip-path="url(#clip0_3696_10682)">
    <path d="M14.1621 2.05713C17.3997 5.29474 17.3997 10.5439 14.1621 13.7816C11.0616 16.8821 6.11624 17.0134 2.85948 14.1755C2.71745 14.0517 2.64644 13.9898 2.61438 13.9052C2.58741 13.834 2.58439 13.7461 2.60642 13.6732C2.6326 13.5866 2.70355 13.5156 2.84544 13.3738L4.44243 11.7768M13.7066 7.91934C13.7066 10.9054 11.2859 13.3261 8.29985 13.3261C5.31376 13.3261 2.89306 10.9054 2.89306 7.91934C2.89306 4.93325 5.31376 2.51255 8.29985 2.51255C11.2859 2.51255 13.7066 4.93325 13.7066 7.91934Z" stroke-width="1.73018" stroke-linecap="round" stroke-linejoin="round"/>
  </g>
  <defs>
    <clipPath id="clip0_3696_10682">
      <rect width="17.3018" height="17.3018" fill="white" transform="translate(0.730469 0.349854)"/>
    </clipPath>
  </defs>
</svg>