<svg viewBox="0 0 16 16" fill="none" xmlns="http://www.w3.org/2000/svg">
  <path d="M13.7777 6.66602C13.7777 6.78389 13.7279 6.89694 13.6394 6.98029C13.5508 7.06363 13.4307 7.11046 13.3054 7.11046C13.1802 7.11046 13.0601 7.06363 12.9715 6.98029C12.883 6.89694 12.8332 6.78389 12.8332 6.66602V4.18379L8.91791 7.86935C8.8293 7.95274 8.70913 7.9996 8.58381 7.9996C8.4585 7.9996 8.33833 7.95274 8.24972 7.86935C8.16111 7.78595 8.11133 7.67284 8.11133 7.5549C8.11133 7.43696 8.16111 7.32386 8.24972 7.24046L12.165 3.5549H9.52767C9.40243 3.5549 9.28232 3.50808 9.19376 3.42473C9.1052 3.34138 9.05545 3.22833 9.05545 3.11046C9.05545 2.99259 9.1052 2.87954 9.19376 2.79619C9.28232 2.71284 9.40243 2.66602 9.52767 2.66602H13.3054C13.4307 2.66602 13.5508 2.71284 13.6394 2.79619C13.7279 2.87954 13.7777 2.99259 13.7777 3.11046V6.66602ZM11.4166 7.99935C11.2913 7.99935 11.1712 8.04617 11.0826 8.12952C10.9941 8.21287 10.9443 8.32592 10.9443 8.44379V12.4438H3.38878V5.33268H7.63878C7.76402 5.33268 7.88413 5.28586 7.97269 5.20251C8.06125 5.11916 8.111 5.00611 8.111 4.88824C8.111 4.77036 8.06125 4.65732 7.97269 4.57397C7.88413 4.49062 7.76402 4.44379 7.63878 4.44379H3.38878C3.1383 4.44379 2.89807 4.53744 2.72096 4.70414C2.54384 4.87084 2.44434 5.09693 2.44434 5.33268V12.4438C2.44434 12.6795 2.54384 12.9056 2.72096 13.0723C2.89807 13.239 3.1383 13.3327 3.38878 13.3327H10.9443C11.1948 13.3327 11.435 13.239 11.6122 13.0723C11.7893 12.9056 11.8888 12.6795 11.8888 12.4438V8.44379C11.8888 8.32592 11.839 8.21287 11.7505 8.12952C11.6619 8.04617 11.5418 7.99935 11.4166 7.99935Z"/>
</svg>