<svg  viewBox="0 0 29 29" fill="none" xmlns="http://www.w3.org/2000/svg">
  <path d="M6.5768 12.2729V19.3595C6.5768 19.7827 6.5768 19.9943 6.64124 20.1811C6.69822 20.3463 6.79121 20.4968 6.91348 20.6216C7.05175 20.7628 7.24101 20.8574 7.61951 21.0467L13.9857 24.2298C14.295 24.3844 14.4497 24.4617 14.6119 24.4922C14.7555 24.5191 14.903 24.5191 15.0466 24.4922C15.2089 24.4617 15.3635 24.3844 15.6728 24.2298L22.039 21.0467C22.4175 20.8574 22.6068 20.7628 22.745 20.6216C22.8673 20.4968 22.9603 20.3463 23.0173 20.1811C23.0817 19.9943 23.0817 19.7827 23.0817 19.3595V12.2729M3.04004 10.5045L14.4075 4.82076C14.5621 4.74343 14.6395 4.70477 14.7206 4.68955C14.7924 4.67607 14.8661 4.67607 14.938 4.68955C15.0191 4.70477 15.0964 4.74343 15.251 4.82076L26.6185 10.5045L15.251 16.1882C15.0964 16.2655 15.0191 16.3042 14.938 16.3194C14.8661 16.3329 14.7924 16.3329 14.7206 16.3194C14.6395 16.3042 14.5621 16.2655 14.4075 16.1882L3.04004 10.5045Z" stroke="black" stroke-linecap="round" stroke-linejoin="round"/>
</svg>