<svg xmlns="http://www.w3.org/2000/svg" width="18" height="18" viewBox="0 0 18 18" fill="none">
  <path d="M13.0146 5.48553C14.3493 6.05591 15.8504 6.10006 17.2164 5.60912M5.47593 17.3496C5.96643 15.9793 5.9223 14.4745 5.35235 13.1354C4.90623 12.0691 4.78553 10.8947 5.00544 9.75993C5.22535 8.6252 5.77604 7.58088 6.58819 6.75845C7.42073 5.93451 8.47857 5.37549 9.62835 5.15186" stroke-width="1.5045" stroke-linecap="round" stroke-linejoin="round"/>
  <path d="M8.68901 13.4814C9.84437 13.2559 10.9068 12.6925 11.7415 11.8625M11.7415 11.8625C12.5551 11.0409 13.1068 9.99656 13.3267 8.86147C13.5467 7.72637 13.4251 6.55154 12.9774 5.48555C12.419 4.14609 12.3881 2.64499 12.8909 1.28369M11.7415 11.8625L6.63752 6.75846M1.15039 13.0242C2.51692 12.5309 4.02045 12.5795 5.35224 13.1601" stroke-width="1.5045" stroke-linecap="round" stroke-linejoin="round"/>
</svg>