<svg viewBox="0 0 25 25" fill="none" xmlns="http://www.w3.org/2000/svg">
  <path d="M17.9688 2.73438H7.03125C6.72045 2.73438 6.42238 2.85784 6.20261 3.07761C5.98284 3.29738 5.85938 3.59545 5.85938 3.90625V7.42188C5.85937 7.6038 5.90173 7.78323 5.98309 7.94595C6.06445 8.10867 6.18258 8.25022 6.32813 8.35938L11.8486 12.5L6.32813 16.6406C6.18258 16.7498 6.06445 16.8913 5.98309 17.054C5.90173 17.2168 5.85938 17.3962 5.85938 17.5781V21.0938C5.85938 21.4046 5.98284 21.7026 6.20261 21.9224C6.42238 22.1422 6.72045 22.2656 7.03125 22.2656H17.9688C18.2796 22.2656 18.5776 22.1422 18.7974 21.9224C19.0172 21.7026 19.1406 21.4046 19.1406 21.0938V17.6133C19.1403 17.4322 19.0981 17.2537 19.0175 17.0916C18.9369 16.9295 18.8199 16.7882 18.6758 16.6787L13.1475 12.5L18.6758 8.32129C18.8199 8.21176 18.9369 8.07046 19.0175 7.90836C19.0981 7.74627 19.1403 7.56776 19.1406 7.38672V3.90625C19.1406 3.59545 19.0172 3.29738 18.7974 3.07761C18.5776 2.85784 18.2796 2.73438 17.9688 2.73438ZM7.03125 3.51562H17.9688C18.0724 3.51562 18.1717 3.55678 18.245 3.63004C18.3182 3.70329 18.3594 3.80265 18.3594 3.90625V5.85938H6.64062V3.90625C6.64062 3.80265 6.68178 3.70329 6.75504 3.63004C6.82829 3.55678 6.92765 3.51562 7.03125 3.51562ZM18.3594 17.6133V21.0938C18.3594 21.1973 18.3182 21.2967 18.245 21.37C18.1717 21.4432 18.0724 21.4844 17.9688 21.4844H7.03125C6.92765 21.4844 6.82829 21.4432 6.75504 21.37C6.68178 21.2967 6.64062 21.1973 6.64062 21.0938V17.5781C6.64062 17.5175 6.65474 17.4577 6.68186 17.4034C6.70898 17.3492 6.74836 17.302 6.79687 17.2656L12.5 12.9883L18.2051 17.3008C18.2532 17.3374 18.2922 17.3846 18.319 17.4389C18.3458 17.4931 18.3596 17.5528 18.3594 17.6133ZM18.2041 7.69824L12.5 12.0117L6.79687 7.73437C6.74836 7.69799 6.70898 7.65081 6.68186 7.59657C6.65474 7.54233 6.64062 7.48252 6.64062 7.42188V6.64062H18.3594V7.38672C18.3593 7.44711 18.3453 7.50668 18.3184 7.56073C18.2914 7.61478 18.2523 7.66185 18.2041 7.69824Z"/>
</svg>