<svg xmlns="http://www.w3.org/2000/svg" width="18" height="19" viewBox="0 0 18 19" fill="none">
  <g clip-path="url(#clip0_3696_9726)">
    <path d="M3.66211 15.9472L3.90156 18.081L5.4532 16.6008L8.10631 9.2956C7.45501 9.1322 6.88033 8.80539 6.411 8.35362L3.66211 15.9472ZM11.7172 8.35362C11.2479 8.80539 10.6636 9.1322 10.0219 9.2956L12.675 16.6008L14.2267 18.081L14.4757 15.9472L11.7172 8.35362ZM11.8801 6.16206C12.1674 4.66258 11.3054 3.33611 10.0219 2.87473V1.74051C10.0219 1.21184 9.59091 0.779297 9.06412 0.779297C8.53733 0.779297 8.10631 1.21184 8.10631 1.74051V2.87473C6.99526 3.27844 6.19071 4.33577 6.19071 5.58534C6.19071 7.35396 7.78066 8.75733 9.60049 8.4209C10.7307 8.20944 11.6598 7.29629 11.8801 6.16206ZM9.06412 6.54655C8.53733 6.54655 8.10631 6.114 8.10631 5.58534C8.10631 5.05667 8.53733 4.62413 9.06412 4.62413C9.59091 4.62413 10.0219 5.05667 10.0219 5.58534C10.0219 6.114 9.59091 6.54655 9.06412 6.54655Z" fill="#FCFCFD"/>
  </g>
  <defs>
    <clipPath id="clip0_3696_9726">
      <rect width="17.3018" height="17.3018" fill="white" transform="translate(0.0585938 0.779541)"/>
    </clipPath>
  </defs>
</svg>