<svg  viewBox="0 0 29 29" fill="none" xmlns="http://www.w3.org/2000/svg">
  <path d="M25.4403 14.6307L11.2933 14.6307M25.4403 7.55722L11.2933 7.55722M25.4403 21.7043L11.2933 21.7043M6.57757 14.6307C6.57757 15.2818 6.04975 15.8097 5.39865 15.8097C4.74755 15.8097 4.21973 15.2818 4.21973 14.6307C4.21973 13.9796 4.74755 13.4518 5.39865 13.4518C6.04975 13.4518 6.57757 13.9796 6.57757 14.6307ZM6.57757 7.55722C6.57757 8.20832 6.04975 8.73614 5.39865 8.73614C4.74755 8.73614 4.21973 8.20832 4.21973 7.55722C4.21973 6.90612 4.74755 6.3783 5.39865 6.3783C6.04975 6.3783 6.57757 6.90612 6.57757 7.55722ZM6.57757 21.7043C6.57757 22.3554 6.04975 22.8832 5.39865 22.8832C4.74755 22.8832 4.21973 22.3554 4.21973 21.7043C4.21973 21.0532 4.74755 20.5254 5.39865 20.5254C6.04975 20.5254 6.57757 21.0532 6.57757 21.7043Z" stroke="black" stroke-linecap="round" stroke-linejoin="round"/>
</svg>