<svg xmlns="http://www.w3.org/2000/svg" width="18" height="18" viewBox="0 0 18 18" fill="none">
  <g clip-path="url(#clip0_3696_8225)">
    <path d="M1.97266 5.57776L7.8588 9.69806C8.33544 10.0317 8.57376 10.1985 8.83299 10.2631C9.06197 10.3202 9.30147 10.3202 9.53045 10.2631C9.78968 10.1985 10.028 10.0317 10.5046 9.69806L16.3908 5.57776M5.43301 14.9495H12.9304C14.1417 14.9495 14.7473 14.9495 15.2099 14.7138C15.6169 14.5065 15.9477 14.1756 16.1551 13.7687C16.3908 13.306 16.3908 12.7004 16.3908 11.4892V6.87539C16.3908 5.66415 16.3908 5.05853 16.1551 4.5959C15.9477 4.18896 15.6169 3.85811 15.2099 3.65076C14.7473 3.41504 14.1417 3.41504 12.9304 3.41504H5.43301C4.22177 3.41504 3.61615 3.41504 3.15352 3.65076C2.74658 3.85811 2.41573 4.18896 2.20838 4.5959C1.97266 5.05853 1.97266 5.66415 1.97266 6.87539V11.4892C1.97266 12.7004 1.97266 13.306 2.20838 13.7687C2.41573 14.1756 2.74658 14.5065 3.15352 14.7138C3.61615 14.9495 4.22177 14.9495 5.43301 14.9495Z" stroke-width="1.5045" stroke-linecap="round" stroke-linejoin="round"/>
  </g>
  <defs>
    <clipPath id="clip0_3696_8225">
      <rect width="17.3018" height="17.3018" fill="white" transform="translate(0.53125 0.531494)"/>
    </clipPath>
  </defs>
</svg>