<svg xmlns="http://www.w3.org/2000/svg" width="18" height="19" viewBox="0 0 18 19" fill="none">
  <g clip-path="url(#clip0_3696_9928)">
    <path d="M4.13538 11.1901C2.80072 11.7788 1.97266 12.5993 1.97266 13.5068C1.97266 15.2985 5.20026 16.7509 9.18172 16.7509C13.1632 16.7509 16.3908 15.2985 16.3908 13.5068C16.3908 12.5993 15.5627 11.7788 14.2281 11.1901M13.5072 6.6582C13.5072 9.58775 10.2631 10.9836 9.18172 13.1464C8.10036 10.9836 4.85628 9.58775 4.85628 6.6582C4.85628 4.26933 6.79285 2.33276 9.18172 2.33276C11.5706 2.33276 13.5072 4.26933 13.5072 6.6582ZM9.90263 6.6582C9.90263 7.05635 9.57986 7.37911 9.18172 7.37911C8.78357 7.37911 8.46081 7.05635 8.46081 6.6582C8.46081 6.26006 8.78357 5.9373 9.18172 5.9373C9.57986 5.9373 9.90263 6.26006 9.90263 6.6582Z" stroke-width="1.5045" stroke-linecap="round" stroke-linejoin="round"/>
  </g>
  <defs>
    <clipPath id="clip0_3696_9928">
      <rect width="17.3018" height="17.3018" fill="white" transform="translate(0.53125 0.890869)"/>
    </clipPath>
  </defs>
</svg>