<svg xmlns="http://www.w3.org/2000/svg" width="18" height="18" viewBox="0 0 18 18" fill="none">
  <g clip-path="url(#clip0_3696_9241)">
    <path d="M1.28906 15.6704V13.6519C1.28906 13.2554 1.39119 12.8829 1.59545 12.5345C1.7997 12.186 2.08206 11.9217 2.44251 11.7415C3.05528 11.4291 3.74615 11.1647 4.51512 10.9485C5.28409 10.7322 6.13115 10.6241 7.05631 10.6241C7.98148 10.6241 8.82854 10.7322 9.59751 10.9485C10.3665 11.1647 11.0573 11.4291 11.6701 11.7415C12.0306 11.9217 12.3129 12.186 12.5172 12.5345C12.7214 12.8829 12.8236 13.2554 12.8236 13.6519V15.6704H1.28906ZM2.73088 14.2286H11.3818V13.6519C11.3818 13.5197 11.3486 13.3996 11.2823 13.2914C11.2159 13.1833 11.129 13.0992 11.0213 13.0391C10.5888 12.8228 10.0329 12.6066 9.35384 12.3903C8.67475 12.174 7.9089 12.0659 7.05631 12.0659C6.20324 12.0659 5.43716 12.174 4.75806 12.3903C4.07897 12.6066 3.52339 12.8228 3.09133 13.0391C2.98319 13.0992 2.8962 13.1833 2.83036 13.2914C2.76452 13.3996 2.73136 13.5197 2.73088 13.6519V14.2286ZM7.05631 9.90315C6.26332 9.90315 5.58446 9.6208 5.01975 9.05609C4.45504 8.49138 4.17269 7.81253 4.17269 7.01953H3.99246C3.88433 7.01953 3.79734 6.98637 3.73149 6.92004C3.66565 6.85372 3.63249 6.76673 3.63201 6.65908C3.63201 6.55094 3.66517 6.46371 3.73149 6.39739C3.79782 6.33106 3.88481 6.29814 3.99246 6.29862H4.17269C4.17269 5.75794 4.30485 5.27133 4.56919 4.83879C4.83352 4.40624 5.18196 4.06381 5.6145 3.8115V4.49636C5.6145 4.60449 5.64766 4.69172 5.71399 4.75805C5.78031 4.82437 5.8673 4.85729 5.97495 4.85681C6.08309 4.85681 6.17032 4.82365 6.23664 4.75733C6.30297 4.691 6.33589 4.60401 6.33541 4.49636V3.52313C6.44354 3.48709 6.55769 3.45993 6.67784 3.44167C6.79799 3.42341 6.92415 3.41452 7.05631 3.415C7.18848 3.415 7.31464 3.42413 7.43479 3.44239C7.55494 3.46066 7.66908 3.48757 7.77722 3.52313V4.49636C7.77722 4.60449 7.81038 4.69172 7.8767 4.75805C7.94303 4.82437 8.03002 4.85729 8.13767 4.85681C8.24581 4.85681 8.33304 4.82365 8.39936 4.75733C8.46568 4.691 8.49861 4.60401 8.49813 4.49636V3.8115C8.93067 4.06381 9.27911 4.40624 9.54344 4.83879C9.80777 5.27133 9.93994 5.75794 9.93994 6.29862H10.1202C10.2283 6.29862 10.3155 6.33178 10.3819 6.39811C10.4482 6.46443 10.4811 6.55142 10.4806 6.65908C10.4806 6.76721 10.4475 6.85444 10.3811 6.92076C10.3148 6.98709 10.2278 7.02001 10.1202 7.01953H9.93994C9.93994 7.81253 9.65758 8.49138 9.09287 9.05609C8.52816 9.6208 7.84931 9.90315 7.05631 9.90315ZM7.05631 8.46134C7.45281 8.46134 7.79236 8.32004 8.07495 8.03745C8.35755 7.75485 8.49861 7.41555 8.49813 7.01953H5.6145C5.6145 7.41603 5.7558 7.75557 6.03839 8.03817C6.32099 8.32077 6.66029 8.46182 7.05631 8.46134ZM12.4631 11.345L12.355 10.8043C12.2829 10.7803 12.2139 10.7531 12.1481 10.7228C12.0822 10.6925 12.019 10.6476 11.9585 10.588L11.4538 10.7682L11.0934 10.1194L11.4899 9.75897V9.32643L11.0934 8.96598L11.4538 8.31716L11.9585 8.49739C12.0065 8.44933 12.0666 8.40727 12.1387 8.37123C12.2108 8.33518 12.2829 8.30515 12.355 8.28112L12.4631 7.74044H13.184L13.2922 8.28112C13.3642 8.30515 13.4363 8.33518 13.5084 8.37123C13.5805 8.40727 13.6406 8.44933 13.6887 8.49739L14.1933 8.31716L14.5537 8.96598L14.1572 9.32643V9.75897L14.5537 10.1194L14.1933 10.7682L13.6887 10.588C13.6286 10.6481 13.5654 10.6933 13.4991 10.7235C13.4327 10.7538 13.3638 10.7807 13.2922 10.8043L13.184 11.345H12.4631ZM12.8236 10.0834C12.9677 10.0834 13.0939 10.0293 13.202 9.92118C13.3102 9.81304 13.3642 9.68688 13.3642 9.5427C13.3642 9.39852 13.3102 9.27236 13.202 9.16423C13.0939 9.05609 12.9677 9.00202 12.8236 9.00202C12.6794 9.00202 12.5532 9.05609 12.4451 9.16423C12.337 9.27236 12.2829 9.39852 12.2829 9.5427C12.2829 9.68688 12.337 9.81304 12.4451 9.92118C12.5532 10.0293 12.6794 10.0834 12.8236 10.0834ZM14.1212 7.74044L13.977 6.98348C13.8689 6.94744 13.7699 6.90226 13.68 6.84795C13.5901 6.79365 13.5089 6.73069 13.4363 6.65908L12.6794 6.91139L12.1747 6.04631L12.7875 5.50563C12.7635 5.44555 12.7515 5.39749 12.7515 5.36144V5.07308C12.7515 5.03704 12.7635 4.98898 12.7875 4.9289L12.1747 4.38822L12.6794 3.52313L13.4363 3.77545C13.5084 3.70336 13.5896 3.64016 13.68 3.58585C13.7704 3.53154 13.8694 3.48661 13.977 3.45104L14.1212 2.69409H15.1305L15.2746 3.45104C15.3828 3.48709 15.482 3.53227 15.5724 3.58657C15.6627 3.64088 15.7437 3.70384 15.8153 3.77545L16.5723 3.52313L17.0769 4.38822L16.4641 4.9289C16.4882 4.98898 16.5002 5.03704 16.5002 5.07308V5.36144C16.5002 5.39749 16.4882 5.44555 16.4641 5.50563L17.0769 6.04631L16.5723 6.91139L15.8153 6.65908C15.7432 6.73117 15.6623 6.79437 15.5724 6.84867C15.4825 6.90298 15.3833 6.94792 15.2746 6.98348L15.1305 7.74044H14.1212ZM14.6258 6.1184C14.8781 6.1184 15.0915 6.03117 15.266 5.85671C15.4405 5.68225 15.5274 5.4691 15.527 5.21726C15.527 4.96495 15.4397 4.75156 15.2653 4.5771C15.0908 4.40264 14.8777 4.31565 14.6258 4.31613C14.3735 4.31613 14.1601 4.40336 13.9857 4.57782C13.8112 4.75228 13.7242 4.96543 13.7247 5.21726C13.7247 5.46958 13.8119 5.68297 13.9864 5.85743C14.1608 6.03189 14.374 6.11888 14.6258 6.1184Z" fill="#FCFCFD"/>
  </g>
  <defs>
    <clipPath id="clip0_3696_9241">
      <rect width="17.3018" height="17.3018" fill="white" transform="translate(0.53125 0.531494)"/>
    </clipPath>
  </defs>
</svg>