<svg xmlns="http://www.w3.org/2000/svg" width="18" height="18" viewBox="0 0 18 18" fill="none">
  <path d="M4.85608 16.3915V13.2916C4.17122 12.6668 3.63967 11.9368 3.26143 11.1015C2.8832 10.2662 2.69384 9.38623 2.69336 8.46155C2.69336 6.65928 3.32415 5.12735 4.58574 3.86577C5.84732 2.60418 7.37925 1.97339 9.18152 1.97339C10.6834 1.97339 12.0142 2.41506 13.1739 3.29841C14.3336 4.18177 15.0874 5.33209 15.4354 6.74939L16.3726 10.444C16.4326 10.6723 16.3906 10.8797 16.2464 11.0662C16.1022 11.2527 15.91 11.3457 15.6697 11.3452H14.2279V13.5079C14.2279 13.9044 14.0866 14.2439 13.804 14.5265C13.5214 14.8091 13.1821 14.9502 12.786 14.9497H11.3442V16.3915H9.90242V13.5079H12.786V9.90336H14.7325L14.0476 7.10985C13.7713 6.01647 13.1825 5.12735 12.2814 4.44249C11.3803 3.75763 10.347 3.4152 9.18152 3.4152C7.78776 3.4152 6.59827 3.90181 5.61303 4.87504C4.62779 5.84826 4.13517 7.03175 4.13517 8.4255C4.13517 9.14641 4.28248 9.83127 4.57709 10.4801C4.8717 11.1289 5.2891 11.7056 5.8293 12.2103L6.29789 12.6428V16.3915H4.85608ZM8.46061 11.3452H9.90242L10.0106 10.444C10.1067 10.408 10.1939 10.3659 10.2722 10.3179C10.3506 10.2698 10.4196 10.2158 10.4791 10.1557L11.3082 10.5161L12.0291 9.29059L11.3082 8.74991C11.3322 8.65379 11.3442 8.55767 11.3442 8.46155C11.3442 8.36542 11.3322 8.2693 11.3082 8.17318L12.0291 7.6325L11.3082 6.40696L10.4791 6.76742C10.4191 6.70734 10.3501 6.65327 10.2722 6.60521C10.1944 6.55715 10.1072 6.5151 10.0106 6.47905L9.90242 5.57792H8.46061L8.35247 6.47905C8.25635 6.5151 8.16936 6.55715 8.09151 6.60521C8.01365 6.65327 7.94444 6.70734 7.88388 6.76742L7.05484 6.40696L6.33394 7.6325L7.05484 8.17318C7.03081 8.2693 7.0188 8.36542 7.0188 8.46155C7.0188 8.55767 7.03081 8.65379 7.05484 8.74991L6.33394 9.29059L7.05484 10.5161L7.88388 10.1557C7.94396 10.2158 8.01317 10.2698 8.09151 10.3179C8.16984 10.3659 8.25683 10.408 8.35247 10.444L8.46061 11.3452ZM9.18152 9.5429C8.88114 9.5429 8.62594 9.43765 8.41591 9.22715C8.20589 9.01664 8.10064 8.76144 8.10016 8.46155C8.10016 8.16117 8.20541 7.90573 8.41591 7.69522C8.62642 7.48472 8.88162 7.37971 9.18152 7.38019C9.48189 7.38019 9.73733 7.48544 9.94784 7.69594C10.1583 7.90645 10.2634 8.16165 10.2629 8.46155C10.2629 8.76192 10.1576 9.01736 9.94712 9.22787C9.73661 9.43837 9.48141 9.54339 9.18152 9.5429Z" fill="#FCFCFD"/>
</svg>