<svg xmlns="http://www.w3.org/2000/svg" width="19" height="18" viewBox="0 0 19 18" fill="none">
  <g clip-path="url(#clip0_3696_8366)">
    <path d="M3.0293 15.8661H9.51745M8.79655 4.51332C9.25738 4.39471 9.7405 4.33162 10.2384 4.33162C13.4235 4.33162 16.0056 6.91371 16.0056 10.0989C16.0056 12.5192 14.5147 14.5914 12.4011 15.4469M4.83156 9.37797H7.71519C8.05016 9.37797 8.21765 9.37797 8.35692 9.40567C8.92888 9.51944 9.37598 9.96654 9.48975 10.5385C9.51745 10.6778 9.51745 10.8453 9.51745 11.1802C9.51745 11.5152 9.51745 11.6827 9.48975 11.822C9.37598 12.3939 8.92888 12.841 8.35692 12.9548C8.21765 12.9825 8.05016 12.9825 7.71519 12.9825H4.83156C4.49659 12.9825 4.3291 12.9825 4.18983 12.9548C3.61787 12.841 3.17077 12.3939 3.057 11.822C3.0293 11.6827 3.0293 11.5152 3.0293 11.1802C3.0293 10.8453 3.0293 10.6778 3.057 10.5385C3.17077 9.96654 3.61787 9.51944 4.18983 9.40567C4.3291 9.37797 4.49659 9.37797 4.83156 9.37797ZM3.7502 3.97117V9.37797H8.79655V3.97117C8.79655 2.57766 7.66688 1.448 6.27338 1.448C4.87987 1.448 3.7502 2.57766 3.7502 3.97117Z" stroke-width="1.5045" stroke-linecap="round" stroke-linejoin="round"/>
  </g>
  <defs>
    <clipPath id="clip0_3696_8366">
      <rect width="17.3018" height="17.3018" fill="white" transform="translate(0.867188 0.00610352)"/>
    </clipPath>
  </defs>
</svg>