<svg width="25" height="24" viewBox="0 0 25 24" fill="none" xmlns="http://www.w3.org/2000/svg">
  <path d="M12.4277 12H12.4327M17.4277 12H17.4327M7.42773 12H7.43273M5.62773 7H19.2277C20.3478 7 20.9079 7 21.3357 7.21799C21.712 7.40973 22.018 7.71569 22.2097 8.09202C22.4277 8.51984 22.4277 9.0799 22.4277 10.2V13.8C22.4277 14.9201 22.4277 15.4802 22.2097 15.908C22.018 16.2843 21.712 16.5903 21.3357 16.782C20.9079 17 20.3478 17 19.2277 17H5.62773C4.50763 17 3.94758 17 3.51975 16.782C3.14343 16.5903 2.83747 16.2843 2.64572 15.908C2.42773 15.4802 2.42773 14.9201 2.42773 13.8V10.2C2.42773 9.0799 2.42773 8.51984 2.64572 8.09202C2.83747 7.71569 3.14343 7.40973 3.51975 7.21799C3.94758 7 4.50763 7 5.62773 7ZM12.6777 12C12.6777 12.1381 12.5658 12.25 12.4277 12.25C12.2897 12.25 12.1777 12.1381 12.1777 12C12.1777 11.8619 12.2897 11.75 12.4277 11.75C12.5658 11.75 12.6777 11.8619 12.6777 12ZM17.6777 12C17.6777 12.1381 17.5658 12.25 17.4277 12.25C17.2897 12.25 17.1777 12.1381 17.1777 12C17.1777 11.8619 17.2897 11.75 17.4277 11.75C17.5658 11.75 17.6777 11.8619 17.6777 12ZM7.67773 12C7.67773 12.1381 7.56581 12.25 7.42773 12.25C7.28966 12.25 7.17773 12.1381 7.17773 12C7.17773 11.8619 7.28966 11.75 7.42773 11.75C7.56581 11.75 7.67773 11.8619 7.67773 12Z" stroke="#667085" stroke-linecap="round" stroke-linejoin="round"/>
</svg>