<svg viewBox="0 0 23 23" fill="none" xmlns="http://www.w3.org/2000/svg">
  <path d="M20.169 6.84589L16.1539 2.83077C16.0537 2.73026 15.9347 2.65051 15.8037 2.5961C15.6726 2.54168 15.5321 2.51367 15.3902 2.51367C15.2483 2.51367 15.1078 2.54168 14.9768 2.5961C14.8457 2.65051 14.7267 2.73026 14.6266 2.83077L11.9645 5.49554L3.55063 13.9103C3.45009 14.01 3.37036 14.1287 3.31607 14.2595C3.26178 14.3903 3.23401 14.5306 3.23438 14.6722V18.6873C3.23438 18.9732 3.34797 19.2475 3.55015 19.4496C3.75234 19.6518 4.02657 19.7654 4.3125 19.7654H8.32762C8.61333 19.7654 8.88735 19.652 9.0895 19.4501L20.1681 8.37054C20.2686 8.27038 20.3484 8.15136 20.4028 8.02031C20.4572 7.88926 20.4852 7.74876 20.4852 7.60687C20.4852 7.46497 20.4572 7.32447 20.4028 7.19342C20.3484 7.06237 20.2686 6.94336 20.1681 6.84319L20.169 6.84589ZM8.57918 18.9416C8.51239 19.0083 8.42203 19.046 8.32762 19.0467H4.3125C4.21719 19.0467 4.12578 19.0088 4.05839 18.9414C3.99099 18.874 3.95313 18.7826 3.95313 18.6873V14.6722C3.95309 14.625 3.96236 14.5782 3.98039 14.5346C3.99843 14.491 4.02488 14.4513 4.05825 14.4179L12.2188 6.25741L16.7415 10.781L8.57918 18.9416ZM19.6605 7.86202L17.25 10.2725L12.7273 5.7498L15.1369 3.33929C15.1703 3.30587 15.2099 3.27937 15.2535 3.26128C15.2971 3.2432 15.3439 3.23389 15.3911 3.23389C15.4384 3.23389 15.4851 3.2432 15.5288 3.26128C15.5724 3.27937 15.612 3.30587 15.6454 3.33929L19.6605 7.35351C19.6939 7.38688 19.7204 7.42652 19.7385 7.47015C19.7566 7.51377 19.7659 7.56054 19.7659 7.60776C19.7659 7.65499 19.7566 7.70176 19.7385 7.74538C19.7204 7.78901 19.6939 7.82865 19.6605 7.86202Z"/>
</svg>