<svg viewBox="0 0 24 25" fill="none" xmlns="http://www.w3.org/2000/svg">
<path d="M21.3103 7.37842L17.1216 3.18873C16.9823 3.0494 16.8169 2.93888 16.6349 2.86348C16.4529 2.78808 16.2578 2.74927 16.0608 2.74927C15.8638 2.74927 15.6687 2.78808 15.4867 2.86348C15.3047 2.93888 15.1393 3.0494 15 3.18873L3.43969 14.75C3.2998 14.8888 3.18889 15.054 3.11341 15.236C3.03792 15.418 2.99938 15.6132 3.00001 15.8103V20C3.00001 20.3978 3.15804 20.7793 3.43935 21.0606C3.72065 21.3419 4.10218 21.5 4.50001 21.5H8.6897C8.88675 21.5006 9.08197 21.4621 9.26399 21.3866C9.44602 21.3111 9.61122 21.2002 9.75001 21.0603L21.3103 9.49998C21.4496 9.36069 21.5602 9.19531 21.6356 9.0133C21.711 8.83129 21.7498 8.63621 21.7498 8.4392C21.7498 8.24219 21.711 8.0471 21.6356 7.86509C21.5602 7.68308 21.4496 7.51771 21.3103 7.37842ZM8.6897 20H4.50001V15.8103L12.75 7.56029L16.9397 11.75L8.6897 20ZM18 10.6887L13.8103 6.49998L16.0603 4.24998L20.25 8.43873L18 10.6887Z" fill="#343330"/>
</svg>