<svg xmlns="http://www.w3.org/2000/svg" width="18" height="19" viewBox="0 0 18 19" fill="none">
  <g clip-path="url(#clip0_3696_5224)">
    <path d="M4.04158 10.151C4.04158 11.3393 4.52078 12.4157 5.29649 13.1975C5.3713 13.2729 5.4087 13.3106 5.43078 13.3468C5.45185 13.3814 5.46412 13.4112 5.47353 13.4506C5.48339 13.4919 5.48339 13.5389 5.48339 13.6328V15.3415C5.48339 15.5434 5.48339 15.6443 5.52267 15.7214C5.55723 15.7892 5.61237 15.8444 5.6802 15.8789C5.7573 15.9182 5.85824 15.9182 6.06011 15.9182H7.42983C7.63171 15.9182 7.73264 15.9182 7.80975 15.8789C7.87757 15.8444 7.93272 15.7892 7.96727 15.7214C8.00656 15.6443 8.00656 15.5434 8.00656 15.3415V15.0531C8.00656 14.8512 8.00656 14.7503 8.04585 14.6732C8.0804 14.6054 8.13555 14.5502 8.20337 14.5157C8.28048 14.4764 8.38141 14.4764 8.58328 14.4764H9.59255C9.79443 14.4764 9.89536 14.4764 9.97247 14.5157C10.0403 14.5502 10.0954 14.6054 10.13 14.6732C10.1693 14.7503 10.1693 14.8512 10.1693 15.0531V15.3415C10.1693 15.5434 10.1693 15.6443 10.2086 15.7214C10.2431 15.7892 10.2983 15.8444 10.3661 15.8789C10.4432 15.9182 10.5441 15.9182 10.746 15.9182H12.1158C12.3176 15.9182 12.4186 15.9182 12.4957 15.8789C12.5635 15.8444 12.6187 15.7892 12.6532 15.7214C12.6925 15.6443 12.6925 15.5434 12.6925 15.3415V14.6381C12.6925 14.4924 12.6925 14.4196 12.7132 14.3611C12.7331 14.3051 12.7581 14.2659 12.8006 14.2243C12.8449 14.1808 12.9199 14.146 13.07 14.0763C13.7781 13.7476 14.3823 13.2329 14.82 12.5949C14.8969 12.4828 14.9354 12.4267 14.9765 12.3935C15.0158 12.3619 15.0511 12.3433 15.0994 12.3288C15.15 12.3137 15.21 12.3137 15.3301 12.3137H15.7203C15.9222 12.3137 16.0231 12.3137 16.1002 12.2744C16.168 12.2398 16.2232 12.1847 16.2577 12.1169C16.297 12.0398 16.297 11.9388 16.297 11.737V9.2756C16.297 9.08341 16.297 8.98732 16.2613 8.91319C16.2259 8.83963 16.1666 8.78028 16.093 8.74485C16.0189 8.70914 15.9228 8.70914 15.7306 8.70914C15.5915 8.70914 15.5219 8.70914 15.4659 8.69026C15.4055 8.6699 15.3631 8.64281 15.3193 8.59652C15.2786 8.55359 15.2455 8.4818 15.1791 8.33822C14.9661 7.87738 14.6744 7.46037 14.3212 7.10443C14.2464 7.02904 14.209 6.99134 14.1869 6.95509C14.1658 6.9205 14.1536 6.89072 14.1442 6.85133C14.1343 6.81004 14.1343 6.76306 14.1343 6.66911V5.86919C14.1343 5.60963 14.1343 5.47985 14.0803 5.39262C14.0329 5.3162 13.9587 5.26024 13.8722 5.23571C13.7735 5.2077 13.6487 5.24335 13.3992 5.31466L11.6888 5.80333C11.6597 5.81164 11.6452 5.81579 11.6304 5.8187C11.6173 5.82129 11.604 5.82315 11.5907 5.82426C11.5757 5.82552 11.5605 5.82552 11.5303 5.82552H11.2212M4.04158 10.151C4.04158 8.48994 4.97783 7.0476 6.35139 6.32288M4.04158 10.151H3.32072C2.52443 10.151 1.87891 9.50544 1.87891 8.70914C1.87891 8.17547 2.16885 7.70952 2.59981 7.46022M11.2507 5.46507C11.2507 6.85858 10.121 7.98824 8.72752 7.98824C7.33401 7.98824 6.20434 6.85858 6.20434 5.46507C6.20434 4.07156 7.33401 2.94189 8.72752 2.94189C10.121 2.94189 11.2507 4.07156 11.2507 5.46507Z" stroke-width="1.5045" stroke-linecap="round" stroke-linejoin="round"/>
  </g>
  <defs>
    <clipPath id="clip0_3696_5224">
      <rect width="17.3018" height="17.3018" fill="white" transform="translate(0.4375 0.779297)"/>
    </clipPath>
  </defs>
</svg>