<svg xmlns="http://www.w3.org/2000/svg" width="18" height="18" viewBox="0 0 18 18" fill="none">
  <g clip-path="url(#clip0_3696_5175)">
    <path d="M8.80281 12.2004V15.8049M8.80281 12.2004L13.1283 15.8049M8.80281 12.2004L4.47738 15.8049M15.291 2.82861V8.74004C15.291 9.95128 15.291 10.5569 15.0552 11.0195C14.8479 11.4265 14.517 11.7573 14.1101 11.9647C13.6475 12.2004 13.0419 12.2004 11.8306 12.2004H5.77501C4.56377 12.2004 3.95815 12.2004 3.49552 11.9647C3.08858 11.7573 2.75773 11.4265 2.55038 11.0195C2.31466 10.5569 2.31466 9.95128 2.31466 8.74004V2.82861M5.91919 7.15405V9.31677M8.80281 5.71224V9.31677M11.6864 8.59586V9.31677M16.0119 2.82861H1.59375" stroke-width="1.5045" stroke-linecap="round" stroke-linejoin="round"/>
  </g>
  <defs>
    <clipPath id="clip0_3696_5175">
      <rect width="17.3018" height="17.3018" fill="white" transform="translate(0.152344 0.666016)"/>
    </clipPath>
  </defs>
</svg>