<svg width="15" height="16" viewBox="0 0 15 16" fill="none" xmlns="http://www.w3.org/2000/svg">
<path d="M13.164 1.96106L4.05675 0.352872C3.76459 0.301459 3.46397 0.368188 3.22101 0.538384C2.97804 0.70858 2.81261 0.968307 2.76111 1.26045L0.68095 13.0771C0.655508 13.2219 0.658841 13.3703 0.690759 13.5137C0.722677 13.6572 0.782554 13.793 0.866969 13.9133C0.951384 14.0336 1.05868 14.1362 1.18273 14.215C1.30678 14.2938 1.44515 14.3475 1.58993 14.3728L10.6972 15.981C10.842 16.0065 10.9904 16.0033 11.134 15.9714C11.2775 15.9395 11.4134 15.8797 11.5338 15.7952C11.6542 15.7108 11.7568 15.6035 11.8357 15.4794C11.9145 15.3553 11.9682 15.2169 11.9935 15.072L14.0737 3.2553C14.1246 2.96305 14.0574 2.66252 13.8868 2.41981C13.7162 2.17711 13.4562 2.01209 13.164 1.96106ZM10.8902 14.879L1.78221 13.2708L3.86237 1.45413L12.9696 3.06232L10.8902 14.879ZM4.67276 3.30145C4.69867 3.15544 4.7815 3.02569 4.90304 2.94072C5.02459 2.85576 5.1749 2.82254 5.32093 2.84836L11.1244 3.87271C11.2623 3.89687 11.3862 3.97188 11.4715 4.08293C11.5568 4.19397 11.5973 4.33297 11.5851 4.47247C11.5729 4.61196 11.5088 4.7418 11.4055 4.83634C11.3022 4.93087 11.1672 4.98323 11.0272 4.98306C10.9944 4.98302 10.9617 4.98021 10.9293 4.97467L5.12585 3.94962C4.97983 3.92371 4.85008 3.84088 4.76512 3.71934C4.68016 3.59779 4.64693 3.44748 4.67276 3.30145ZM4.28539 5.50537C4.29814 5.43301 4.32502 5.36387 4.3645 5.3019C4.40398 5.23992 4.45528 5.18634 4.51547 5.1442C4.57566 5.10206 4.64356 5.07219 4.7153 5.0563C4.78704 5.04041 4.86121 5.0388 4.93356 5.05158L10.737 6.07663C10.8759 6.09986 11.0009 6.17462 11.0871 6.286C11.1733 6.39737 11.2143 6.53715 11.202 6.67743C11.1896 6.81771 11.1248 6.94817 11.0205 7.04275C10.9161 7.13734 10.78 7.18909 10.6391 7.18768C10.6061 7.18774 10.5731 7.1847 10.5406 7.17859L4.73708 6.15424C4.59118 6.12801 4.46166 6.04494 4.37696 5.92328C4.29227 5.80161 4.25934 5.6513 4.28539 5.50537ZM3.89733 7.70859C3.92373 7.56296 4.00676 7.43373 4.12825 7.3492C4.24974 7.26467 4.39978 7.23173 4.5455 7.2576L7.44584 7.76733C7.5837 7.79148 7.7075 7.86644 7.7928 7.97741C7.8781 8.08838 7.9187 8.22729 7.90658 8.36673C7.89447 8.50617 7.83051 8.636 7.72735 8.7306C7.62419 8.82519 7.48931 8.87767 7.34934 8.87768C7.31654 8.87766 7.28379 8.87485 7.25145 8.86929L4.34972 8.35676C4.20383 8.33069 4.07426 8.24779 3.98944 8.12626C3.90462 8.00474 3.87149 7.85452 3.89733 7.70859Z" fill="#343330"/>
</svg>
