<svg xmlns="http://www.w3.org/2000/svg" width="18" height="19" viewBox="0 0 18 19" fill="none">
  <path d="M8.89744 11.5927L6.73472 9.42994M8.89744 11.5927C9.90443 11.2097 10.8705 10.7267 11.7811 10.1509M8.89744 11.5927V15.1972C8.89744 15.1972 11.0818 14.8007 11.7811 13.7554C12.5596 12.5875 11.7811 10.1509 11.7811 10.1509M6.73472 9.42994C7.11835 8.43468 7.6014 7.48066 8.17653 6.58236C9.01652 5.23931 10.1861 4.13348 11.5742 3.37007C12.9622 2.60666 14.5224 2.21106 16.1065 2.22088C16.1065 4.18175 15.5442 7.62768 11.7811 10.1509M6.73472 9.42994H3.13019C3.13019 9.42994 3.52669 7.2456 4.572 6.54632C5.73987 5.76774 8.17653 6.54632 8.17653 6.54632M3.49064 12.674C2.40928 13.5824 2.04883 16.2786 2.04883 16.2786C2.04883 16.2786 4.74502 15.9181 5.65336 14.8367C6.1652 14.2312 6.15799 13.3012 5.58848 12.7389C5.30827 12.4715 4.93915 12.3169 4.55198 12.3049C4.1648 12.293 3.78684 12.4244 3.49064 12.674Z" stroke-width="1.5045" stroke-linecap="round" stroke-linejoin="round"/>
</svg>