<svg xmlns="http://www.w3.org/2000/svg" width="18" height="19" viewBox="0 0 18 19" fill="none">
  <path d="M10.9851 4.7442L12.0665 5.82556M8.82238 6.90692L9.90374 7.98828M6.65966 9.06964L7.74102 10.151M4.49694 11.2324L5.5783 12.3137M2.38155 13.4425L5.17047 16.2314C5.31321 16.3741 5.38459 16.4455 5.46689 16.4722C5.53928 16.4958 5.61726 16.4958 5.68966 16.4722C5.77196 16.4455 5.84333 16.3741 5.98608 16.2314L15.9841 6.23339C16.1268 6.09065 16.1982 6.01928 16.2249 5.93697C16.2484 5.86458 16.2484 5.7866 16.2249 5.7142C16.1982 5.6319 16.1268 5.56053 15.9841 5.41778L13.1951 2.62886C13.0524 2.48612 12.981 2.41474 12.8987 2.388C12.8263 2.36448 12.7483 2.36448 12.676 2.388C12.5936 2.41474 12.5223 2.48612 12.3795 2.62886L2.38155 12.6268C2.2388 12.7696 2.16743 12.841 2.14069 12.9233C2.11717 12.9957 2.11717 13.0736 2.14069 13.146C2.16743 13.2283 2.2388 13.2997 2.38155 13.4425Z" stroke-width="1.5045" stroke-linecap="round" stroke-linejoin="round"/>
</svg>