<svg xmlns="http://www.w3.org/2000/svg" width="18" height="19" viewBox="0 0 18 19" fill="none">
  <g clip-path="url(#clip0_3696_11529)">
    <path d="M1.86159 10.2627H6.18703M11.2334 10.2627H15.5588M8.7102 5.93729V16.03M8.7102 5.93729C9.70557 5.93729 10.5125 5.13039 10.5125 4.13503M8.7102 5.93729C7.71484 5.93729 6.90794 5.13039 6.90794 4.13503M2.94295 16.03L14.4775 16.03M2.94295 4.13503L6.90794 4.13503M6.90794 4.13503C6.90794 3.13967 7.71484 2.33276 8.7102 2.33276C9.70557 2.33276 10.5125 3.13966 10.5125 4.13503M10.5125 4.13503L14.4775 4.13503M6.46129 11.2261C6.17243 12.3322 5.19081 13.1464 4.02431 13.1464C2.85781 13.1464 1.87619 12.3322 1.58733 11.2261C1.56373 11.1357 1.55193 11.0906 1.55079 10.91C1.55009 10.7993 1.59122 10.5441 1.62666 10.4393C1.68447 10.2682 1.74704 10.1717 1.8722 9.97861L4.02431 6.6582L6.17642 9.97861C6.30158 10.1717 6.36415 10.2682 6.42196 10.4393C6.4574 10.5441 6.49853 10.7993 6.49783 10.91C6.49669 11.0906 6.48489 11.1357 6.46129 11.2261ZM15.8331 11.2261C15.5442 12.3322 14.5626 13.1464 13.3961 13.1464C12.2296 13.1464 11.248 12.3322 10.9591 11.2261C10.9355 11.1357 10.9237 11.0906 10.9226 10.91C10.9219 10.7993 10.963 10.5441 10.9984 10.4393C11.0563 10.2682 11.1188 10.1717 11.244 9.97861L13.3961 6.6582L15.5482 9.97861C15.6734 10.1717 15.7359 10.2682 15.7937 10.4393C15.8292 10.5441 15.8703 10.7993 15.8696 10.91C15.8685 11.0906 15.8567 11.1357 15.8331 11.2261Z" stroke-width="1.5045" stroke-linecap="round" stroke-linejoin="round"/>
  </g>
  <defs>
    <clipPath id="clip0_3696_11529">
      <rect width="17.3018" height="17.3018" fill="white" transform="translate(0.0585938 0.890869)"/>
    </clipPath>
  </defs>
</svg>