<svg xmlns="http://www.w3.org/2000/svg" width="19" height="19" viewBox="0 0 19 19" fill="none">
  <path d="M16.7267 8.46037L16.3847 5.72426C16.2506 4.65111 16.1835 4.11452 15.9309 3.71017C15.7084 3.35391 15.387 3.07016 15.0059 2.89356C14.5733 2.69312 14.0326 2.69312 12.9511 2.69312H6.08424C5.00272 2.69312 4.46197 2.69312 4.02941 2.89356C3.64831 3.07016 3.32688 3.35391 3.10437 3.71017C2.85182 4.11452 2.78475 4.6511 2.65061 5.72426L2.30859 8.46037M4.83177 11.344H14.2035M4.83177 11.344C3.43826 11.344 2.30859 10.2143 2.30859 8.82082C2.30859 7.42731 3.43826 6.29765 4.83177 6.29765H14.2035C15.5971 6.29765 16.7267 7.42731 16.7267 8.82082C16.7267 10.2143 15.5971 11.344 14.2035 11.344M4.83177 11.344C3.43826 11.344 2.30859 12.4737 2.30859 13.8672C2.30859 15.2607 3.43826 16.3903 4.83177 16.3903H14.2035C15.5971 16.3903 16.7267 15.2607 16.7267 13.8672C16.7267 12.4737 15.5971 11.344 14.2035 11.344M5.19222 8.82082H5.19943M5.19222 13.8672H5.19943M9.51766 8.82082H13.8431M9.51766 13.8672H13.8431" stroke-width="1.5045" stroke-linecap="round" stroke-linejoin="round"/>
</svg>