<svg xmlns="http://www.w3.org/2000/svg" width="19" height="19" viewBox="0 0 19 19" fill="none">
  <path d="M7.44869 13.1464L3.84416 16.7509M11.7741 13.1464L15.3787 16.7509M9.61141 2.33276V3.77458M9.61141 16.7509V13.1464M4.70924 13.1464H14.5136C15.3211 13.1464 15.7248 13.1464 16.0332 12.9892C16.3045 12.851 16.5251 12.6304 16.6633 12.3591C16.8205 12.0507 16.8205 11.6469 16.8205 10.8395V6.08148C16.8205 5.27399 16.8205 4.87024 16.6633 4.56182C16.5251 4.29053 16.3045 4.06996 16.0332 3.93172C15.7248 3.77458 15.3211 3.77458 14.5136 3.77458H4.70924C3.90175 3.77458 3.49801 3.77458 3.18959 3.93172C2.91829 4.06996 2.69772 4.29053 2.55949 4.56182C2.40234 4.87024 2.40234 5.27399 2.40234 6.08148V10.8395C2.40234 11.6469 2.40234 12.0507 2.55949 12.3591C2.69772 12.6304 2.91829 12.851 3.18959 12.9892C3.49801 13.1464 3.90175 13.1464 4.70924 13.1464Z" stroke-width="1.5045" stroke-linecap="round" stroke-linejoin="round"/>
</svg>