<svg width="20" height="21" font-weight="normal" viewBox="0 0 24 25" fill="none" xmlns="http://www.w3.org/2000/svg">
<path d="M9 4.25V8H5.25C5.05109 8 4.86032 8.07902 4.71967 8.21967C4.57902 8.36032 4.5 8.55109 4.5 8.75L4.5 20H3.75C3.55109 20 3.36032 20.079 3.21967 20.2197C3.07902 20.3603 3 20.5511 3 20.75C3 20.9489 3.07902 21.1397 3.21967 21.2803C3.36032 21.421 3.55109 21.5 3.75 21.5L20.25 21.5C20.4489 21.5 20.6397 21.421 20.7803 21.2803C20.921 21.1397 21 20.9489 21 20.75C21 20.5511 20.921 20.3603 20.7803 20.2197C20.6397 20.079 20.4489 20 20.25 20H19.5V11.75C19.5 11.5511 19.421 11.3603 19.2803 11.2197C19.1397 11.079 18.9489 11 18.75 11H15V4.25C15 4.05109 14.921 3.86032 14.7803 3.71967C14.6397 3.57902 14.4489 3.5 14.25 3.5H9.75C9.55109 3.5 9.36032 3.57902 9.21967 3.71967C9.07902 3.86032 9 4.05109 9 4.25ZM6 9.5H9L9 20H6L6 9.5ZM18 12.5V20H15L15 12.5H18ZM13.5 5L13.5 20H10.5L10.5 5H13.5Z" fill="#8C8C8C"/>
<path d="M9 4.25V8H5.25C5.05109 8 4.86032 8.07902 4.71967 8.21967C4.57902 8.36032 4.5 8.55109 4.5 8.75L4.5 20H3.75C3.55109 20 3.36032 20.079 3.21967 20.2197C3.07902 20.3603 3 20.5511 3 20.75C3 20.9489 3.07902 21.1397 3.21967 21.2803C3.36032 21.421 3.55109 21.5 3.75 21.5L20.25 21.5C20.4489 21.5 20.6397 21.421 20.7803 21.2803C20.921 21.1397 21 20.9489 21 20.75C21 20.5511 20.921 20.3603 20.7803 20.2197C20.6397 20.079 20.4489 20 20.25 20H19.5V11.75C19.5 11.5511 19.421 11.3603 19.2803 11.2197C19.1397 11.079 18.9489 11 18.75 11H15V4.25C15 4.05109 14.921 3.86032 14.7803 3.71967C14.6397 3.57902 14.4489 3.5 14.25 3.5H9.75C9.55109 3.5 9.36032 3.57902 9.21967 3.71967C9.07902 3.86032 9 4.05109 9 4.25ZM6 9.5H9L9 20H6L6 9.5ZM18 12.5V20H15L15 12.5H18ZM13.5 5L13.5 20H10.5L10.5 5H13.5Z" fill="#8C8C8C"/>
<path d="M9 4.25V8H5.25C5.05109 8 4.86032 8.07902 4.71967 8.21967C4.57902 8.36032 4.5 8.55109 4.5 8.75L4.5 20H3.75C3.55109 20 3.36032 20.079 3.21967 20.2197C3.07902 20.3603 3 20.5511 3 20.75C3 20.9489 3.07902 21.1397 3.21967 21.2803C3.36032 21.421 3.55109 21.5 3.75 21.5L20.25 21.5C20.4489 21.5 20.6397 21.421 20.7803 21.2803C20.921 21.1397 21 20.9489 21 20.75C21 20.5511 20.921 20.3603 20.7803 20.2197C20.6397 20.079 20.4489 20 20.25 20H19.5V11.75C19.5 11.5511 19.421 11.3603 19.2803 11.2197C19.1397 11.079 18.9489 11 18.75 11H15V4.25C15 4.05109 14.921 3.86032 14.7803 3.71967C14.6397 3.57902 14.4489 3.5 14.25 3.5H9.75C9.55109 3.5 9.36032 3.57902 9.21967 3.71967C9.07902 3.86032 9 4.05109 9 4.25ZM6 9.5H9L9 20H6L6 9.5ZM18 12.5V20H15L15 12.5H18ZM13.5 5L13.5 20H10.5L10.5 5H13.5Z" fill="#8C8C8C"/>
</svg>
