<svg xmlns="http://www.w3.org/2000/svg" width="18" height="18" viewBox="0 0 18 18" fill="none">
  <g clip-path="url(#clip0_3696_1269)">
    <path d="M1.87314 8.74841L16.0853 2.28497M16.0853 2.28497L13.4282 1.28394M16.0853 2.28497L15.0966 4.94202M16.7156 17.3622H13.626V8.71133C13.626 8.54745 13.6911 8.39028 13.807 8.27439C13.9228 8.15851 14.08 8.09341 14.2439 8.09341H16.0976C16.2615 8.09341 16.4187 8.15851 16.5346 8.27439C16.6505 8.39028 16.7156 8.54745 16.7156 8.71133V17.3622ZM10.5364 17.3622H7.44677V10.5651C7.44677 10.4012 7.51188 10.244 7.62776 10.1282C7.74364 10.0123 7.90081 9.94717 8.06469 9.94717H9.91845C10.0823 9.94717 10.2395 10.0123 10.3554 10.1282C10.4713 10.244 10.5364 10.4012 10.5364 10.5651V17.3622ZM4.35718 17.3622H1.26758V12.4188C1.26758 12.255 1.33268 12.0978 1.44856 11.9819C1.56444 11.866 1.72162 11.8009 1.8855 11.8009H3.73926C3.90314 11.8009 4.06031 11.866 4.17619 11.9819C4.29207 12.0978 4.35718 12.255 4.35718 12.4188V17.3622Z" stroke-width="1.5045" stroke-linecap="round" stroke-linejoin="round"/>
  </g>
  <defs>
    <clipPath id="clip0_3696_1269">
      <rect width="17.3018" height="17.3018" fill="white" transform="translate(0.339844 0.66626)"/>
    </clipPath>
  </defs>
</svg>