<svg viewBox="0 0 60 61" fill="none" xmlns="http://www.w3.org/2000/svg">
  <path d="M52.7957 14.9938L30.2957 7.49382C30.1025 7.42914 29.8936 7.42914 29.7004 7.49382L7.20039 14.9938C7.01413 15.0562 6.85215 15.1755 6.73735 15.3349C6.62254 15.4943 6.5607 15.6857 6.56055 15.8821V34.6321C6.56055 34.8807 6.65932 35.1192 6.83513 35.295C7.01095 35.4708 7.24941 35.5696 7.49805 35.5696C7.74669 35.5696 7.98514 35.4708 8.16096 35.295C8.33677 35.1192 8.43555 34.8807 8.43555 34.6321V17.1829L18.7199 20.6118C17.4501 22.3173 16.5836 24.2887 16.1856 26.3774C15.7876 28.4662 15.8685 30.618 16.4221 32.671C16.9758 34.724 17.9878 36.6247 19.382 38.2302C20.7762 39.8356 22.5163 41.104 24.4715 41.9399C19.5824 43.2852 15.3309 46.4235 12.3379 50.9985C12.2139 51.2066 12.1753 51.4546 12.2301 51.6905C12.2849 51.9264 12.4289 52.132 12.632 52.2641C12.835 52.3962 13.0812 52.4446 13.3191 52.3992C13.5571 52.3537 13.7682 52.218 13.9082 52.0204C17.616 46.3321 23.4824 43.0696 29.998 43.0696C36.5137 43.0696 42.3801 46.3321 46.0879 52.018C46.2279 52.2157 46.439 52.3514 46.6769 52.3968C46.9149 52.4423 47.1611 52.3939 47.3641 52.2617C47.5671 52.1296 47.7111 51.9241 47.766 51.6882C47.8208 51.4522 47.7822 51.2042 47.6582 50.9962C44.677 46.4212 40.4137 43.2829 35.5246 41.9376C37.4798 41.1017 39.2199 39.8333 40.6141 38.2278C42.0083 36.6224 43.0203 34.7217 43.574 32.6687C44.1276 30.6157 44.2085 28.4638 43.8105 26.3751C43.4125 24.2863 42.546 22.315 41.2762 20.6094L52.7957 16.768C52.9816 16.7053 53.1431 16.5859 53.2575 16.4265C53.3719 16.2672 53.4334 16.0759 53.4334 15.8798C53.4334 15.6836 53.3719 15.4924 53.2575 15.333C53.1431 15.1737 52.9816 15.0542 52.7957 14.9915V14.9938ZM42.1855 29.0071C42.1856 30.9627 41.7151 32.8897 40.8137 34.6252C39.9122 36.3607 38.6064 37.8538 37.0065 38.9784C35.4065 40.103 33.5594 40.826 31.6212 41.0865C29.683 41.347 27.7105 41.1372 25.8705 40.4748C24.0304 39.8125 22.3767 38.7171 21.0491 37.2812C19.7215 35.8452 18.759 34.1108 18.2428 32.2245C17.7266 30.3382 17.6719 28.3554 18.0833 26.4436C18.4947 24.5317 19.3602 22.7469 20.6066 21.2399L29.7004 24.2704C29.8934 24.3359 30.1027 24.3359 30.2957 24.2704L39.3895 21.2399C41.1993 23.4234 42.1884 26.1711 42.1855 29.0071ZM29.998 22.393L10.4629 15.8821L29.998 9.37116L49.5332 15.8821L29.998 22.393Z"/>
</svg>