<svg width="25" height="24" viewBox="0 0 25 24" fill="none" xmlns="http://www.w3.org/2000/svg">
  <path d="M18.4276 15.8369C19.8835 16.5683 21.1317 17.742 22.0428 19.2096C22.2232 19.5003 22.3135 19.6456 22.3446 19.8468C22.408 20.2558 22.1284 20.7585 21.7475 20.9204C21.5601 21 21.3492 21 20.9276 21M16.4276 11.5322C17.9093 10.7959 18.9276 9.26686 18.9276 7.5C18.9276 5.73314 17.9093 4.20411 16.4276 3.46776M14.4276 7.5C14.4276 9.98528 12.4129 12 9.92757 12C7.44229 12 5.42757 9.98528 5.42757 7.5C5.42757 5.01472 7.44229 3 9.92757 3C12.4129 3 14.4276 5.01472 14.4276 7.5ZM2.9868 18.9383C4.58111 16.5446 7.09694 15 9.92757 15C12.7582 15 15.274 16.5446 16.8683 18.9383C17.2176 19.4628 17.3922 19.725 17.3721 20.0599C17.3565 20.3207 17.1855 20.64 16.9771 20.7976C16.7095 21 16.3414 21 15.6052 21H4.24993C3.51374 21 3.14565 21 2.87801 20.7976C2.66962 20.64 2.49866 20.3207 2.483 20.0599C2.4629 19.725 2.63753 19.4628 2.9868 18.9383Z"  stroke-linecap="round" stroke-linejoin="round"/>
</svg>