<svg width="25" height="24" viewBox="0 0 25 24" fill="none" xmlns="http://www.w3.org/2000/svg">
  <path d="M12.9277 21L12.8277 20.8499C12.133 19.808 11.7857 19.287 11.3268 18.9098C10.9206 18.5759 10.4525 18.3254 9.94934 18.1726C9.38098 18 8.75484 18 7.50256 18H6.12773C5.00763 18 4.44758 18 4.01975 17.782C3.64343 17.5903 3.33747 17.2843 3.14572 16.908C2.92773 16.4802 2.92773 15.9201 2.92773 14.8V6.2C2.92773 5.07989 2.92773 4.51984 3.14572 4.09202C3.33747 3.71569 3.64343 3.40973 4.01975 3.21799C4.44758 3 5.00763 3 6.12773 3H6.52773C8.76794 3 9.88805 3 10.7437 3.43597C11.4963 3.81947 12.1083 4.43139 12.4918 5.18404C12.9277 6.03968 12.9277 7.15979 12.9277 9.4M12.9277 21V9.4M12.9277 21L13.0278 20.8499C13.7224 19.808 14.0698 19.287 14.5286 18.9098C14.9349 18.5759 15.403 18.3254 15.9061 18.1726C16.4745 18 17.1006 18 18.3529 18H19.7277C20.8478 18 21.4079 18 21.8357 17.782C22.212 17.5903 22.518 17.2843 22.7097 16.908C22.9277 16.4802 22.9277 15.9201 22.9277 14.8V6.2C22.9277 5.07989 22.9277 4.51984 22.7097 4.09202C22.518 3.71569 22.212 3.40973 21.8357 3.21799C21.4079 3 20.8478 3 19.7277 3H19.3277C17.0875 3 15.9674 3 15.1118 3.43597C14.3591 3.81947 13.7472 4.43139 13.3637 5.18404C12.9277 6.03968 12.9277 7.15979 12.9277 9.4" stroke="#667085" stroke-linecap="round" stroke-linejoin="round"/>
</svg>