<svg viewBox="0 0 25 24" fill="none" xmlns="http://www.w3.org/2000/svg">
  <path d="M6.52734 6L11.0273 10.5M6.52734 6H3.52734L2.52734 3L3.52734 2L6.52734 3V6ZM19.7863 2.74101L17.1587 5.36863C16.7627 5.76465 16.5647 5.96265 16.4905 6.19098C16.4252 6.39183 16.4252 6.60817 16.4905 6.80902C16.5647 7.03735 16.7627 7.23535 17.1587 7.63137L17.396 7.86863C17.792 8.26465 17.99 8.46265 18.2183 8.53684C18.4192 8.6021 18.6355 8.6021 18.8364 8.53684C19.0647 8.46265 19.2627 8.26465 19.6587 7.86863L22.1166 5.41072C22.3814 6.05488 22.5273 6.76039 22.5273 7.5C22.5273 10.5376 20.0649 13 17.0273 13C16.6611 13 16.3033 12.9642 15.9571 12.8959C15.471 12.8001 15.2279 12.7521 15.0805 12.7668C14.9239 12.7824 14.8467 12.8059 14.7079 12.8802C14.5773 12.9501 14.4463 13.081 14.1844 13.343L7.02734 20.5C6.19892 21.3284 4.85577 21.3284 4.02735 20.5C3.19892 19.6716 3.19892 18.3284 4.02735 17.5L11.1844 10.343C11.4463 10.081 11.5773 9.95005 11.6472 9.81949C11.7214 9.68068 11.7449 9.60347 11.7605 9.44681C11.7752 9.29945 11.7273 9.05638 11.6314 8.57024C11.5631 8.22406 11.5273 7.86621 11.5273 7.5C11.5273 4.46243 13.9898 2 17.0273 2C18.0328 2 18.9753 2.26982 19.7863 2.74101ZM12.5274 14.9999L18.0273 20.4999C18.8558 21.3283 20.1989 21.3283 21.0273 20.4999C21.8558 19.6715 21.8558 18.3283 21.0273 17.4999L16.5027 12.9753C16.1824 12.945 15.8701 12.8872 15.5681 12.8043C15.1791 12.6975 14.7523 12.7751 14.467 13.0603L12.5274 14.9999Z" stroke-linecap="round" stroke-linejoin="round"/>
</svg>