<svg viewBox="0 0 23 23" fill="none" xmlns="http://www.w3.org/2000/svg">
  <path d="M19.4062 4.67188H15.4531V3.59375C15.4531 3.11719 15.2638 2.66015 14.9268 2.32317C14.5899 1.98619 14.1328 1.79688 13.6562 1.79688H9.34375C8.86719 1.79688 8.41015 1.98619 8.07317 2.32317C7.73619 2.66015 7.54688 3.11719 7.54688 3.59375V4.67188H3.59375C3.49844 4.67188 3.40703 4.70974 3.33963 4.77713C3.27224 4.84453 3.23438 4.93594 3.23438 5.03125C3.23438 5.12656 3.27224 5.21797 3.33963 5.28537C3.40703 5.35276 3.49844 5.39062 3.59375 5.39062H4.67188V18.6875C4.67188 18.9734 4.78546 19.2477 4.98765 19.4498C5.18984 19.652 5.46406 19.7656 5.75 19.7656H17.25C17.5359 19.7656 17.8102 19.652 18.0123 19.4498C18.2145 19.2477 18.3281 18.9734 18.3281 18.6875V5.39062H19.4062C19.5016 5.39062 19.593 5.35276 19.6604 5.28537C19.7278 5.21797 19.7656 5.12656 19.7656 5.03125C19.7656 4.93594 19.7278 4.84453 19.6604 4.77713C19.593 4.70974 19.5016 4.67188 19.4062 4.67188ZM8.26562 3.59375C8.26562 3.30781 8.37921 3.03359 8.5814 2.8314C8.78359 2.62921 9.05781 2.51562 9.34375 2.51562H13.6562C13.9422 2.51562 14.2164 2.62921 14.4186 2.8314C14.6208 3.03359 14.7344 3.30781 14.7344 3.59375V4.67188H8.26562V3.59375ZM17.6094 18.6875C17.6094 18.7828 17.5715 18.8742 17.5041 18.9416C17.4367 19.009 17.3453 19.0469 17.25 19.0469H5.75C5.65469 19.0469 5.56328 19.009 5.49588 18.9416C5.42849 18.8742 5.39062 18.7828 5.39062 18.6875V5.39062H17.6094V18.6875ZM9.70312 9.34375V15.0938C9.70312 15.1891 9.66526 15.2805 9.59787 15.3479C9.53047 15.4153 9.43906 15.4531 9.34375 15.4531C9.24844 15.4531 9.15703 15.4153 9.08963 15.3479C9.02224 15.2805 8.98438 15.1891 8.98438 15.0938V9.34375C8.98438 9.24844 9.02224 9.15703 9.08963 9.08963C9.15703 9.02224 9.24844 8.98438 9.34375 8.98438C9.43906 8.98438 9.53047 9.02224 9.59787 9.08963C9.66526 9.15703 9.70312 9.24844 9.70312 9.34375ZM14.0156 9.34375V15.0938C14.0156 15.1891 13.9778 15.2805 13.9104 15.3479C13.843 15.4153 13.7516 15.4531 13.6562 15.4531C13.5609 15.4531 13.4695 15.4153 13.4021 15.3479C13.3347 15.2805 13.2969 15.1891 13.2969 15.0938V9.34375C13.2969 9.24844 13.3347 9.15703 13.4021 9.08963C13.4695 9.02224 13.5609 8.98438 13.6562 8.98438C13.7516 8.98438 13.843 9.02224 13.9104 9.08963C13.9778 9.15703 14.0156 9.24844 14.0156 9.34375Z"/>
</svg>