<svg xmlns="http://www.w3.org/2000/svg" width="18" height="19" viewBox="0 0 18 19" fill="none">
  <g clip-path="url(#clip0_3696_5164)">
    <path d="M10.2446 5.93713H11.9296C12.1059 5.93713 12.1941 5.93713 12.277 5.95705C12.3506 5.97471 12.4209 6.00384 12.4854 6.04337C12.5582 6.08795 12.6205 6.15029 12.7452 6.27497L15.674 9.20383C15.7987 9.32851 15.8611 9.39085 15.9056 9.4636C15.9452 9.5281 15.9743 9.59842 15.992 9.67198C16.0119 9.75495 16.0119 9.84311 16.0119 10.0194V12.0648C16.0119 12.4007 16.0119 12.5687 15.957 12.7012C15.8838 12.8778 15.7435 13.0182 15.5668 13.0913C15.4344 13.1462 15.2664 13.1462 14.9305 13.1462M11.326 13.1462H10.2446M10.2446 13.1462V6.08131C10.2446 5.27382 10.2446 4.87008 10.0875 4.56166C9.94925 4.29036 9.72868 4.06979 9.45738 3.93156C9.14896 3.77441 8.74522 3.77441 7.93773 3.77441H3.90065C3.09316 3.77441 2.68941 3.77441 2.38099 3.93156C2.1097 4.06979 1.88913 4.29036 1.7509 4.56166C1.59375 4.87008 1.59375 5.27382 1.59375 6.08131V11.7044C1.59375 12.5007 2.23927 13.1462 3.03556 13.1462M10.2446 13.1462H7.361M7.361 13.1462C7.361 14.3406 6.39272 15.3089 5.19828 15.3089C4.00384 15.3089 3.03556 14.3406 3.03556 13.1462M7.361 13.1462C7.361 11.9518 6.39272 10.9835 5.19828 10.9835C4.00384 10.9835 3.03556 11.9518 3.03556 13.1462M14.9305 13.5066C14.9305 14.502 14.1236 15.3089 13.1283 15.3089C12.1329 15.3089 11.326 14.502 11.326 13.5066C11.326 12.5113 12.1329 11.7044 13.1283 11.7044C14.1236 11.7044 14.9305 12.5113 14.9305 13.5066Z" stroke-width="1.5045" stroke-linecap="round" stroke-linejoin="round"/>
  </g>
  <defs>
    <clipPath id="clip0_3696_5164">
      <rect width="17.3018" height="17.3018" fill="white" transform="translate(0.152344 0.890869)"/>
    </clipPath>
  </defs>
</svg>