      <svg
        width="12"
        height="12"
        viewBox="0 0 12 12"
        fill="none"
        xmlns="http://www.w3.org/2000/svg"
      >
        <path
          d="M8.33341 1.3947C8.05402 1.39695 7.77732 1.45249 7.51675 1.55864C7.65527 1.95599 7.73247 2.37412 7.74541 2.79715C7.92301 2.68456 8.1261 2.62432 8.33341 2.62277C8.53245 2.62203 8.72836 2.67492 8.9025 2.77638C9.07664 2.87785 9.22322 3.02452 9.32831 3.20246C9.43339 3.38039 9.49348 3.58367 9.50286 3.79295C9.51224 4.00223 9.4706 4.21056 9.3819 4.39811C9.2932 4.58567 9.16039 4.74623 8.9961 4.8645C8.83181 4.98278 8.64151 5.05484 8.44329 5.07384C8.24507 5.09284 8.04553 5.05814 7.86365 4.97305C7.68176 4.88795 7.52359 4.75529 7.40416 4.58768C7.23652 4.97238 7.01186 5.3266 6.73858 5.63707C7.01577 5.91244 7.35283 6.11215 7.72029 6.21873C8.08774 6.3253 8.4744 6.3355 8.84647 6.24843C9.21853 6.16137 9.56467 5.97968 9.85462 5.71927C10.1446 5.45885 10.3695 5.12764 10.5097 4.75457C10.65 4.38151 10.7013 3.97797 10.6591 3.57922C10.617 3.18047 10.4827 2.79866 10.268 2.46717C10.0532 2.13569 9.76465 1.86461 9.42741 1.67765C9.09017 1.4907 8.71456 1.39355 8.33341 1.3947Z"
          fill="#6B7280"
        />
        <path
          d="M8.91675 6.92101H8.17941C8.42913 7.29584 8.61998 7.71049 8.74466 8.14908H8.91675C9.38088 8.14908 9.826 8.34316 10.1542 8.68862C10.4824 9.03408 10.6667 9.50263 10.6667 9.99119V10.6052H8.91675V11.2193C8.91486 11.4289 8.87855 11.6367 8.80941 11.8333H11.2501C11.4048 11.8333 11.5532 11.7686 11.6626 11.6534C11.772 11.5383 11.8334 11.3821 11.8334 11.2193V9.99119C11.8325 9.17723 11.5249 8.39688 10.9781 7.82132C10.4313 7.24576 9.69001 6.92199 8.91675 6.92101Z"
          fill="#6B7280"
        />
        <path
          d="M3.95841 5.69294C3.43924 5.69294 2.93172 5.53089 2.50004 5.22727C2.06836 4.92365 1.73191 4.4921 1.53323 3.9872C1.33455 3.4823 1.28257 2.92672 1.38385 2.39072C1.48514 1.85472 1.73515 1.36237 2.10226 0.975937C2.46937 0.589503 2.9371 0.326338 3.4463 0.219721C3.9555 0.113103 4.4833 0.167823 4.96296 0.37696C5.44261 0.586097 5.85258 0.940258 6.14102 1.39466C6.42946 1.84906 6.58341 2.38328 6.58341 2.92978C6.58264 3.66237 6.30583 4.36472 5.81372 4.88273C5.3216 5.40075 4.65437 5.69213 3.95841 5.69294ZM3.95841 1.3947C3.66998 1.3947 3.38803 1.48473 3.14821 1.65341C2.90839 1.82208 2.72147 2.06183 2.61109 2.34233C2.50071 2.62283 2.47183 2.93149 2.5281 3.22927C2.58437 3.52704 2.72327 3.80057 2.92722 4.01526C3.13117 4.22994 3.39102 4.37614 3.67391 4.43538C3.9568 4.49461 4.25002 4.46421 4.51649 4.34802C4.78297 4.23183 5.01073 4.03508 5.17097 3.78263C5.33122 3.53019 5.41675 3.2334 5.41675 2.92978C5.41675 2.52265 5.2631 2.1322 4.98961 1.84431C4.71612 1.55643 4.34519 1.3947 3.95841 1.3947Z"
          fill="#6B7280"
        />
        <path
          d="M7.16675 11.8333H0.750081C0.595372 11.8333 0.446999 11.7686 0.337602 11.6534C0.228206 11.5383 0.166748 11.3821 0.166748 11.2193V9.37715C0.167674 8.56319 0.475263 7.78285 1.02204 7.20729C1.56882 6.63173 2.31015 6.30795 3.08341 6.30698H4.83341C5.60668 6.30795 6.34801 6.63173 6.89479 7.20729C7.44157 7.78285 7.74916 8.56319 7.75008 9.37715V11.2193C7.75008 11.3821 7.68862 11.5383 7.57923 11.6534C7.46983 11.7686 7.32146 11.8333 7.16675 11.8333ZM1.33341 10.6052H6.58341V9.37715C6.58341 8.8886 6.39904 8.42005 6.07085 8.07459C5.74266 7.72913 5.29754 7.53505 4.83341 7.53505H3.08341C2.61929 7.53505 2.17417 7.72913 1.84598 8.07459C1.51779 8.42005 1.33341 8.8886 1.33341 9.37715V10.6052Z"
          fill="#6B7280"
        />
      </svg>