<svg  viewBox="0 0 35 35" fill="none" xmlns="http://www.w3.org/2000/svg">
  <path d="M26.3332 22.7598C28.4044 23.8003 30.1801 25.47 31.4762 27.5579C31.7329 27.9713 31.8612 28.1781 31.9056 28.4643C31.9958 29.0461 31.5979 29.7613 31.0561 29.9915C30.7895 30.1048 30.4896 30.1048 29.8897 30.1048M23.488 16.6361C25.5959 15.5886 27.0445 13.4134 27.0445 10.8999C27.0445 8.38636 25.5959 6.21118 23.488 5.16366M20.6429 10.8999C20.6429 14.4354 17.7767 17.3015 14.2412 17.3015C10.7057 17.3015 7.83956 14.4354 7.83956 10.8999C7.83956 7.36435 10.7057 4.49823 14.2412 4.49823C17.7767 4.49823 20.6429 7.36435 20.6429 10.8999ZM4.36735 27.1719C6.63539 23.7666 10.2144 21.5693 14.2412 21.5693C18.268 21.5693 21.847 23.7666 24.1151 27.1719C24.6119 27.918 24.8604 28.291 24.8318 28.7675C24.8095 29.1385 24.5663 29.5927 24.2698 29.8169C23.8891 30.1048 23.3655 30.1048 22.3182 30.1048H6.16426C5.11697 30.1048 4.59333 30.1048 4.21259 29.8169C3.91613 29.5927 3.67293 29.1385 3.65066 28.7675C3.62205 28.291 3.87049 27.918 4.36735 27.1719Z" stroke="black" stroke-width="1.42259" stroke-linecap="round" stroke-linejoin="round"/>
</svg>