<svg  viewBox="0 0 29 29" fill="none" xmlns="http://www.w3.org/2000/svg">
  <path d="M23.0817 25.241L26.6185 21.7042M26.6185 21.7042L23.0817 18.1674M26.6185 21.7042H19.5449M18.9555 4.36317C20.6837 5.06272 21.9028 6.75703 21.9028 8.73607C21.9028 10.7151 20.6837 12.4094 18.9555 13.109M14.8293 18.1674H10.1136C7.91633 18.1674 6.81772 18.1674 5.95111 18.5264C4.79564 19.005 3.87761 19.923 3.399 21.0785C3.04004 21.9451 3.04004 23.0437 3.04004 25.241M16.5976 8.73607C16.5976 11.3405 14.4864 13.4518 11.882 13.4518C9.27755 13.4518 7.16627 11.3405 7.16627 8.73607C7.16627 6.13167 9.27755 4.02039 11.882 4.02039C14.4864 4.02039 16.5976 6.13167 16.5976 8.73607Z" stroke="black" stroke-width="1.17892" stroke-linecap="round" stroke-linejoin="round"/>
</svg>