      <svg
        width="10"
        height="12"
        viewBox="0 0 10 12"
        fill="none"
        xmlns="http://www.w3.org/2000/svg"
      >
        <path
          d="M5.00008 5.69294C4.44097 5.69294 3.89441 5.53089 3.42953 5.22727C2.96464 4.92365 2.60231 4.4921 2.38834 3.9872C2.17438 3.4823 2.1184 2.92672 2.22748 2.39072C2.33655 1.85472 2.60579 1.36237 3.00114 0.975937C3.3965 0.589503 3.90021 0.326338 4.44858 0.219721C4.99694 0.113103 5.56534 0.167823 6.0819 0.37696C6.59845 0.586097 7.03996 0.940258 7.35058 1.39466C7.66121 1.84906 7.827 2.38328 7.827 2.92978C7.82617 3.66237 7.52807 4.36472 6.9981 4.88273C6.46813 5.40075 5.74957 5.69213 5.00008 5.69294ZM5.00008 1.3947C4.68946 1.3947 4.38582 1.48473 4.12755 1.65341C3.86928 1.82208 3.66798 2.06183 3.54912 2.34233C3.43025 2.62283 3.39915 2.93149 3.45975 3.22927C3.52034 3.52704 3.66992 3.80057 3.88956 4.01526C4.1092 4.22994 4.38904 4.37614 4.69369 4.43538C4.99834 4.49461 5.31412 4.46421 5.60109 4.34802C5.88806 4.23183 6.13334 4.03508 6.30591 3.78263C6.47848 3.53019 6.57059 3.2334 6.57059 2.92978C6.57059 2.52265 6.40513 2.1322 6.1106 1.84431C5.81607 1.55643 5.41661 1.3947 5.00008 1.3947Z"
          fill="#6B7280"
        />
        <path
          d="M8.45521 11.8333H1.54495C1.37834 11.8333 1.21856 11.7686 1.10075 11.6534C0.982934 11.5383 0.916748 11.3821 0.916748 11.2193V9.37715C0.917746 8.56319 1.24899 7.78285 1.83783 7.20729C2.42668 6.63173 3.22503 6.30795 4.05777 6.30698H5.94239C6.77513 6.30795 7.57349 6.63173 8.16233 7.20729C8.75117 7.78285 9.08242 8.56319 9.08341 9.37715V11.2193C9.08341 11.3821 9.01723 11.5383 8.89942 11.6534C8.78161 11.7686 8.62182 11.8333 8.45521 11.8333ZM2.17316 10.6052H7.827V9.37715C7.827 8.8886 7.62845 8.42005 7.27501 8.07459C6.92158 7.72913 6.44222 7.53505 5.94239 7.53505H4.05777C3.55794 7.53505 3.07858 7.72913 2.72515 8.07459C2.37171 8.42005 2.17316 8.8886 2.17316 9.37715V10.6052Z"
          fill="#6B7280"
        />
      </svg>