<svg xmlns="http://www.w3.org/2000/svg" width="18" height="19" viewBox="0 0 18 19" fill="none">
  <path d="M11.78 6.65812V4.13542C11.78 3.53581 11.78 3.23601 11.6537 3.05177C11.5433 2.89079 11.3724 2.78144 11.18 2.7487C10.9598 2.71123 10.6876 2.83686 10.1432 3.08813L3.74838 6.03958C3.26284 6.26367 3.02007 6.37572 2.84227 6.54949C2.68507 6.70312 2.56508 6.89065 2.49147 7.09775C2.4082 7.33201 2.4082 7.59939 2.4082 8.13415V11.7045M12.1404 11.344H12.1476M2.4082 8.96502L2.4082 13.723C2.4082 14.5305 2.4082 14.9342 2.56535 15.2427C2.70358 15.5139 2.92415 15.7345 3.19545 15.8728C3.50387 16.0299 3.90761 16.0299 4.7151 16.0299H13.0776C13.8851 16.0299 14.2889 16.0299 14.5973 15.8728C14.8686 15.7345 15.0891 15.514 15.2274 15.2427C15.3845 14.9342 15.3845 14.5305 15.3845 13.723V8.96502C15.3845 8.15753 15.3845 7.75378 15.2274 7.44536C15.0891 7.17407 14.8686 6.9535 14.5973 6.81527C14.2889 6.65812 13.8851 6.65812 13.0776 6.65812L4.7151 6.65812C3.90761 6.65812 3.50387 6.65812 3.19545 6.81527C2.92415 6.9535 2.70358 7.17407 2.56535 7.44536C2.4082 7.75378 2.4082 8.15753 2.4082 8.96502ZM12.5009 11.344C12.5009 11.5431 12.3395 11.7045 12.1404 11.7045C11.9414 11.7045 11.78 11.5431 11.78 11.344C11.78 11.1449 11.9414 10.9836 12.1404 10.9836C12.3395 10.9836 12.5009 11.1449 12.5009 11.344Z" stroke-width="1.5045" stroke-linecap="round" stroke-linejoin="round"/>
</svg>